ply
format ascii 1.0
comment Created by Open3D
element vertex 1907
property double x
property double y
property double z
end_header
110.898 204.121 78.9286
96.784 190.412 44.2778
173.789 113.77 204.816
90.0432 120.817 162.308
124.992 106.586 106.69
196.203 71.359 113.296
251.594 92.3144 162.981
117.64 134.684 79.2479
159.424 121.072 211.86
82.5534 161.816 56.7186
132.017 154.762 82.7212
90.0453 211.814 64.3759
104.241 179.838 43.7968
111.368 126.652 70.4383
103.272 212.067 176.885
103.857 126.83 184.53
172.082 71.7743 148.313
180.733 120.623 204.853
272.032 92.4883 148.878
194.813 135.147 197.73
97.4219 120.795 80.1918
89.5699 183.863 36.7324
68.8606 211.84 134.913
131.309 85.2731 170.254
69.2313 184.382 93.338
117.771 92.4534 163.546
97.5139 238.62 155.741
181.439 99.2704 183.951
82.8415 167.497 169.889
75.686 188.742 64.4984
117.363 150.069 65.6996
124.93 99.0495 100.13
118.081 85.5603 129.233
250.406 78.662 155.643
118.121 85.6503 141.841
117.618 85.5245 133.799
117.857 85.3183 136.64
104.32 107.18 169.25
187.114 106.767 190.446
104.752 227.121 92.3536
97.3835 205.092 64.6715
124.88 92.042 177.106
149.673 106.639 204.766
166.56 81.8561 106.812
167.68 71.69 121.463
124.931 182.768 71.9587
76.4438 149.03 110.647
155.53 71.6705 134.961
104.198 197.81 64.3913
111.491 218.791 92.3946
89.5565 166.714 177.101
230.104 85.9267 127.335
208.959 78.093 106.856
194.945 114.111 190.528
180.912 92.5772 176.786
76.1047 232.206 94.106
111.191 92.8488 130.346
145.476 120.073 211.91
111.397 121.259 190.735
110.417 125.609 191.161
137.595 170.197 205.109
237.267 78.7081 127.693
84.4637 225.305 156.461
132.476 161.466 78.1994
111.287 99.9249 168.777
89.6512 253.695 128.688
119.266 196.89 190.554
247.914 87.0194 162.077
219.682 78.9381 162.269
121.143 135.505 86.2431
145.379 71.4531 143.457
83.1532 239.419 141.219
102.401 134.425 50.655
131.413 157 79.8732
232.982 71.2439 149.534
82.9348 169.288 50.6377
146.529 77.9848 120.43
144.204 85.2109 177.506
154.09 85.3716 177.447
208.692 98.5789 121.229
152.006 71.4274 149.267
101.135 141.294 43.7286
195.516 159.695 198.269
197.814 79.3312 161.999
161.637 71.3839 149.263
96.9374 160.789 184.001
105.169 166.139 190.218
123.913 203.95 86.5161
96.5678 218.394 79.1651
118.002 169.172 197.794
96.8735 120.399 85.5211
97.2114 157.067 183.651
103.722 99.1438 140.512
76.3269 149.118 117.445
191.251 152.018 201.623
167.99 99.0592 191.548
92.5403 260.569 114.315
83.4042 135.207 147.085
82.6411 134.301 142.919
131.275 78.0077 149.865
76.5153 150.254 137.275
111.255 233.745 99.6429
158.983 86.0267 176.157
124.293 85.2391 156.618
69.0374 170.354 108.413
208.283 152.645 190.44
271.736 110.964 151.09
139.289 85.5972 176.495
118.863 93.2513 168.058
117.794 225.031 100.222
97.6096 239.899 154.656
186.184 100.126 183.148
165.657 78.7289 162.837
161.667 78.2481 163.772
90.0603 253.549 100.155
109.846 205.297 184.305
118.065 154.305 64.5048
98.5365 115.225 103.549
165.417 77.0596 111.279
191.184 93.7253 176.245
94.8063 223.085 81.3934
186.852 137.408 204.084
196.18 152.95 198.662
99.7455 200.732 62.2415
268.342 109.922 147.171
156.494 159.75 211.212
156.831 151.792 213.047
206.001 68.7599 137.835
67.4926 194.371 137.362
87.3501 138.091 166.964
85.5853 144.925 166.253
72.9594 215.715 145.379
76.6242 208.469 154.69
233.568 88.9401 167.58
219.962 68.6761 138.666
178.568 74.4314 153.196
135.921 97.7198 192.958
198.42 73.0397 153.698
198.491 76.196 158.254
108.169 216.23 87.9075
198.151 71.1032 149.798
109.652 223.469 94.078
134.315 179.368 200.319
165.575 71.0791 125.877
114.523 172.809 194.95
96.9409 134.169 57.491
273.277 117.697 158.772
129.915 84.3577 165.654
273.168 123.707 151.957
74.8986 221.259 82.1728
93.0414 247.809 92.1623
129.261 186.779 195.321
134.817 222.046 104.766
101.592 123.595 180.794
256.943 127.277 169.792
119.799 172.814 61.2701
130.044 230.175 108.213
128.312 227.066 105.957
134.623 146.109 210.688
106.344 213.458 84.1113
114.111 206.411 83.6569
120.459 166.548 62.3364
86.682 138.544 82.4528
76.694 149.861 103.093
141.063 153.862 211.456
117.473 116.436 95.4911
100.166 172.862 187.483
96.283 168.14 184.341
72.8048 159.036 103.441
93.0737 180.281 180.982
98.0713 122.183 175.631
75.7956 226.429 85.6764
89.3458 173.568 177.607
93.3922 173.43 34.4327
108.503 165.949 192.139
247.705 123.921 172.52
79.469 194.454 53.8923
212.381 145.109 187.821
96.1176 140.04 48.8889
77.121 187.047 60.6302
220.795 144.841 182.611
98.3636 173.322 35.72
98.2996 108.023 160.956
104.956 165.6 42.2688
120.13 137.681 201.897
221.857 107.98 176.525
200.042 91.3835 114.665
240.307 81.3746 161.11
128.977 235.426 109.937
248.128 110.86 170.992
163.393 144.857 213.435
168.729 144.79 212.484
105.514 108.364 173.805
73.8333 228.979 131.27
128.321 80.3458 109.745
177.548 137.895 209.669
94.5901 247.845 143.376
212.972 71.2137 150.043
120.489 253.738 107.194
163.542 139.023 213.702
168.634 132.179 212.351
169.303 138.279 212.666
106.003 139.127 48.4553
130.546 118.256 205.951
108.579 152.057 192.552
69.9051 215.678 95.9228
102.727 105.794 164.195
82.0897 247.618 116.412
205.244 152.94 192.564
96.5461 126.689 71.0036
78.1384 229.532 145.576
68.8473 169.326 112.268
226.578 109.197 175.573
247.505 116.953 136.715
99.0678 213.924 77.2832
118.968 242.608 106.205
72.2844 194.154 151.916
217.26 138.124 184.532
71.6918 186.772 152.059
233.211 88.9238 130.487
182.395 157.611 205.534
92.6746 130.949 172.81
205.701 70.8152 117.58
219.114 90.5786 170.988
233.365 110.071 173.993
103.341 112.844 82.8047
142.661 159.148 210.31
99.4033 101.769 152.936
198.643 87.5914 110.563
107.47 193.416 62.1192
85.5481 172.788 173.279
100.76 138.095 47.3518
271.502 116.944 149.276
77.8727 151.734 152.77
105.845 215.01 176.232
216.867 151.761 184.489
105.279 158.498 42.2221
105.331 116.283 181.862
234.519 94.1784 169.348
74.3732 152.805 117.082
149.741 87.2077 181.34
91.1945 116.594 145.708
217.196 86.4228 120.251
207.909 71.6555 114.522
109.958 131.228 192.158
268.508 116.633 147.665
220.388 152.186 182.282
80.3946 151.846 159.22
267.945 124.024 147.617
85.8999 250.756 124.621
261.814 123.962 144.721
261.328 109.85 144.866
129.16 158.592 206.137
253.654 116.911 139.911
261.54 103.419 144.61
256.855 108.886 142.64
87.5185 229.984 80.9472
121.952 158.662 202.103
98.8131 166.275 35.2864
240.024 130.928 174.107
191.23 159.237 200.675
123.886 84.7853 105.081
223.429 115.999 127.698
261.506 116.926 144.673
219.586 103.176 126.341
141.899 76.6636 117.355
145.573 85.832 114.03
120.678 89.0165 102.313
226.706 68.6077 130.543
76.9849 158.976 82.0011
102.475 111.1 96.6883
210.092 162.707 187.034
177.201 145.295 209.65
75.5958 233.302 130.421
113.475 165.979 54.9334
178.08 130.529 208.598
76.5374 157.234 87.5773
226.278 68.5386 138.593
110.232 173.174 51.845
107.982 165.914 47.7721
110.428 166.256 51.6119
86.8738 173.608 40.232
116.387 91.347 103.886
90.7895 115.41 152.008
112.839 159.684 54.6182
116.241 158.711 59.8961
99.9185 129.532 60.6035
135.651 117.468 207.96
104.357 171.963 43.2104
90.691 188.752 176.35
99.7257 131.042 181.3
261.809 123.479 168.59
91.5035 124.126 109.504
213.101 69.5892 124.782
82.9143 148.21 77.8801
113.665 187.092 62.0913
226.202 75.1858 118.28
68.6699 220.854 105.775
108.047 110.14 181.016
96.3707 228.452 163.449
130.403 164.325 205.387
172.348 145.842 211.373
74.4334 186.998 158.694
107.339 123.991 187.285
98.3581 262.09 102.212
167.732 150.229 212.139
97.3234 113.761 115.284
205.229 83.004 166.186
97.2408 106.953 142.278
102.351 261.007 99.225
98.826 116.205 95.8062
170.328 77.4404 158.995
100.802 256.791 97.2724
122.73 117.012 199.899
90.7122 122.399 117.577
88.0482 165.809 39.8671
95.554 111.219 139.158
106.995 144.643 47.0871
115.881 192.355 191.146
90.4235 121.127 123.458
261.768 81.9434 152.695
160.857 72.3886 129.412
84.5998 130.24 138.566
101.182 132.589 54.2888
88.8595 125.501 117.66
85.9652 131.226 117.518
84.9312 131.182 124.462
156.488 116.493 210.902
101.372 144.81 42.0151
102.016 158.457 38.3272
123.849 165.248 66.3074
114.592 235.987 102.357
109.336 138.111 192.642
254.209 81.8499 140.167
190.897 86.1968 106.159
117.76 141.995 72.0089
149.28 96.9556 194.419
83.4652 149.441 73.4628
148.871 130.798 214.061
108.639 173.415 191.796
271.09 124.989 149.665
85.9526 250.716 102.891
122.908 143.487 80.7381
127.76 102.545 104.334
198.103 86.1622 169.331
254.426 123.352 170.773
198.127 69.3446 123.855
259.686 77.9995 149.711
142.157 130.921 213.03
200.831 108.02 183.235
92.2326 236.644 153.353
219.682 130.833 182.536
202.799 126.502 191.198
88.8091 160.036 41.2822
212.228 137.828 187.644
230.301 124.783 177.032
116.889 109.85 95.8819
204.356 130.966 191.586
207.4 130.2 189.817
101.288 109.61 110.214
190.675 97.1882 178.97
165.464 82.2476 108.358
106.438 132.184 55.1091
81.3496 145.742 89.643
238.63 84.2907 163.747
269.435 95.3929 153.559
134.519 131.234 210.795
112.242 93.649 116.668
112.531 93.9132 109.95
82.8974 232.655 148.984
68.7155 212.909 99.3184
100.45 116.127 82.6127
78.9795 242.627 117.831
177.615 69.2126 124.23
109.321 98.0653 109.935
120.484 87.0269 153.46
233.478 73.1856 153.244
108.753 187.69 53.8255
105.411 191.564 54.79
105.879 186.562 48.0956
120.226 193.825 76.07
113.91 109.481 187.714
149.866 73.1482 130.775
127.214 172.706 69.7409
100.5 165.952 187.293
119.239 86.9447 110.404
111.443 107.283 182.944
130.369 173.733 73.6049
110.272 105.902 178.767
105.827 250.573 98.677
112.889 101.001 173.998
124.541 211.523 93.1572
105.63 256.677 98.7347
156.532 124.057 212.979
109.17 256.575 100.594
81.5529 212.636 63.7547
74.2189 180.176 159.253
169.721 84.7365 170.81
128.651 138.774 208.008
171.658 93.7837 182.353
149.822 137.971 214.385
92.9927 166.348 180.683
170.131 96.1591 186.527
96.407 112.788 125.673
219.464 88.7208 122.93
112.829 228.079 98.4976
226.897 82.614 123.396
67.6695 215.148 110.438
225.508 88.3465 126.102
76.6228 187.714 161.865
108.331 208.487 81.0898
212.956 102.251 123.635
68.6706 181.777 98.8004
219.643 109.486 126.651
247.828 70.9432 143.662
243.054 83.6666 135.343
248.25 121.94 137.532
227.245 115.529 128.867
241.92 89.6466 136.273
108.611 130.355 60.5953
82.5676 133.852 138.298
99.0272 221.146 84.0826
113.495 95.0335 102.374
245.586 74.5004 133.45
113.212 192.758 68.9965
106.734 186.996 189.637
102.534 111.473 172.858
213.277 116.378 182.586
89.4653 126.906 111.447
68.8009 194.295 91.6687
114.403 165.931 195.927
226.468 95.7132 171.732
191.741 82.2963 102.946
79.0125 144.404 117.642
128.227 145.383 207.456
171.94 130.428 210.989
86.419 238.229 87.4058
225.562 70.8997 150.306
98.7971 158.818 35.9305
156.359 83.335 173.408
113.579 159.79 196.174
88.5136 124.06 124.32
163.589 74.9274 118.132
101.784 141.887 44.1691
83.3059 142.369 88.7607
86.8356 234.534 150.693
127.39 166.335 203.445
95.1798 118.281 110.084
121.321 165.961 200.43
260.575 104.104 164.008
89.1865 147.449 55.5611
205.487 109.775 182.136
244.66 105.686 170.233
88.6576 152.837 48.0584
77.5913 150.844 95.7117
78.5759 151.677 89.2633
214.779 90.8533 121.463
113.585 116.95 82.6848
86.6461 159.445 46.8252
228.555 90.5237 128.601
86.5616 187.02 40.6176
115.616 209.849 87.7791
216.833 79.3642 113.233
255.258 74.1601 145.199
101.475 188.647 45.782
223.164 102.641 127.716
263.312 87.4101 154.773
125.381 85.8931 161.536
91.9119 191.744 42.6747
100.663 180.383 40.2232
94.4075 159.2 35.733
114.623 130.807 75.2009
89.3082 138.472 170.704
75.0063 192.983 157.936
172.933 100.072 189.996
68.2641 188.249 136.78
66.3367 193.661 131.653
108.791 104.312 172.858
94.2536 109.854 145.708
208.381 144.648 190.42
67.7655 200.971 137.456
213.75 84.3404 115.708
91.6132 214.554 168.458
128.344 151.707 206.895
103.152 105.552 117.982
100.416 250.3 95.3259
182.774 130.838 206.044
92.5399 173.443 180.952
78.8706 228.825 82.2043
187.201 144.441 204.285
79.3131 172.852 166.564
82.8794 240.162 92.2209
88.7288 248.171 136.6
155.845 164.88 209.651
184.333 72.0171 108.413
231.386 144.699 177.347
80.1713 235.666 89.2966
77.4152 194.575 160.794
206.05 94.6615 118.793
156.867 138.206 214.434
192.308 109.279 189.237
110.499 238.034 100.283
112.849 151.845 196.119
183.835 77.1806 157.771
162.707 70.4964 144.939
80.1145 187.258 166.072
71.8227 173.033 145.492
170.386 88.0615 174.579
230.77 130.88 177.055
74.4538 172.989 74.4869
167.144 92.4684 184.244
81.4544 152.339 75.46
177.734 124.141 207.201
128.611 95.6082 186.803
237.524 95.6761 134.476
239.229 110.793 134.323
183.925 73.8817 152.873
102.456 196.547 60.0063
115.276 117.034 193.034
70.198 193.952 145.442
157.196 94.3769 189.401
129.33 195.004 81.047
233.196 103.246 133.097
137.789 96.853 107.673
74.6333 221.478 144.963
205.164 116.99 185.952
134.221 205.886 91.5609
227.205 109.734 129.423
269.671 130.034 149.491
78.2533 222.065 75.8903
136.187 173.237 79.418
122.195 151.865 203.056
101.383 202.572 66.8392
230.121 74.1211 120.706
109.633 227.083 170.308
118.956 86.5121 117.222
75.6544 161.683 83.6933
273.493 116.512 152.581
72.9988 215.103 81.9255
118.739 197.922 78.5713
87.4982 214.008 165.405
234.433 130.263 175.691
72.7466 172.936 82.8207
71.4684 208.648 82.5567
226.112 144.49 179.734
68.4984 220.57 109.894
229.22 76.9875 121.238
84.0928 245.236 132.896
142.287 74.0046 152.257
126.102 91.3953 99.5631
177.185 95.7958 181.4
92.5302 124.001 103.787
81.9807 247.781 110.335
212.611 68.8834 138.827
135.447 89.218 180.736
248.103 74.9994 152.021
217.124 144.992 184.793
111.329 191.144 64.5363
92.2391 249.511 139.298
118.856 254.718 106.215
82.1643 158.94 61.7875
136.052 91.5492 184.966
110.38 92.1591 144.778
74.6044 234.839 116.859
135.731 100.941 196.493
94.9081 131.184 68.2801
109.336 105.534 89.9606
108.438 159.677 192.292
68.1687 194.064 96.5448
109.698 184.948 191.213
103.649 113.129 177.474
259.952 77.5349 145.809
89.8195 134.29 78.7446
65.939 200.869 124.348
266.351 82.5124 146.685
210.704 118.816 184.6
119.962 94.6223 173.78
66.2002 194.622 109.913
234.362 142.975 176.072
150.624 156.09 212.043
74.8543 166.368 159.144
105.959 101.851 117.633
69.5733 187.512 89.1256
71.521 229.638 109.899
116.982 131.845 198.769
118.935 86.2052 146.431
99.744 235.384 160.042
114.426 123.893 194.659
251.919 111.97 170.297
80.6831 213.97 157.81
78.8983 179.696 165.809
99.4666 192.095 48.5579
141.537 117.028 209.686
71.8599 158.845 117.603
69.468 186.428 139.407
104.422 122.454 183.59
93.3035 110.429 151.833
219.159 71.0234 119.233
92.8209 116.802 130.638
272.63 103.03 151.558
150.74 119.468 212.195
81.2191 205.566 56.976
83.3691 187.129 44.3237
101.394 209.506 75.0516
198.316 97.8969 177.783
124.706 149.881 204.921
133.866 173.303 77.2188
142.626 145.175 213.178
87.4981 192.258 42.766
114.453 250.332 103.868
69.6732 178.421 133.547
102.741 112.119 89.2167
114.148 180.117 193.322
70.2132 180.625 138.288
213.43 100.834 176.503
137.296 238.334 114.185
97.8421 188.261 183.008
178.202 115.65 203.629
128.714 182.752 197.294
212.288 89.7207 171.473
95.2627 191.306 179.336
232.949 70.1456 125.658
86.9281 187.565 173.196
83.283 246.282 100.792
142.624 74.1301 124.284
120.748 83.254 131.512
78.2411 145.538 131.01
217.739 75.83 112.922
134.315 180.134 77.9443
251.871 95.39 141.554
69.788 222.316 117.785
91.668 137.411 173.404
67.4508 201.074 103.53
87.0826 131.481 110.203
74.5555 214.605 76.2635
105.343 152.554 189.926
75.1465 234.033 124.039
184.183 68.4766 139.26
212.183 88.3492 118.377
227.455 96.308 129.311
82.2563 154.23 69.2399
85.6465 194.702 45.4711
261.899 95.98 144.005
198.169 81.4681 104.101
234.096 68.7419 131.834
78.3945 145.229 124.655
87.6446 227.923 157.382
177.394 82.7281 166.427
109.97 98.377 104.33
155.38 80.7107 128.237
85.0125 214.997 162.656
105.456 100.849 160.42
102.174 236.354 94.1454
106.095 119.201 70.6167
254.909 109.94 168.587
177.455 75.994 102.903
83.4207 164.331 51.9785
157.621 99.9095 197.393
224.729 71.1767 119.952
69.3446 200.996 88.5451
110.144 189.642 59.614
254.414 75.0259 139.282
100.076 185.637 42.1208
196.512 118.78 191.737
224.167 112.279 177.016
240.408 81.4736 132.177
235.24 83.3178 129.211
212.124 75.618 109.891
98.9199 206.762 68.8172
199.182 94.3608 175.906
100.512 194.642 53.8686
112.215 115.927 189.408
82.6215 247.135 122.802
238.075 74.7439 126.584
88.0222 131.933 96.8604
188.277 119.1 198.26
74.1212 159.391 145.182
69.9253 223.11 103.239
81.0392 219.868 70.6669
82.6457 141.111 97.063
68.8594 175.592 128.065
100.512 229.109 165.326
75.5003 154.164 145.212
184.34 68.2587 131.744
211.952 103.433 177.536
170.094 70.3672 124.239
110.049 144.547 52.594
113.933 194.866 190.16
80.7038 158.208 68.4576
200.397 93.1287 116.018
78.4323 159.071 75.558
68.8315 200.859 91.9132
191.195 73.2038 152.936
121.303 130.846 202.384
89.4648 179.136 177.475
75.906 154.846 149.677
147.36 86.1386 116.394
272.292 108.07 148.453
115.715 194.998 73.7645
97.7631 198.578 56.4872
112.917 144.496 196.096
87.0937 145.45 68.1923
86.3058 179.659 173.952
76.9377 193.726 60.7477
93.6502 236.47 88.4015
70.6361 187.015 146.068
186.054 158.663 203.467
135.459 165.684 206.476
97.44 260.05 100.312
205.66 95.7764 175.618
191.446 69.1376 124.254
71.6819 180.173 152.355
204.941 79.304 162.275
170.167 81.5699 166.338
232.256 80.8025 125.365
85.0827 145.131 75.937
170.155 91.1844 179.565
72.346 172.363 153.082
135.423 123.627 209.984
241.914 74.87 130.035
114.131 101.995 95.4682
122.749 222.865 101.382
109.558 243.761 100.605
128.351 222.245 103.008
101.251 117.408 75.5946
84.5897 250.804 117.709
251.496 135.581 171.15
142.747 151.051 212.439
99.3798 116.366 89.2815
135.142 159.397 208.321
128.035 102.967 195.054
122.277 249.393 108.426
88.8639 254.575 123.834
234.479 138.456 175.818
99.6299 193.396 182.601
224.457 150.449 180.165
191.503 117.165 194.598
115.004 123.757 82.2658
237.818 99.1108 170.087
112.253 151.94 55.2487
184.549 86.8226 105.561
83.1817 135.375 123.11
142.753 103.734 201.561
102.484 193.03 185.107
191.507 68.4265 131.033
127.334 199.82 84.1484
107.332 208.107 181.201
213.253 72.0482 114.935
254.249 76.4356 151.029
72.1312 229.193 103.461
77.9644 158.615 159.997
107.465 194.151 187.878
99.588 116.619 173.687
183.723 90.5619 108.767
103.088 201.694 182.109
126.425 192.362 192.673
136.349 177.151 79.1478
247.263 89.0273 138.901
99.9099 124.167 68.027
219.426 69.6361 124.33
95.0888 110.963 159.085
252.643 103.937 141.22
108.747 137.656 53.6855
212.177 130.943 187.091
270.899 102.211 154.445
66.6925 208.007 117.293
169.536 112.787 205.584
239.804 138.336 174.238
211.826 124.203 185.638
198.622 102.412 180.356
161.458 155.971 212.012
184.678 81.4534 101.307
204.588 138.155 192.218
147.287 170.047 206.908
77.7106 215.596 153.28
247.438 116.68 172.301
108.756 103.263 95.9628
90.1691 127.935 102.392
101.338 186.654 186.4
74.6167 165.845 82.2952
141.323 102.108 110.644
119.899 102.237 98.7659
148.989 79.2456 168.688
75.221 214.852 150.269
203.801 98.8456 177.191
108.598 158.666 47.6126
114.698 255.18 103.793
94.8948 216.259 74.975
212.479 96.0411 174.727
242.615 101.133 169.348
111.435 133.228 63.4335
233.264 69.7634 145.017
170.145 69.3653 130.862
143.059 110.399 206.73
69.6038 165.888 117.593
205.358 89.3109 171.979
117.417 164.339 198.316
92.6863 243.948 145.916
111.692 145.37 56.0331
77.5606 179.96 61.0837
94.7729 234.122 157.691
72.759 165.806 145.093
115.976 188.509 67.4074
132.978 78.926 154.855
113.863 145.383 61.0698
76.2493 178.553 65.2817
233.49 74.8955 123.349
106.964 229.565 167.941
142.355 82.8357 173.091
118.487 86.0545 123.657
84.2341 157.877 167.962
107.45 95.4959 138.604
269.552 109.73 159.945
94.4256 255.456 97.8984
219.546 87.0437 168.907
207.899 114.301 183.535
95.8061 261.423 104.248
116.284 143.674 67.5473
102.545 117.431 178.797
261.46 110.28 166.404
92.4852 257.671 103.165
114.213 108.725 89.2693
71.4383 172.829 137.883
89.4783 118.846 152.528
220.476 74.3782 115.693
172.876 138.157 211.629
91.4697 198.64 49.5829
223.86 95.6182 127.34
247.195 95.8143 139.458
209.828 94.1125 120.343
255.787 94.6068 161.897
82.0075 180.167 48.6203
142.918 170.932 205.794
101.235 152.266 38.9975
105.269 260.787 99.3429
68.2528 215.316 103.649
224.808 79.4672 119.635
183.422 151.648 206.018
81.5647 138.484 124.634
247.891 131.543 172.11
198.153 68.5175 131.465
262.867 101.941 161.457
84.2126 159.107 54.2484
105.138 107.816 95.9566
272.538 97.0853 150.26
198.969 82.4366 165.443
128.852 96.3237 101.6
217.083 105.692 177.2
80.9783 193.405 165.613
83.9778 193.905 168.692
76.4755 149.569 125.536
268.988 89.5837 145.89
65.7331 193.928 124.32
123.28 97.9896 185.523
191.033 89.9439 173.045
110.397 92.2387 139.984
78.8695 235.835 138.872
115.496 151.917 61.4798
101.079 215.847 81.4205
121.374 208.162 89.1432
233.807 109.868 132.766
129.284 179.758 74.3563
128.58 187.074 76.4329
106.212 206.853 77.3904
184.277 68.858 124.456
65.5522 193.989 117.432
268.697 89.2865 151.994
121.982 96.2329 180.487
127.585 116.199 203.261
107.621 200.505 185.404
74.3015 235.495 110.178
75.0939 207.437 69.535
106.479 221.001 90.0893
149.582 166.978 208.464
81.2162 242.222 131.498
177.189 68.7954 138.397
219.157 117.068 180.265
191.006 68.1515 139.313
132.708 183.214 197.801
111.589 93.5028 124.156
90.4631 151.89 175.903
138.067 137.376 212.116
141.89 82.0154 110.929
82.0182 146.447 158.053
272.375 95.995 147.916
80.2559 243.293 124.076
178.077 70.3089 145.152
121.618 124.18 201.181
88.1573 151.98 172.733
184.233 69.7557 145.581
74.6273 234.484 103.719
93.2746 201.183 54.4527
115.461 89.8737 117.237
76.9892 238.12 102.803
113.323 173.073 54.779
219.013 123.458 181.899
213.091 96.382 122.56
253.531 96.8751 163.907
121.372 229.009 103.859
140.363 174.282 203.87
116.763 130.196 81.5536
129.952 98.536 191.73
106.768 108.302 88.3277
90.0648 120.757 130.585
134.204 108.806 203.169
233.658 115.488 131.528
68.3811 187.72 96.6948
82.4247 204.789 162.951
233.354 117.777 175.475
112.399 105.224 90.3225
226.2 137.931 179.535
177.435 89.0863 173.996
135.313 74.6224 138.411
77.4601 201.485 60.8173
118.263 108.599 99.2897
105.402 101.612 124.035
117.199 98.8885 177.965
92.8582 130.644 75.2385
212.775 110.073 179.936
92.0332 116.998 138.184
96.2166 173.103 184.606
80.6089 226.671 77.9134
109.015 201.982 74.8988
264.198 128.799 146.407
219.508 81.7808 117.612
156.686 156.319 212.107
118.395 124.674 90.6868
149.601 115.908 210.716
177.352 152.002 208.76
212.001 80.9953 110.845
83.1353 149.081 162.371
140.449 122.212 211.288
142.529 138.188 213.281
126.662 93.7165 182.052
184.302 69.935 117.314
150.946 80.4459 124.741
101.94 125.977 63.2766
218.944 68.8047 130.236
255.723 102.907 142.905
156.432 90.9085 185.829
122.737 242.92 108.48
74.0972 172.88 159.07
149.22 144.861 214.04
142.466 166.049 207.809
256.231 130.586 169.576
119.09 179.062 62.6652
156.566 144.547 214.073
88.5199 132.361 89.6913
95.8262 138.726 178.328
121.79 193.376 191.767
100.859 242.84 94.6754
107.459 235.932 97.7123
121.826 215.385 95.3393
78.3413 236.539 95.7682
114.288 242.865 103.402
91.4433 137.721 67.737
241.088 116.908 173.562
87.0691 152.145 54.3172
247.9 102.348 168.134
84.5136 130.708 131.173
76.6875 208.605 66.492
239.886 116.456 133.796
97.7263 241.786 92.2877
119.662 212.757 92.2176
98.7848 138.456 181.662
106.748 112.96 77.7789
254.012 117.193 170.671
142.867 88.9512 110.367
233.103 102.574 172.302
133.854 186.163 78.318
102.778 105.021 124.278
124.256 138.083 205.184
177.615 90.4854 108.289
99.1682 109.502 124.709
89.3978 173.804 36.4019
74.5527 152.573 109.966
149.336 90.5519 186.232
108.752 116.856 186.048
102.159 104.518 131.518
96.0833 105.393 151.459
136.224 77.4859 111.647
104.898 100.87 131.047
116.124 97.8789 173.327
91.3568 129.918 82.2873
108.251 96.16 132.21
75.7016 212.687 71.1451
123.282 91.2608 172.442
109.083 97.6496 117.394
233.031 76.5203 158.347
106.24 102.465 110.108
70.8118 187.551 81.8779
72.3897 201.023 75.2311
145.11 71.3077 138.94
74.6022 201.545 68.5193
198.271 130.873 194.605
113.616 199.864 76.7196
247.617 81.7057 159.069
122.431 159.309 67.1996
212.545 151.738 187.448
108.737 195.655 67.2589
119.477 186.37 69.3302
97.5476 177.913 36.3579
109.35 250.137 100.882
261.803 81.4439 144.174
111.963 93.2082 153.366
75.1648 227.678 89.8614
161.42 163.494 210.148
114.844 88.6396 131.224
76.5378 238.304 117.641
119.208 159.615 63.3473
68.3631 201.302 95.8913
87.9771 131.269 103.208
112.319 226.718 171.316
98.8522 108.71 131.895
177.754 87.0925 105.642
74.9152 159.533 152.079
205.089 103.196 178.917
94.1149 123.755 89.4937
227.29 69.4651 125.023
70.4526 200.638 82.6114
95.8672 119.073 103.359
79.9018 152.096 82.2219
111.517 118.899 77.7066
239.89 77.1837 157.595
268.051 117.186 165.075
136.522 79.3591 107.839
184.278 97.213 180.581
75.5076 219.359 78.2087
272.64 111.613 156.865
75.2864 153.843 138.649
91.3754 158.407 38.1964
90.4518 128.223 96.0401
142.489 97.1501 193.982
205.378 75.9142 158.433
219.4 95.9732 125.294
74.505 208.039 151.412
92.9086 242.281 90.0455
92.6701 251.256 95.2498
253.361 122.641 140.314
87.8526 124.36 131.396
162.86 73.034 124.402
205.524 124.26 188.848
199.757 117.229 188.858
239.552 142.37 174.455
81.4215 233.972 84.4901
244.413 79.2795 134.537
149.664 124.346 213.378
77.0332 230.865 88.4809
134.713 138.022 210.916
113.082 94.3021 159.221
120.863 201.34 82.7531
74.0205 228.925 96.4231
118.307 121.229 197.542
84.8566 152.241 167.152
191.886 76.6655 157.955
114.966 200.903 188.321
124.761 131.247 205.178
78.921 222.19 151.455
240.553 73.7214 152.395
169.722 72.4074 116.774
130.302 217.722 100.32
108.652 97.1919 124.53
85.9107 180.096 40.256
177.287 72.5659 109.363
156.297 103.301 201.309
78.7113 201.351 159.53
84.6587 137.609 96.7862
67.767 208.033 103.385
76.5686 164.367 75.2726
69.1454 209.172 94.3399
183.899 83.2408 166.227
88.5768 123.583 159.441
93.7743 159.524 180.485
162.805 73.0242 152.633
117.015 159.642 198.783
71.1981 180.163 145.649
170.893 78.9917 161.761
192.536 87.5367 108.119
106.126 126.056 62.9925
125.192 219.12 99.7185
107.747 115.779 75.5577
240.946 69.3368 138.404
78.7518 214.703 68.1972
135.147 151.2 210.271
170.807 74.4685 109.677
127.991 214.478 96.894
86.9041 193.034 171.904
87.2013 223.359 75.0732
125.969 122.718 204.233
69.3758 223.589 110.552
88.4325 146.162 61.5211
116.58 144.805 199.128
111.439 189.4 190.704
90.7575 128.972 88.6856
135.949 104.174 200.183
110.764 99.4114 99.0046
156.875 79.625 168.195
85.0102 229.902 153.425
175.859 85.2674 170.139
76.3062 238.89 109.579
114.986 89.5148 124.331
232.63 96.8887 170.717
122.96 196.454 79.6244
116.911 111.489 191.999
149.968 72.604 152.604
98.6635 235.443 91.325
104.857 233.585 164.239
192.063 72.2744 108.719
123.107 237.251 107.644
108.028 124.008 67.4392
198.592 124.794 192.813
82.4573 173.673 50.0017
205.856 82.9613 108.916
87.6964 241.27 144.191
98.3466 135.494 52.512
161.659 125.044 212.358
200.962 121.66 190.18
91.2987 211.306 169.556
226.894 88.3222 168.591
134.718 194.013 82.0059
81.0576 173.075 54.0033
193.999 130.576 197.119
118.634 132.474 84.0346
163.947 89.5548 180.701
98.1945 122.008 74.3447
110.7 159.389 51.2855
163.132 91.6978 184.885
163.701 86.7399 175.17
83.727 135.864 117.021
240.047 70.1447 130.986
87.2495 206.062 56.2147
110.585 114.218 79.2454
135.041 94.1146 188.294
87.9022 124.181 138.397
141.714 90.9778 185.959
238.131 71.1095 127.559
79.5892 166.619 166.145
164.186 131.391 213.166
141.039 100.119 197.239
84.4583 137.021 103.058
73.2976 165.936 152.429
94.3573 124.542 172.195
84.8258 166.232 47.2502
121.753 91.6705 99.1698
133.241 166.379 77.3002
87.8007 248.906 96.673
131.129 78.4419 112.3
156.335 74.0728 131.575
79.3213 207.839 61.5141
127.493 108.592 110.22
148.741 76.4766 124.758
266.229 83.6144 150.854
65.8458 200.777 117.665
233.331 123.867 176.015
89.9158 120.508 138.912
70.4626 173.402 96.2548
67.9617 173.254 117.09
69.6012 172.2 102.766
68.2812 172.938 111.173
68.0271 180.26 103.712
204.367 86.7761 112.246
105.07 144.539 189.237
69.5081 179.01 96.1631
66.7698 180.097 116.943
71.8643 166.853 96.645
73.5214 165.946 88.4555
70.5093 166.951 103.885
71.708 159.483 110.132
191.575 86.352 169.482
89.2116 180.743 36.298
198.234 70.6149 117.094
93.0388 180.251 35.666
121.933 172.799 199.364
125.147 154.236 204.668
103.646 106.116 110.704
95.0652 213.375 171.16
246.395 90.0252 163.962
84.1852 172.613 46.1468
223.217 112.376 127.787
247.472 110.083 137.456
134.794 208.834 94.4491
108.404 229.301 95.9828
68.1853 214.579 123.729
70.1864 221.727 124.324
77.7039 236.869 131.764
68.0198 215.34 117.583
68.5578 213.507 130.51
68.7138 219.242 115.677
129.636 178.987 199.759
81.7176 194.041 48.8865
95.6677 125.293 76.0733
76.1314 202.994 155.519
123.856 112.28 198.773
267.562 103.499 158.509
88.6502 138.52 75.4535
90.468 136.028 73.6493
107.459 102.636 166.964
170.822 159.115 209.631
85.8482 212.798 63.5912
176.986 157.784 207.857
163.648 158.77 211.091
240.684 70.4941 145.08
79.1594 144.723 110.226
226.303 130.847 179.115
68.3771 174.004 123.657
82.2948 140.506 103.659
164.101 94.7498 187.597
101.512 98.6084 151.049
122.095 89.6971 166.075
114.813 90.7726 151.848
106.158 243.206 98.3625
120.302 220.06 98.4966
129.724 152.536 81.5535
216.447 156.192 184.154
71.657 222.338 96.3701
93.3165 165.263 34.3588
73.2127 222.26 89.5058
70.5648 179.482 88.9878
274.205 120.743 158.106
71.0459 215.101 89.7678
69.8609 208.542 89.8628
85.6435 137.691 89.2738
95.2307 145.795 179.419
68.5418 207.594 97.2478
76.5387 165.473 162.059
84.1347 150.937 68.2564
130.426 165.62 73.9607
122.165 180.654 67.5282
128.067 207.271 90.7723
69.6471 166.649 110.327
82.8395 172.457 170.006
221.672 84.3248 121.605
105.567 138.305 188.957
163.637 70.6141 131.666
170.843 69.3806 138.393
162.971 70.1501 138.091
184.442 89.3231 172.987
170.683 81.5938 104.356
256.043 79.9869 154.324
171.787 76.9537 104.617
177.459 81.6514 102.06
129.837 105.346 107.674
147.401 82.8686 118.309
74.4298 187.257 68.4596
74.7991 180.056 69.1869
71.4518 180.578 82.6819
113.757 131.677 195.877
72.2349 187.266 75.816
75.4381 173.262 70.3919
205.996 86.2541 169.434
88.6626 145.291 171.918
70.5223 201.181 144.917
66.5433 201.154 110.288
112.278 111.601 83.281
95.1261 146.62 41.7867
71.6807 173.305 88.7445
89.681 119.882 147.135
85.8832 234.656 83.8362
138.302 145.366 212.091
96.3602 119.526 96.5769
67.1838 194.025 103.631
119.941 102.512 188.008
66.0694 187.04 110.713
122.594 104.186 192.45
65.6897 187.148 116.816
66.2579 187.023 124.148
89.9413 133.924 170.202
101.706 110.723 103.376
128.133 173.322 201.845
66.6156 201.561 132.251
89.4015 133.014 83.0152
212.911 70.9573 118.338
117.317 123.52 88.4349
82.0938 147.139 83.1961
205.517 69.5182 123.95
142.117 107.056 204.472
70.3663 166.123 124.231
211.837 159.009 186.757
92.9268 124.563 96.1937
136.468 112.115 205.881
120.912 96.2806 98.2326
141.896 96.018 110.052
83.3809 188.744 169.378
144.517 80.6056 115.613
80.5688 145.301 152.583
155.57 80.7045 126.596
177.668 79.4931 161.463
158.889 76.9089 124.977
92.518 228.577 83.3266
253.763 110.261 140.328
132.715 185.625 196.506
92.2944 213.535 68.8572
94.974 209.501 67.1155
148.909 103.578 202.196
128.268 88.447 173.697
96.0649 196.747 51.6581
149.017 109.857 207.102
94.1262 194.305 46.8056
128.987 91.3181 179.925
156.726 97.2933 193.755
134.204 86.5373 175.237
248.368 72.1192 147.16
126.564 86.7563 167.215
116.178 117.247 88.9736
240.544 89.2654 165.63
126.616 248.445 110.986
94.166 117.207 118.408
134.507 235.803 112.321
135.053 173.468 203.284
205.934 68.5437 132.13
213.546 68.8046 130.663
68.764 169.018 116.288
269.095 95.7013 145.576
240.917 96.5147 136.319
112.693 124.089 76.191
198.518 68.4272 138.447
128.64 88.7445 101.21
159.627 77.5075 120.538
88.2845 124.03 145.241
75.6013 227.123 142.825
109.897 111.73 184.798
75.3897 167.901 75.7306
254.749 103.018 165.986
96.0339 112.286 131.767
73.0254 229.049 124.159
114.976 97.4112 98.2124
71.0011 221.682 131.255
72.106 228.94 117.506
186.064 130.258 203.513
242.139 71.8538 148.349
76.5572 223.398 147.596
185.392 124.249 202.636
192.125 101.469 182.227
182.072 125.405 205.491
105.286 159.276 190.068
190.572 131.572 200.042
149.459 151.994 212.904
115.52 202.807 81.0238
119.986 130.723 88.5799
215.326 122.021 183.566
90.3409 129.529 168.919
88.6962 131.399 166.487
69.1409 201.684 141.243
148.987 93.3484 189.696
93.3533 187.295 39.5454
184.188 85.8996 169.497
167.429 84.8248 107.153
257.554 83.9078 142.079
70.3699 194.042 82.1036
69.2681 193.631 88.2435
72.6136 159.265 124.496
73.5696 159.349 131.335
71.823 166.426 131.455
93.4018 144.795 47.3785
69.2906 171.502 125.898
73.7932 159.189 138.615
72.5062 166.014 138.784
240.509 102.498 135.974
95.8907 154.801 36.5841
116.829 137.139 74.4688
242.104 109.155 135.372
121.255 109.49 194.745
67.3612 207.251 131.334
89.3914 140.544 69.5547
81.6354 187.383 47.9147
208.032 138.058 190.257
261.59 95.9462 159.273
90.6163 142.855 60.3976
93.3181 137.949 61.2115
122.027 188.371 73.3295
85.2992 152.14 61.3197
108.426 97.6186 159.159
177.144 68.5774 131.475
124.485 145.105 205.213
79.0951 243.336 109.851
82.3849 247.189 104.72
116.36 104.539 185.87
94.7198 124.481 82.2241
120.899 83.1436 138.674
141.868 72.6232 145.017
85.1764 244.833 95.383
226.579 76.1903 158.902
103.587 218.454 86.0802
105.87 180.833 190.306
100.351 180.225 187.181
74.2725 158.603 96.7617
108.942 180.108 191.463
141.76 93.5721 189.547
68.9341 189.349 92.2206
220.496 138.113 182.664
111.877 185.2 56.2339
88.1627 124.08 152.426
114.32 186.42 192.108
120.433 187.114 193.342
120.268 180.264 195.823
184.706 102.715 187.151
108.052 152.159 47.1772
119.358 199.609 189.7
128.779 130.151 207.713
110.514 151.545 51.7827
94.2583 187.329 179.952
92.1933 207.702 61.3885
87.1842 209.623 60.2885
90.9677 205.391 57.1182
79.3498 187.36 54.0232
68.4044 207.249 136.905
75.752 192.882 64.085
251.538 71.2935 140.399
117.309 126.093 198.045
125.878 94.8913 99.411
156.07 110.274 207.153
155.363 119.505 212.143
182.252 105.685 192.295
271.796 120.659 162.742
113.864 214.334 90.3889
120.792 144.512 75.7792
84.7805 251.371 110.109
76.7408 223.917 80.4306
271.116 115.986 161.845
76.7585 150.989 145.991
273.392 110.176 152.907
133.338 169.11 204.632
185.171 93.1762 176.532
133.557 214.038 98.4384
103.007 131.541 184.973
106.825 103.226 103.331
129.299 210.425 93.9176
122.739 84.252 110.037
122.253 83.7665 117.663
84.1889 143.716 81.9332
184.226 75.2382 102.494
191.315 75.158 103.182
125.976 159.41 204.292
225.265 91.42 170.324
115.731 229.896 101.072
184.445 110.387 195.356
189.903 111.469 192.379
177.874 100.965 188.333
234.427 83.7251 164.644
177.061 104.504 193.903
114.742 95.9427 166.404
116.424 91.6239 158.252
126.98 153.495 76.6383
92.0979 221.528 77.2673
256.168 89.6544 142.342
76.662 172.123 67.1508
93.337 117.952 165.466
81.3385 228.521 150.854
115.748 90.2645 110.065
91.5111 117.261 160.57
91.4763 122.93 167.372
89.288 125.056 164.196
163.235 76.8278 159.868
183.905 79.6309 161.336
100.081 109.959 166.394
97.8116 114.453 168.652
117.01 165.317 58.8612
135.234 82.036 104.658
139.752 77.8123 112.454
114.228 89.5389 145.811
126.16 79.3803 138.371
191.463 82.7445 165.54
100.175 159.269 186.371
166.061 154.841 211.701
100.753 151.985 186.018
206.179 89.761 115.966
108.959 144.807 192.737
67.0042 180.174 111.085
69.1064 177.731 99.9133
98.3235 144.454 182.277
102.121 144.622 186.321
106.452 173.684 46.9429
93.739 152.261 179.515
266.875 129.485 147.744
101.819 173.212 39.6502
102.201 166.716 38.5888
101.009 104.041 158.907
155.83 72.6025 152.87
135.322 189.034 79.4333
79.9717 180.107 54.2311
170.785 124.004 209.646
174.11 106.481 197.981
234.344 79.9757 161.74
164.072 123.093 211.29
170.962 116.777 207.25
128.696 110.113 201.024
74.069 201.374 152.417
175.767 117.597 205.878
93.6447 152.687 39.1317
240.424 110.815 172.504
111.265 140.186 57.2756
247.53 95.8296 165.832
94.7297 210.529 172.153
69.5428 216.55 132.011
135.861 103.253 108.696
83.4915 156.618 60.2289
226.37 123.957 178.602
67.3866 180.116 124.344
99.4583 209.898 175.546
99.9626 213.459 174
112.519 131.404 68.6491
149.219 85.0196 177.701
225.571 117.633 177.959
100.199 109.462 117.685
170.926 152.127 210.942
97.7449 114.716 109.834
170.32 70.6475 145.075
255.392 96.3967 142.858
253.022 88.8109 141.108
253.717 83.0115 157.592
110.442 180.649 51.6258
149.336 159.018 211.167
113.041 179.904 55.0179
191.94 137.532 200.367
116.668 138.065 199.043
73.406 208.322 75.15
113.335 138.036 196.216
166.496 88.766 109.714
149.975 70.6225 138.56
126.72 79.6404 124.885
261.551 88.8472 143.32
67.0171 207.925 110.209
114.71 137.999 68.1245
71.3376 208.217 145.147
233.759 68.5747 137.79
79.1808 145.024 146.043
183.416 138.123 206.468
247.709 70.5699 139.13
107.551 110.57 82.2404
128.556 203.15 87.3897
86.6231 202.761 52.4336
155.718 71.3901 149.488
191.132 71.1998 112.385
246.908 103.673 138.619
134.88 198.352 85.2499
226.928 103.115 129.599
135.235 201.496 87.9983
199.61 84.7289 107.81
204.602 80.1541 105.646
205.141 76.4023 105.665
107.218 180.132 47.5968
134.735 228.714 108.975
136.725 224.975 107.294
76.0097 172.897 162.735
183.851 144.413 206.328
103.447 211.413 79.3877
81.1241 159.603 164.832
162.87 103.922 200.152
132.531 225.571 106.544
101.681 98.3764 146.164
162.402 98.3254 193.448
163.966 100.546 196.025
257.112 123.318 142.227
156.823 107.07 204.504
163.535 111.757 206.388
135.546 240.882 114.354
133.115 240.775 113.431
238.776 88.435 133.754
120.218 152.622 68.3494
118.678 146.208 70.4988
244.765 70.9751 134.109
119.683 115.621 196.626
129.307 159.226 75.3573
126.749 165.842 69.4814
204.165 158.133 192.716
261.724 116.9 168.116
268.788 121.7 165.122
116.139 217.108 94.0054
89.1421 246.999 92.3894
79.7352 207.811 158.81
67.3047 187.44 103.205
74.3205 193.614 68.2075
267.754 102.49 146.084
72.0827 193.661 75.3542
118.097 119.549 95.7453
118.448 121.787 94.2116
171.028 109.713 202.434
118.838 174.081 197.272
176.805 110.588 200.408
178.413 107.715 196.859
182.311 112.498 198.601
80.5416 145.116 95.7398
184.193 117.38 200.712
226.229 79.1672 162.18
169.537 105.592 199.111
113.512 205.725 185.453
257.066 115.572 169.516
114.842 222.029 96.7063
105.24 202.538 183.106
83.5716 144.711 160.765
90.3747 158.113 176.401
122.558 104.408 102.126
149.402 82.3059 173.217
128.807 82.5097 104.012
88.8232 254.639 104.286
82.2643 140.087 151.384
123.551 150.993 74.15
88.2745 255.606 110.443
91.3752 259.188 110.243
126.707 147.021 83.029
102.479 139.101 185.827
120.593 137.973 82.3887
135.032 75.1507 145.277
101.147 103.629 138.717
156.426 75.4873 159.659
99.3073 102.063 144.585
155.998 77.3813 164.682
163.952 80.178 166.304
162.888 84.0637 171.845
198.928 72.6709 109.6
252.867 131.054 170.593
95.9635 230.157 87.1423
99.8949 228.726 89.447
81.6464 137.908 145.116
78.425 144.787 137.824
138.646 149.125 211.928
123.635 84.4986 152.471
76.6043 217.076 73.2037
93.0397 261.127 110.746
266.055 96.7807 156.622
139.183 84.4496 106.476
83.9302 136.749 152.389
243.149 120.764 134.823
84.9359 138.026 159.282
87.744 159.157 173.286
177.491 70.4152 117.195
107.362 94.1508 144.284
81.4132 241.637 97.4512
83.5041 180.039 44.8681
272.422 101.947 148.097
93.0279 117.352 124.402
135.714 89.2563 104.3
97.9585 231.45 162.175
129.694 77.1327 139.038
94.9999 241.834 150.551
121.783 83.1501 124.507
142.971 72.5101 131.183
94.8726 138.487 54.983
131.857 92.3612 184.124
240.414 95.493 168.118
219.085 96.2873 173.583
75.85 200.032 64.5988
226.263 69.4245 145.621
203.118 163.043 192.737
199.551 159.351 195.873
207.765 159.17 189.703
119.168 205.035 85.4596
206.926 163.383 189.463
212.852 69.8137 145.461
219.7 69.5328 145.552
219.084 70.9949 150.213
171.95 86.4631 106.115
176.086 93.3936 110.263
170.2 89.8796 108.921
199.885 152.557 196.293
170.735 93.2094 110.438
197.8 69.589 145.248
205.372 69.9271 145.637
205.293 72.7241 153.352
72.7706 222.13 138.717
95.2636 203.29 59.5173
74.8125 228.32 138.465
138.631 92.3723 106.902
96.6573 120.034 89.8757
128.542 83.3588 159.442
128.443 81.1611 152.686
86.2258 130.81 152.254
135.55 81.7673 166.529
134.38 79.9724 160.316
76.6056 150.123 131.397
108.275 213.373 178.265
75.3757 153.652 131.14
130.123 77.1842 145.013
104.269 107.165 102.797
132.863 100.608 106.142
70.529 215.09 138.481
131.11 77.8503 118.397
139.267 87.9655 106.575
135.276 168.559 79.1074
130.29 77.5026 124.982
96.1569 105.154 146.707
136.095 76.1898 117.303
138.237 131.796 212.094
86.9229 130.63 158.945
218.53 110.69 178.331
86.513 215.926 67.0097
104.948 152.331 42.4102
219.263 102.669 175.776
149.093 71.4328 134.235
126.778 79.8824 145.855
243.657 121.283 135.039
135.501 76.5771 151.922
91.2009 145.224 175.001
84.163 136.554 110.144
82.0219 140.054 110.724
96.1266 182.779 37.4557
91.3404 184.067 36.5953
136.227 84.3993 172.726
85.1684 130.963 145.209
247.494 82.1442 137.386
91.1598 258.697 116.952
88.4697 255.685 117.09
90.4971 256.617 123.15
225.778 82.6659 165.137
170.637 102.443 194.739
89.9942 251.298 134.156
248.565 74.8787 136.105
191.405 144.693 201.685
81.1353 138.074 131.267
186.866 151.915 204.077
117.283 173.46 58.6726
195.971 144.689 198.624
198.034 137.594 196.008
86.2998 226.754 77.7742
74.9403 153.127 124.726
90.3251 246.025 141.124
116.481 152.144 199.003
142.533 76.1115 159.543
85.7678 244.095 138.143
233.433 96.26 132.453
83.4723 225.316 155.518
87.1026 242.003 90.3345
121.959 83.4826 145.053
141.62 72.3097 138.164
147.141 71.6866 147.811
104.57 146.842 43.137
258.779 85.048 156.3
96.0066 132.911 62.2982
257.323 117.558 142.314
104.313 100.203 136.726
97.9726 108.219 138.134
80.6228 201.169 54.5738
137.443 77.5202 158.194
149.736 74.5923 159.027
85.5224 237.315 146.499
77.6626 166.717 68.4643
189.276 124.633 199.258
212.089 79.0962 162.326
212.421 75.7232 158.516
212.271 72.5664 153.412
219.745 75.8655 158.75
75.703 154.378 97.227
219.493 72.6923 154.001
75.0502 153.129 103.509
205.698 71.1464 149.606
212.692 82.2293 165.309
219.299 82.4248 165.332
73.1953 180.045 74.8654
135.382 107.175 109.971
243.452 116.516 134.974
96.2931 179.399 184.4
240.574 124.387 174.094
121.099 107.84 104.001
135.349 74.7369 132.067
216.715 131.111 184.307
116.346 180.803 60.0523
110.381 128.647 65.9817
272.009 92.2151 148.402
149.345 77.1757 165.107
121.257 88.2193 159.667
142.114 79.6417 167.326
143.443 77.8733 164.632
124.002 172.792 66.0976
79.9869 144.214 103.272
186.633 114.614 197.088
129.921 77.382 131.786
142.272 87.7515 181.107
226.916 72.752 153.795
118.817 139.909 76.444
198.115 110.26 186.359
251.527 71.3784 143.048
156.285 70.4268 145.156
121.795 146.068 203.158
80.4482 243.438 103.047
107.709 95.5643 152.813
179.367 71.1619 112.771
82.347 198.471 50.1728
135.688 75.2726 123.971
123.136 109.012 108.634
259.214 128.428 168.993
105.295 173.517 190.286
192.642 123.591 196.231
80.0366 166.52 60.8168
156.191 87.2093 180.027
93.1991 230.294 159.753
170.871 73.9523 152.798
212.385 86.4703 169.209
204.746 144.305 192.735
163.276 117.047 209.388
205.797 73.3718 109.653
106.607 130.713 188.521
89.506 119.718 158.456
70.3563 173.799 132.008
91.5982 144 54.1
156.583 131.063 214.11
191.239 79.5958 161.708
81.0388 234.72 144.458
76.4403 231.402 140.187
142.692 125.239 212.531
198.82 76.0952 103.777
177.373 77.3157 157.974
83.2962 163.911 169.377
126.777 79.2826 131.004
150.036 70.799 145.137
114.621 102.765 180.541
208.667 100.015 121.507
81.7627 200.213 163.896
66.8941 207.982 124.481
118.243 106.838 190.483
195.288 139.105 198.244
133.121 159.378 80.5739
184.785 71.0829 111.704
81.922 166.436 55.0283
176.201 98.4519 185.311
126.052 160.793 70.5878
75.5152 198.502 156.127
96.2868 118.936 171.087
266.671 111.297 164.164
68.3637 180.801 130.716
101.841 207.719 178.329
78.4403 172.864 61.44
260.632 89.7738 157.286
255.049 89.1936 160.076
85.8698 166.349 172.876
111.717 209.38 182.397
81.8819 240.842 136.507
111.474 212.854 179.816
87.5433 250.095 131.179
86.3536 199.543 49.0033
225.988 103.01 174.188
191.527 70.2451 117.007
75.5457 161.241 157.177
76.3212 156.916 154.528
110.537 135.367 58.7806
129.251 124.42 206.979
85.2193 219.761 70.4211
69.1178 217.129 100.647
230.811 138.887 177.292
76.0315 162.725 79.9916
118.834 249.994 106.413
239.827 103.615 170.821
249.813 107.625 169.463
203.063 112.358 184.569
75.6006 233.209 97.9187
172.332 71.0417 118.946
102.394 119.468 70.6451
127.927 242.927 111.361
97.5458 128.214 66.2213
125.55 107.699 197.187
102.977 233.241 163.621
112.274 137.995 61.4524
69.4713 208.955 139.785
130.462 105.51 198.859
90.9073 149.978 45.5769
215.699 107.151 125.179
67.1118 187.387 130.908
118.702 100.495 182.986
98.3025 154.744 36.5763
101.577 222.747 87.4361
82.7243 134.159 132.629
134.303 217.161 101.077
89.5801 167.5 36.4756
134.79 95.1823 105.114
90.1022 163.25 36.9646
90.9904 190.977 175.945
96.1973 132.545 177.654
199.357 143.856 196.21
76.2094 180.29 162.622
114.452 88.6708 138.771
76.9115 237.472 124.888
156.174 70.6164 138.202
192.299 71.1197 149.644
186.475 71.2799 149.147
177.517 71.6945 148.261
191.302 69.4382 145.371
158.83 71.3802 134.35
68.6975 175.037 104.81
75.0648 160.379 89.4898
69.0615 218.085 124.794
126.223 177.992 70.45
69.0195 193.249 141.335
191.214 104.567 185.943
90.9629 233.403 85.1012
175.811 91.9676 177.509
120.45 235.498 105.686
110.311 121.514 73.1894
80.9427 137.66 138.491
196.106 105.873 184.6
237.486 103.858 134.727
127.704 79.9792 117.04
199.181 89.7428 172.715
222.731 114.485 127.552
246.1 77.8377 156.339
103.159 231.409 93.1395
109.637 99.0721 164.347
163.248 152.151 212.567
97.6459 151.744 183.214
123.395 177.509 198.546
106.407 199.499 69.2891
127.051 191.635 77.9801
228.743 115.889 176.488
103.851 113.482 78.6833
247.034 137.692 172.44
81.7981 139.388 117.344
96.1296 112.723 163.759
82.3615 154.003 163.498
164.133 108.297 203.527
