ply
format ascii 1.0
comment Created by Open3D
element vertex 1604
property double x
property double y
property double z
end_header
84.5218 139.962 159.712
84.6097 232.134 151.146
85.0335 239.372 143.734
84.3744 155.248 59.1253
84.7402 171.686 45.191
99.3389 102.403 143.949
93.2972 217.689 74.7034
130.009 79.1822 110.522
84.163 240.141 90.4534
176.927 117.402 205.345
192.417 102.167 182.861
115.167 109.686 90.152
206.255 87.1298 113.573
167.648 87.3167 174.398
107.004 109.937 82.9145
237.719 128.503 174.686
83.6156 217.431 67.5229
84.2952 140.393 88.8924
137.852 94.6132 189.98
206.371 110.483 182.127
92.432 125.638 93.2259
82.5235 224.656 74.981
138.919 171.142 204.967
219.353 71.653 151.929
229.063 78.8453 121.916
108.469 208.058 181.848
160.426 125.714 212.759
155.647 79.0632 167.745
188.004 78.8223 160.411
84.9976 156.972 54.0926
85.0072 141.114 83.9517
84.2166 147.818 73.8838
198.699 151.677 197.096
184.273 150.574 205.696
83.6678 202.105 52.0375
84.3474 132.508 145.148
129.487 78.7877 117.791
77.3415 157.226 158.031
207.522 157.649 190.216
182.737 110.815 196.982
207.145 77.8058 105.9
114.954 139.011 197.67
100.464 217.557 82.54
122.136 101.866 190.447
136.382 80.2329 106.645
177.097 102.037 190.373
182.4 102.908 188.775
121.575 86.5089 104.81
77.1651 198.881 60.7539
114.632 150.003 60.8367
259.769 106.663 144.23
77.1024 239.781 106.96
84.922 148.945 69.1302
91.2926 139.366 65.2373
69.449 172.989 127.989
69.0996 197.183 89.2519
149.097 94.1007 190.615
107.903 102.77 99.895
91.157 231.02 83.8359
161.359 72.0408 129.306
69.5813 198.649 142.912
76.4286 175.123 66.1828
68.9759 211.32 96.8956
108.39 234.208 97.8636
237.581 122.865 174.759
99.5428 117.23 82.0288
184.53 136.987 205.67
228.829 117.79 129.177
162.541 149.832 213.065
92.6287 134.805 173.965
235.832 87.8711 166.613
131.031 224.957 105.713
113.363 207.586 84.3236
244.136 95.4293 166.9
77.3708 149.21 101.066
106.92 193.396 61.2478
77.193 239.415 118.242
260.085 111.739 144.279
115.419 102.763 181.874
123.425 135.964 204.495
230.257 88.1409 128.55
244.225 85.8115 136.774
267.317 103.352 158.695
180.013 87.2325 105.7
76.2399 233.228 95.6254
91.6743 125.111 104.679
237.844 138.127 174.729
84.6246 193.675 44.917
76.5684 218.203 74.4296
69.5965 180.389 135.057
76.56 161.734 160.124
76.5819 154.764 152.614
187.566 72.3487 107.46
260.298 126.262 144.026
194.12 71.5367 111.913
85.3492 245.841 134.709
81.3308 167.293 56.236
83.362 241.49 138.381
108.007 128.084 189.321
74.9071 197.618 155.457
69.908 206.256 142.243
72.4093 206.165 147.901
255.812 91.9589 160.832
187.834 70.0607 117.069
187.302 71.2954 111.064
180.793 71.3311 111.686
161.789 163.782 210.061
76.6804 225.552 82.3487
208.469 96.3134 120.52
179.801 78.8701 160.286
109.854 212.225 179.678
93.1084 118.814 117.756
195.301 72.7974 108.207
224.643 71.6746 152.144
82.4582 234.261 146.703
83.3786 167.777 50.231
198.095 143.516 197.011
206.018 126.478 189.5
91.2315 228.345 159.906
135.808 223.865 106.312
87.6085 229.08 156.369
102.514 175.172 188.862
121.801 109.069 107.355
219.17 121.26 181.39
101.21 187.37 44.1034
118.313 136.48 78.8282
225.88 77.7925 160.805
226.074 74.1813 156.136
260.394 79.2722 143.879
77.5315 199.497 158.662
103.127 137.484 186.275
145.038 71.7564 145.402
245.763 120.18 135.977
115.781 180.6 59.0637
140.147 104.261 110.457
217.951 81.8329 164.882
218.414 74.115 156.289
218.694 77.7212 161.018
192.436 130.561 198.293
87.2051 236.868 148.607
90.054 234.251 153.819
141.828 85.5834 177.4
148.875 72.185 150.731
144.275 71.5316 140.398
134.259 75.1645 133.334
82.6964 227.163 153.306
76.2076 225.987 145.246
80.3259 229.031 149.089
87.8178 244.351 140.399
233.272 75.0478 156.212
71.5929 159.588 117.336
230.827 86.9589 167.346
221.715 144.52 182.099
74.6996 152.235 117.343
78.6006 144.782 125.217
196.954 136.076 196.389
85.4561 142.815 78.9171
69.6955 165.494 117.406
79.9817 174.986 56.1525
84.3556 176.903 43.9822
66.9139 182.89 124.418
194.613 152.261 199.629
188.047 151.844 203.433
194.432 143.965 199.601
193.567 136.94 199.045
91.6517 117.13 160.979
92.6825 254.709 98.5391
188.593 144.202 203.435
83.8266 131.82 140.25
133.96 76.0979 147.829
134.073 75.1303 140.902
125.746 81.5353 148.144
67.4286 197.622 102.767
217.892 106.17 177.118
87.1937 128.437 155.621
128.203 78.633 126.007
135.094 76.419 117.416
112.838 129.312 71.769
135.505 86.3512 175.765
83.6546 248.474 103.743
134.73 77.9482 154.967
73.7022 159.948 141.081
75.9714 151.972 132.038
107.153 159.715 45.1925
162.263 86.7073 175.745
124.954 104.333 103.981
156.25 85.7944 177.238
68.944 169.464 111.039
114.337 127.408 77.679
252.741 71.7501 141.609
114.688 119.519 83.8321
72.9474 220.902 140.757
202.579 78.1334 160.871
83.3009 160.134 56.1903
210.561 74.2533 156.33
203.926 71.9498 151.531
202.743 70.5809 147.954
75.3341 228.293 140.465
167.298 89.9759 109.848
170.249 85.9814 106.402
79.7912 235.956 140.646
225.718 69.9968 147.55
84.8252 247.051 98.8694
210.763 70.6203 148.203
218.261 70.3118 148.051
149.916 73.402 155.264
205.773 163.852 190.361
198.046 159.958 196.732
202.971 159.036 193.466
118.803 88.9917 155.875
239.389 93.1602 167.619
248.513 91.3447 163.722
215.169 80.3674 112.58
141.938 72.6619 132.026
134.483 75.6427 124.647
96.322 240.855 152.75
100.175 237.639 158.491
97.651 233.562 160.251
138.289 88.0065 105.765
82.973 242.077 95.1968
91.6746 132.755 75.237
78.5472 144.656 132.714
85.1663 135.192 155.802
83.7593 138.411 154.54
81.4447 136.652 140.405
82.7799 136.683 147.387
203.303 73.5192 108.653
164.884 72.3311 150.997
156.536 73.5832 155.004
157.372 82.2691 171.58
172.37 80.9615 164.803
106.039 175.255 190.57
156.797 76.791 162.777
164.297 78.1558 162.259
120.848 135.899 85.1917
238.792 79.0671 159.792
90.2625 257.818 109.78
260.461 120.215 144.078
90.5985 256.288 103.809
81.625 144.871 155.432
118.713 196.395 190.594
106.033 203.356 183.221
111.255 205.469 184.672
117.649 200.09 189.273
86.0822 209.571 59.7682
116.471 203.648 187.548
177.553 108.883 198.472
117.534 175.408 196.095
172.002 107.524 199.933
173.186 112.161 203.664
262.625 90.1875 143.577
73.2109 198.391 72.0005
68.0482 174.816 110.23
262.921 121.364 168.187
90.1177 256.257 122.988
266.706 119.696 166.442
123.51 162.248 66.9466
128.041 152.481 79.1633
122.263 201.03 83.1623
124.628 153.642 73.3303
138.243 237.368 114.129
136.728 238.369 114.017
83.4178 160.552 168.152
138.448 228.718 110.074
202.28 77.0004 104.375
201.57 80.9598 104.85
134.893 198.518 85.4273
115.611 87.667 132.159
125.927 205.052 88.1706
126.773 200.228 84.2864
126.201 196.715 81.2013
233.379 70.501 147.257
77.0818 148.787 132.318
248.791 70.8312 140.191
99.3338 177.446 37.7649
66.9044 205.417 109.642
256.302 90.6999 142.433
124.747 80.9142 125.134
87.0017 183.22 39.348
112.823 174.75 54.3343
100.038 110.266 166.853
95.1301 236.042 156.228
109.276 175.3 50.5431
241.763 72.6084 150.107
255.728 78.4478 152.98
114.196 94.1692 161.118
249.918 81.2039 157.969
90.1018 257.539 116.893
240.922 76.1239 155.804
98.0915 222.662 84.3552
129.622 157.881 76.5835
163.431 70.8477 146.861
194.202 72.1 151.607
123.137 110.456 196.991
172.94 70.8569 145.977
97.7439 114.781 109.585
96.6099 114.036 118.082
99.9941 110.457 114.193
124.034 145.185 80.8204
230.188 109.556 174.688
103.484 212.095 176.787
100.547 213.679 174.116
99.2853 207.994 176.26
95.8737 212.995 171.786
172.24 115.446 206.289
178.848 122.946 206.406
128.395 78.2522 132.69
106.143 175.414 46.5019
127.831 180.378 198.54
94.4004 152.012 180.159
98.9566 144.965 183.095
121.615 86.4778 154.499
102.93 143.79 186.983
106.631 152.59 190.937
102.109 160.243 187.895
102.186 151.926 187.233
102.63 174.967 41.2864
128.198 77.9794 140.562
124.607 80.5966 132.186
77.1068 148.791 141.183
246.235 71.2148 135.115
124.549 80.6067 140.827
131.045 154.209 81.8461
106.72 144.244 190.763
120.281 85.3544 147.047
131.106 152.648 83.388
119.444 84.4622 140.261
119.129 84.4547 132.681
140.373 128.428 212.401
157.201 137.31 214.437
112.785 120.756 79.0331
134.195 82.6571 104.067
134.584 78.1554 109.921
172.624 76.175 156.458
88.3289 128.779 163.562
92.8732 118.693 165.765
95.5545 220.571 80.0202
93.3459 225.795 82.1078
173.104 104.133 195.665
120.905 174.005 198.465
106.033 100.916 161.492
179.423 99.5423 185.316
187.764 112.992 195.008
186.835 108.055 191.703
84.2201 161.898 51.461
113.322 229.587 99.4415
98.9194 200.948 61.4333
175.218 71.7891 112.94
180.166 76.4182 101.906
187.724 75.6572 102.326
265.089 99.1473 144.911
270.806 98.3895 147.223
120.597 167.238 62.3385
83.5954 146.12 79.4314
116.004 88.279 124.703
116.675 88.5828 117.136
125.528 81.4039 117.203
164.593 105.363 200.817
273.464 113.819 155.23
130.147 164.194 205.363
167.852 102.936 197.013
269.958 114.608 162.366
75.8538 198.749 64.3552
115.24 155.142 59.7071
77.0501 188.901 60.5923
79.0887 182.623 55.942
105.887 183.476 46.512
79.3621 198.398 55.5316
122.471 156.766 68.6262
77.2922 182.136 61.2167
103.539 229.401 92.504
88.9725 205.923 56.6273
93.6686 203.619 57.8975
270.995 114.178 148.963
107.108 152.197 45.5641
92.0823 117.482 133.987
116.981 152.301 63.7732
142.37 77.5294 163.065
194.461 106.205 185.592
144.559 79.1206 167.639
197.172 103.106 181.446
186.993 100.987 183.897
126.102 190.69 193.178
118.422 182.681 194.23
264.08 105.863 145.637
124.321 187.849 74.5798
114.507 185.501 61.2614
117.659 183.009 63.7065
159.929 95.1259 189.366
97.2052 181.991 184.556
93.1436 246.685 143.188
106.438 181.992 190.485
94.3234 181.246 36.1782
83.526 154.138 64.5327
85.7059 150.288 63.4562
90.3673 144.884 56.7757
86.9892 144.448 70.5282
241.602 90.0735 165.636
117.881 120.416 93.2083
99.6125 124.942 67.195
90.1669 121.046 162.535
117.093 113.884 94.9702
91.6594 123.079 168.032
117.948 111.489 99.2284
256.105 98.9698 143.076
243.777 104.541 137.059
249.148 98.6273 140.259
107.986 187.412 51.587
98.9374 210.173 175.052
145.095 124.783 212.996
109.083 182.356 50.2291
76.1413 205.184 65.7813
78.1184 206.495 62.1986
68.7145 169.394 116.672
67.7313 174.634 117.152
70.3562 166.909 125.173
221.602 136.877 181.959
71.2089 190.426 79.1589
69.1358 191.952 89.5814
99.855 133.893 182.212
68.5116 198.241 94.0468
195.653 93.3842 175.662
69.7486 197.805 85.2538
149.249 90.3026 185.84
171.786 78.6249 160.894
90.6083 129.868 169.433
205.485 95.6478 118.971
86.9015 202.34 51.6327
209.919 81.9849 110.357
182.176 121.034 204.005
187.067 129.015 202.377
71.8508 228.26 117.539
72.8236 228.384 124.823
245.582 80.6735 136.049
86.1129 127.951 140.957
89.1439 121.972 140.357
240.559 83.3312 162.381
195.136 70.4873 116.877
132.714 211.559 96.1109
203.171 70.7954 117.262
210.923 69.0271 140.392
202.694 68.8627 140.097
203.12 68.4699 133.413
100.067 118.172 76.2184
133.311 235.584 111.78
262.073 83.8282 143.443
165.034 83.7517 170.814
180.518 96.4098 180.836
75.7097 152.665 140.221
134.158 84.2597 170.742
107.9 95.1982 137.837
128.157 93.7754 183.545
130.958 87.2936 174.278
133.749 88.9356 179.177
149.09 97.0088 194.478
141.854 101.391 198.925
148.792 104.722 203.256
148.959 101.009 199.624
98.417 215.397 78.1497
96.2996 212.175 72.0156
156.264 108.855 206.02
96.4742 205.27 63.7082
100.737 202.909 66.4461
100.516 209.922 74.5333
98.6034 207.398 69.2072
102.646 212.496 79.6394
108.244 116.686 74.6463
256.051 106.382 142.511
248.971 106.579 138.923
68.3206 175.491 124.938
245.807 114.337 135.996
68.9827 177.344 130.065
249.697 113.751 137.89
96.5525 228.306 86.5586
119.447 159.652 63.5637
101.046 226.759 89.3664
155.493 81.1675 127.495
100.932 103.841 139.088
141.541 76.8568 116.984
105.094 106.036 102.424
139.682 78.1647 111.925
141.81 91.2714 109.532
132.359 112.092 204.2
133.023 215.644 99.5402
203.303 69.3727 124.497
210.919 71.0879 117.55
211.117 69.5346 124.995
126.826 174.759 200.906
66.7281 182.537 110.013
66.2699 182.946 116.56
167.72 71.7944 121.081
65.5409 190.111 117.202
66.4117 197.424 109.643
114.905 149.763 197.815
66.1367 190.373 109.549
79.4347 143.671 117.386
225.872 121.505 178.523
68.5101 204.859 138.487
210.482 85.7426 168.707
120.556 151.781 201.945
90.1193 215.536 68.9998
125.523 159.946 203.917
118.679 160.251 199.786
90.8032 249.077 138.16
185.362 115.785 198.874
131.713 184.691 196.786
179.822 72.6375 150.378
89.3339 160.047 40.4468
89.933 241.447 146.173
102.473 182.53 42.5069
180.275 113.854 200.969
126.6 183.837 196.165
95.1235 189.358 42.1726
188.616 136.035 202.533
65.7973 197.978 124.862
222.327 101.914 174.821
68.0617 198.364 138.766
93.9618 120.455 108.94
89.1139 121.369 148.04
180.136 75.6244 155.219
66.5762 198.259 133.686
241.306 114.15 173.051
202.727 82.0409 165.129
72.8111 174.188 155.832
264.924 97.633 157.769
97.4442 192.281 47.0746
268.56 108.431 160.336
75.7897 167.38 161.433
256 120.787 141.624
241.597 121.107 173.855
84.9602 133.679 116.221
256.66 98.1652 163.014
85.4706 134.464 109.355
131.227 103.123 196.869
257.411 105.25 165.964
179.632 90.2372 108.117
71.9602 205.718 78.8408
72.7403 166.845 147.604
203.376 121.092 188.625
162.729 101.861 198.29
133.206 203.421 89.0473
126.507 91.2112 100.172
156.609 70.3264 140.208
134.762 98.2521 193.156
157.295 91.5265 186.172
86.5418 158.997 171.586
164.878 92.8111 185.242
92.4818 260.442 114.725
103.109 230.225 165.824
131.675 80.1978 156.096
102.633 234.225 162.626
203.046 128.916 191.753
92.9088 260.812 109.884
105.576 228.818 168
120.381 105.903 101.338
265.508 82.1972 147.46
100.076 172.136 36.9942
128.956 78.4737 146.766
109.989 227.86 169.941
125.748 105.08 195.275
75.187 234.756 102.264
119.798 129.835 200.942
97.5991 129.486 64.3094
264.085 106.667 163.177
98.6757 108.688 133.197
265.377 113.343 165.699
247.865 136.584 172.203
81.8356 158.666 63.5242
70.2303 205.854 86.3591
74.7413 167.118 79.8846
123.494 217.25 97.6467
195.932 89.6832 172.722
186.824 85.5626 168.826
187.857 97.7264 180.1
179.741 72.6428 107.895
71.3396 229.144 109.118
75.4729 220.454 79.6929
69.5908 181.431 93.5229
68.27 183.036 132.308
69.0424 185.077 136.979
71.1586 182.987 148.07
107.066 137.3 190.337
112.947 167.556 54.409
74.5459 235.861 109.672
128.411 107.614 199.196
107.053 94.3708 142.608
128.012 128.894 207.051
179.905 106.129 194.108
133.376 129.175 210.091
74.457 228.664 94.3938
78.0139 230.534 85.5431
165.947 71.0632 125.742
187.302 70.2739 147.343
87.5684 167.023 40.4879
209.988 121.665 185.789
86.3218 136.725 163.312
203.136 113.705 185.277
77.102 148.325 106.477
118.458 128.671 86.9913
240.993 97.6158 168.664
86.9115 152.037 170.706
157.653 97.3518 193.572
103.527 124.026 65.4777
92.4827 118.165 123.564
178.963 152.218 208.06
82.2325 168.163 169.194
87.4242 252.432 125.134
93.3333 241.532 89.8598
264.582 121.171 145.987
217.803 68.7357 131.582
102.803 243.165 96.0815
81.423 244.25 101.903
171.792 100.918 191.915
109.528 188.478 56.3687
172.996 88.0359 173.741
218.676 106.105 126.205
88.8048 144.469 63.8302
233.389 99.0954 132.812
83.1676 233.24 82.5376
104.508 192.229 54.8815
86.6256 136.571 87.2492
69.7673 166.813 108.937
108.033 110.567 181.755
95.1264 121.602 94.4308
187.688 82.8801 102.559
82.5826 182.354 169.41
92.8499 126.374 85.9367
90.2608 130.241 86.9194
88.5616 129.087 109.532
73.5607 167.517 155.801
89.5212 128.95 102.266
94.7313 121.241 170.67
103.388 189.435 48.5568
77.9548 238.746 100.985
98.5682 189.093 183.33
142.151 94.2673 190.463
70.6121 213.059 140.722
68.6716 212.63 132.531
241.11 141.687 174.015
155.79 124.112 213.11
165.566 96.0426 188.433
210.567 106.315 178.934
110.825 204.749 79.4241
89.6185 136.672 170.435
111.449 190.545 63.6618
141.41 75.3612 155.967
126.064 145.394 83.8251
121.216 193.033 76.0893
95.3252 128.83 70.9756
167.375 110.839 204.67
113.23 200.208 76.7796
146.607 78.1571 120.422
211.71 112.274 181.279
77.8059 215.032 69.2485
214.447 117.004 182.492
126.584 98.7432 101.251
88.6934 151.846 49.3292
82.4919 144.585 87.1702
86.3298 253.125 109.205
75.7463 212.793 71.4887
94.9061 196.156 49.7314
227.8 98.8308 129.768
138.389 198.516 86.3822
78.6326 190.453 55.8201
241.074 136.713 173.882
111.45 92.2246 132.77
203.201 85.3971 168.628
190.5 119.732 196.615
123.845 87.8773 165.163
108.941 97.8696 117.115
194.944 78.4833 160.728
172.56 68.9829 132.57
134.914 115.005 206.626
184.902 143.398 205.723
96.5582 251.028 94.3968
195.395 76.5493 102.874
81.6327 190.082 48.3463
108.28 95.8886 133.096
103.013 119.988 70.5658
108.943 96.8082 124.471
93.8004 159.973 180.603
106.041 100.538 125.197
144.615 81.5791 115.04
219.485 74.8515 115.179
138.318 85.4204 105.677
127.894 151.555 206.673
134.05 151.125 209.825
107.138 186.887 190
157.532 154.516 212.493
74.2381 205.619 71.1268
212.576 72.1771 114.354
207.955 144.491 190.686
90.1632 137.812 71.6976
129.158 149.892 83.4088
134.351 105.113 108.889
207.78 94.4264 174.694
194.521 70.2965 147.576
132.369 97.4583 104.384
83.2952 209.52 59.755
233.293 105.94 173.096
235.115 112.566 174.065
256.853 113.852 169.118
115.904 160.311 58.92
240.82 106.343 171.305
86.2102 159.322 48.1308
227.359 104.552 174.286
66.0427 190.283 125.562
117.129 255.505 105.171
83.8628 139.316 95.4706
233.412 90.8039 131.22
117.005 243.027 105.064
235.739 118.242 131.943
95.0948 151.774 38.7288
90.4041 160.067 176.777
165.292 89.142 179.07
187.475 68.9046 124.993
120.761 85.8589 109.631
228.209 113.254 129.361
216.964 99.9784 175.466
179.307 92.1352 176.759
92.7986 156.759 37.5648
125.247 249.473 110.157
99.2044 109.205 126.294
134.004 159.849 207.834
171.97 91.2122 178.334
109.551 121.382 72.1281
106.301 251.836 98.9762
245.931 140.808 172.757
94.5851 243.709 148.032
114.238 135.051 69.7961
258.5 89.6534 158.469
134.531 92.475 185.634
133.419 220.377 103.185
70.4752 168.336 102.355
69.4223 208.08 91.8295
139.804 174.481 203.678
194.93 69.122 125.008
157.121 128.873 213.783
255.347 108.038 167.805
134.32 105.763 200.869
149.831 87.4374 181.736
116.365 106.94 95.1891
134.319 91.7496 103.876
80.3663 220.264 72.0689
113.994 113.764 84.9136
88.5072 236.288 85.8694
91.2813 124.271 109.975
149.603 85.2326 178.035
118.389 98.4882 97.5935
143.433 108.742 205.881
187.531 81.6753 164.141
87.85 198.498 48.1839
179.956 68.9741 124.602
156.762 114.847 210.001
112.565 136.377 63.6302
134.935 165.853 206.284
103.811 130.495 56.4778
126.1 243.595 110.448
116.527 88.5492 148.591
110.792 197.678 71.9133
126.528 110.524 112.409
97.4716 159.558 184.226
106.578 100.965 118.064
180.495 70.4951 146.326
244.223 79.7176 158.706
194.918 68.5077 140.81
77.6705 222.943 77.4685
92.9216 239.648 151.025
101.329 112.091 171.466
79.3908 190.259 164.661
195.291 88.5477 110.221
95.3238 189.82 180.009
116.168 129.97 80.1912
225.322 68.6401 140.288
82.4977 152.241 71.8652
130.628 162.889 75.0079
121.808 94.0856 176.228
82.731 189.966 168.419
149.093 108.43 206.155
198.003 92.0183 114.462
180.554 68.9152 140.759
149.38 144.141 214.09
180.084 68.3542 132.505
131.772 241.427 113.015
133.308 169.253 204.562
74.1633 159.907 146.858
142.084 166.977 207.349
126.161 235.92 108.776
71.7449 167.553 132.501
150.191 123.443 213.263
106.787 101.675 110.066
172.96 71.0905 118.116
224.911 107.087 175.512
69.6622 189.536 142.156
92.2672 117.722 128.907
133.92 175.158 202.355
157.521 120.818 212.102
81.6127 183.087 48.7762
237.936 141.683 174.84
87.1228 245.569 93.5804
120.477 121.721 199.552
70.2316 182.594 140.08
72.1208 228.22 102.075
106.277 109.12 176.775
173.078 77.3897 103.579
195.413 68.413 132.531
225.966 68.5609 131.939
80.7389 151.796 79.3386
136.746 79.0126 161.5
73.4707 160.091 133.005
195.913 99.4548 179.295
217.612 113.375 179.613
91.0871 153.295 41.9892
81.0951 144.576 94.2084
224.189 98.3269 127.787
110.553 227.715 96.7984
123.726 95.2985 181.352
112.356 92.3653 125.249
270.761 119.668 163.316
189.917 86.6884 106.392
213.334 93.5346 121.814
119.068 189.955 192.294
104.74 107.309 170.367
104.734 113.242 79.1302
111.728 91.7188 147.885
114.041 143.675 62.4486
84.7357 133.689 149.803
164.57 121.585 210.707
104.337 133.601 53.1493
172.741 69.4145 139.874
115.502 162.839 197.19
73.373 213.224 78.9302
86.2301 252.876 117.666
108.727 144.408 49.9362
169.762 93.6478 183.812
125.316 96.7693 185.697
133.927 81.4841 163.686
76.0491 153.248 146.935
134.197 120.953 208.651
115.815 94.8827 165.942
90.4008 223.195 77.1863
256.93 83.0104 155.991
102.362 105.411 125.093
108.126 139.133 51.2926
172.231 90.6251 108.849
91.3009 146.392 50.1079
110.089 113.528 79.647
102.776 257.073 97.6149
141.79 159.959 209.878
180.509 88.7555 173.105
127.449 144.769 207.061
109.78 136.56 56.3786
102.684 106.222 117.593
105.1 115.997 74.0486
80.0911 159.569 163.535
127.998 208.299 91.6158
115.631 87.6991 140.351
108.388 195.089 66.0909
241.022 129.133 173.896
93.4257 210.198 66.0253
261.862 98.9325 160.515
257.519 125.708 142.453
82.5532 197.836 49.8517
89.1603 241.63 89.4335
111.96 236.048 100.702
210.474 90.6035 172.174
140.401 72.7901 141.06
116.145 187.57 66.4996
127.158 190.479 77.4572
233.527 128.725 176.022
195.437 85.5472 168.649
164.355 143.747 213.362
179.978 70.1457 117.219
107.357 101.98 104.604
149.07 154.136 212.41
195.939 129.238 195.56
81.9671 173.961 169.157
271.537 106.222 155.13
103.115 126.811 62.1652
264.566 90.6423 155.346
75.6608 159.766 155.607
86.7324 190.911 172.252
67.1279 204.532 132.895
93.2193 231.6 158.713
98.1741 114.948 169.754
105.389 99.7518 132.889
70.4099 174.724 133.138
203.214 105.185 180.439
195.232 82.1868 103.639
207.275 131.667 190.261
83.2133 249.356 109.643
141.415 97.7435 194.456
202.518 143.318 194.051
249.157 129.683 171.802
248.341 71.4459 145.369
79.0084 151.719 156.134
210.82 98.9867 176.196
139.061 79.8822 165.761
196.357 112.09 188.48
116.333 194.885 74.1589
241.715 69.589 140.357
68.3233 213.878 102.408
187.819 89.3813 172.696
121.292 143.02 78.2989
79.9383 227.723 79.8857
101.86 98.1131 148.652
88.7842 121.599 155.723
115.583 115.156 88.0076
94.4443 121.374 102.398
112.557 182.796 55.6348
140.883 121.073 211
149.33 78.8298 168.047
238.764 75.0109 127.284
115.648 129.296 197.163
141.96 81.707 170.997
119.013 198.257 78.9779
71.7121 175.084 147.881
100.093 155.352 37.0241
164.793 137.424 213.536
83.9143 188.731 43.7116
114.821 142.696 197.669
76.301 153.853 95.4523
166.439 77.2514 109.756
116.455 251.605 104.991
235.633 84.4694 130.131
76.729 194.52 159.961
97.8585 138.376 48.9326
233.259 68.7924 140.174
249.06 90.7786 139.916
134.546 174.775 77.8684
96.136 175.017 35.0525
69.4268 223.773 109.281
68.777 219.391 103.887
73.2882 221.204 87.7128
86.1126 135.507 94.3677
108.982 191.582 189.442
170.511 72.5287 115.369
202.971 89.7324 172.493
171.811 69.9848 124.62
248.851 77.0161 154.331
111.653 100.613 170.791
216.809 76.2659 112.398
131.197 167.752 74.4911
211.068 78.1472 161.311
116.767 121.443 196.146
157.782 87.7703 180.531
108.454 131.56 57.9353
143.474 171.683 205.574
128.893 122.628 206.306
149.212 76.3571 163.33
242.686 75.5849 131.008
141.528 151.959 211.98
120.228 106.324 191.876
75.731 160.31 85.9426
233.634 75.6172 123.684
179.989 81.5774 164.324
68.3427 190.658 138.511
70.7392 189.627 147.477
71.0513 197.669 79.4034
95.9491 136.465 56.26
234.34 68.6712 132.855
113.93 115.518 191.026
104.223 197.277 184.59
150.286 71.1638 147.194
69.0367 210.144 137.425
69.6732 215.571 134.197
78.6092 168.409 63.8272
141.283 87.9102 181.099
87.057 214.287 164.877
119.481 214.124 93.235
184.094 131.585 205.328
98.7261 263.025 103.066
103.45 189.941 186.794
99.2288 194.443 181.876
115.255 124.415 82.5516
77.2283 156.989 84.4639
68.9842 170.042 122.625
111.108 160.498 194.23
75.667 227.334 87.5936
96.933 243.96 92.3473
71.2016 213.195 87.2024
240.943 70.23 131.891
249.235 107.101 169.421
164.572 74.4149 117.914
120.223 251.127 107.176
96.2344 159.273 35.5924
210.698 68.6594 132.582
88.2445 190.122 41.4698
103.894 106.05 109.32
217.978 98.3731 125.094
91.4338 201.353 52.7145
122.983 95.3442 98.249
86.7181 151.912 56.1279
85.1338 166.636 46.2607
172.608 72.5585 150
89.8596 129.289 95.1706
99.8279 194.199 52.3011
240.114 106.461 135.265
115.687 144.582 65.7497
226.284 83.6921 123.8
66.5505 205.64 125.236
225.306 114 177.163
120.043 84.4756 125.221
255.93 128.466 169.93
91.1139 208.509 61.1547
211.596 152.002 188.079
109.029 109.631 82.5579
88.6802 228.2 80.1661
203.998 91.0907 115.888
180.121 85.004 169.005
73.6328 190.218 156.374
134.105 145.296 210.461
88.4941 250.259 132.845
78.7807 167.263 165.48
103.164 236.228 94.7862
249.916 120.834 138.274
155.99 165.324 209.506
72.6739 182.399 155.599
141.825 83.189 110.229
124.025 152.158 204.216
156.946 150.339 213.314
212.43 95.2272 174.397
88.1148 194.491 44.4768
119.745 90.4838 162.941
143.149 136.897 213.431
100.372 111.212 109.114
94.8298 235.902 88.891
79.1079 213.623 155.964
99.2577 116.862 86.7521
221.084 151.931 181.902
118.216 143.841 71.354
223.653 80.933 120.11
175.179 95.3291 181.629
85.7585 135.066 101.431
101.455 140.371 44.5952
111.612 189.381 190.763
85.9729 181.573 173.361
179.847 82.8364 102.341
171.969 74.4224 108.643
149.562 159.136 211.129
202.301 93.7575 175.198
79.424 220.194 153.115
108.471 202.175 74.6279
209.595 115.381 183.457
194.323 159.534 198.96
248.897 121.15 172.247
77.9788 221.751 150.424
79.1599 236.663 93.7501
116.199 137.76 72.2547
81.4162 235.286 86.7998
240.824 114.092 134.336
67.8832 212.946 124.505
149.23 71.4288 134.185
73.7585 213.674 148.057
157.649 71.3874 134.707
68.488 220.405 109.246
100.758 127.618 181.409
70.2149 222.357 101.379
103.803 114.191 178.275
67.9408 182.402 102.491
75.9328 182.854 64.9457
188.514 104.688 187.481
102.913 183.059 188.407
69.4419 216.832 98.9809
241.164 71.0041 146.483
67.5141 213.313 109.638
239.012 71.1072 128.089
70.0854 213.903 93.2067
141.189 73.3978 148.292
118.373 190.444 71.9478
233.474 106.376 133.069
82.5889 174.62 49.3053
118.058 235.545 104.32
96.9459 183.394 38.5735
172.959 151.78 210.359
77.793 174.112 62.6846
69.8735 222.542 118.136
71.7748 182.824 79.6144
67.7818 205.57 102.303
168.089 81.5829 105.614
217.191 151.926 184.287
94.7444 112.216 139.928
69.758 190.344 86.3826
223.83 105.596 128.126
71.4422 197.524 148.315
232.839 70.1039 125.835
111.851 129.619 193.628
130.417 179.431 75.3112
121.616 115.586 198.39
70.8493 220.559 132.496
68.7635 218.898 117.137
253.4 86.4069 159.661
101.607 105.091 132.253
183.214 158.768 204.907
89.4273 121.695 132.605
225.35 143.97 180.135
133.142 95.3137 189.206
92.7536 141.673 55.0618
121.498 94.2265 98.131
223.821 150.472 180.517
188.075 93.1719 176.136
93.5004 182.231 180.913
85.8806 167.502 173.075
233.838 137.245 176.058
237.621 79.8225 128.743
225.741 129.479 179.314
106.834 94.3625 146.837
123.93 128.516 204.076
75.0032 235.498 117.164
157.288 159.376 211.304
233.62 113.764 131.868
89.6478 181.849 177.15
195.024 121.737 193.95
155.37 94.4865 190.084
234.354 72.1649 151.219
72.5428 159.726 125.033
112.81 121.548 192.271
75.0684 220.052 146.918
256.666 121.189 170.138
68.9966 218.059 123.568
75.7342 190.836 64.217
67.3521 190.129 102.413
227.869 106.096 130.027
108.662 217.826 89.5558
151.483 81.0123 125.201
82.2423 152.235 162.534
101.371 195.466 56.628
232.272 81.986 126.179
110.343 143.978 193.887
96.8449 154.745 36.6579
100.396 167.219 36.6238
119.679 222.334 99.6611
90.5446 166.811 35.6313
76.0262 189.666 160.563
207.105 163.787 189.218
243.268 91.1578 137.371
79.9042 197.215 162.851
93.9438 249.564 141.03
126.323 83.431 155.084
86.4142 194.943 170.957
112.277 100.641 95.9672
118.338 136.637 200.36
78.5762 183.176 164.989
72.9705 174.609 79.9157
84.7578 217.011 67.23
126.263 212.898 94.9418
78.2151 174.837 165.633
131.089 174.42 74.5138
113.619 192.705 69.4514
126.078 182.107 72.5935
129.361 183.927 75.9126
156.111 72.0111 151.414
118.475 113.738 194.563
133.698 182.055 77.7619
172.455 84.535 169.896
241.091 82.7451 133.364
210.28 75.719 109.102
98.7983 131.948 57.8273
76.307 161.504 80.7752
249.823 73.4176 148.895
110.106 98.0222 162.89
126.541 92.0136 178.749
149.153 128.583 213.913
201.142 108.71 183.559
83.9102 183.434 43.2454
196.075 85.6023 107.307
210.222 129.464 187.952
72.4078 167.158 140.9
150.095 119.562 212.169
141.506 114.242 208.4
71.3278 174.683 139.917
149.297 113.879 209.597
139.335 145.102 212.399
134.022 190.814 79.9432
74.9455 174.32 71.542
149.426 150.271 213.266
133.238 228.293 108.271
233.39 98.2049 170.942
193.733 114.46 191.482
200.276 71.7157 112.797
157.099 104.72 202.452
149.715 137.169 214.352
118.872 255.433 106.17
69.2747 187.23 91.289
66.8614 190.805 132.825
110.222 151.707 193.923
186.854 121.795 200.568
131.595 188.03 195.134
126.378 81.7491 108.933
241.342 119.139 134.122
143.254 129.714 213.199
83.6865 195.157 168.051
239.82 90.667 135.022
218.176 136.86 183.949
159.967 77.0868 120.486
77.8763 158.594 78.5991
239.246 99.2237 135.555
113.195 92.4415 117.201
249.152 83.4046 138.467
132.205 160.083 78.7979
120.448 92.7125 170.189
139.343 136.496 212.476
256.514 83.3088 141.433
116.406 121.61 87.1466
228.705 92.6302 129.345
219.481 111.252 126.577
242.57 98.9541 137.083
79.4989 159.046 71.5933
225.403 90.2846 126.823
218.48 90.5482 123.197
126.256 167.431 202.701
156.586 71.0072 148.007
133.922 207.183 92.6465
164.271 99.0755 193.635
111.553 144.445 56.0711
127.664 137.244 207.426
202.736 74.3402 155.992
143.261 144.254 213.388
118.95 98.0668 179.127
76.0753 169.24 71.5033
114.028 101.127 176.495
98.4514 115.513 102.755
117.464 96.253 172.261
110.59 105.726 178.874
141.705 98.1353 110.283
172.56 121.152 208.261
96.5965 229.799 162.494
95.4574 113.477 163.379
115.209 110.575 189.88
158.127 77.0186 126.233
112.313 107.808 184.508
93.3795 111.87 156.192
156.52 73.9606 131.584
270.408 99.4579 153.951
96.5122 199.02 55.4303
212.972 103.824 123.872
109.241 98.3276 109.183
247.55 84.0955 160.65
113.567 92.7559 109.436
98.3146 237.134 91.5979
149.478 167.266 208.333
202.65 98.5373 177.314
101.12 111.888 101.966
110.365 257.003 101.229
111.023 251.253 101.849
125.6 226.47 104.562
104.624 258.925 98.9308
73.7883 228.438 132.53
115.142 134.189 197.483
110.939 243.874 101.458
111.249 98.2014 101.232
149.334 81.4041 171.796
102.13 167.329 188.499
119.495 99.1075 98.7447
207.6 136.722 190.449
203.208 136.609 192.828
103.69 152.26 41.1609
211.468 136.173 188.063
256.339 75.4669 147.182
164.218 75.197 156.384
255.571 75.5247 140.73
117.079 202.788 82.0245
262.005 78.681 147.418
103.908 159.114 40.5811
164.924 114.465 207.612
102.715 144.19 42.956
232.81 143.297 176.706
100.455 159.719 36.7427
195.526 81.5559 164.36
119.588 166.619 199.259
86.089 128.524 125.298
79.933 144.151 148.156
87.3404 128.674 117.059
156.625 101.222 199.223
268.091 86.8319 151.894
114.064 195.387 190.158
218.225 83.2599 118.034
84.2801 132.354 125.498
116.933 174.811 58.5306
82.9215 137.226 117.506
98.479 122.745 72.3968
89.9199 121.7 124.834
85.9813 127.669 132.724
99.4681 138.378 182.47
217.973 69.4132 125.717
217.803 85.8644 168.207
83.9661 131.637 132.621
120.085 174.81 62.0685
101.92 120.938 179.936
82.2559 136.935 124.895
81.6175 136.714 132.69
105.123 121.827 184.086
68.5885 190.16 94.328
73.2276 190.514 71.7384
95.5407 113.873 125.81
90.1573 174.997 35.7467
121.445 237.061 106.661
91.2459 161.987 36.2555
97.4099 256.643 97.1524
96.0684 166.569 34.1908
95.9531 259.765 101.759
76.7285 210.025 67.1838
87.5421 251.799 101.672
98.6137 121.893 176.127
217.89 71.1098 118.769
270.003 128.022 149.434
86.4973 174.987 40.5295
93.0461 111.601 147.511
268.619 86.0925 148.409
201.75 88.0287 112.39
84.758 150.045 166.431
119.386 144.813 201.326
109.758 129.26 63.8952
102.745 251.554 96.8003
108.1 124.519 66.4284
113.182 159.908 55.1526
109.183 166.384 49.8314
109.59 159.928 49.3665
187.529 68.2423 132.743
109.241 152.543 49.1973
187.74 68.3124 140.783
112.605 151.606 56.047
128.172 229.903 107.354
86.0683 233.196 82.5212
266.455 91.1019 144.441
271.263 106.146 148.354
134.509 136.406 210.839
253.346 133.532 170.343
94.4316 142.71 48.4184
150.08 73.0013 130.998
118.822 91.6381 100.972
127.186 84.0061 103.385
172.087 159.082 209.271
90.6883 152.3 176.179
114.248 93.3106 103.968
184.233 87.2593 105.898
95.1247 107.114 147.673
123.54 145.8 204.491
105.841 107.3 94.5949
96.8063 145.298 42.0193
149.204 76.5279 125.418
116.804 89.2712 109.497
255.83 113.572 141.304
99.5802 109.869 119.681
263.823 113.822 145.851
106.201 223.124 91.2699
265.777 128.613 147.099
270.857 121.618 149.255
91.1874 115.114 149.033
120.934 151.056 70.4372
225.298 82.3608 164.932
91.7072 116.825 141.467
102.796 206.644 179.476
90.8082 115.624 154.568
141.934 74.0258 124.699
106.202 108.924 87.427
186.837 88.9835 107.986
261.997 114.987 167.621
97.843 107.104 140.635
76.543 232.802 137.962
216.019 121.671 183.084
233.323 91.0458 168.476
96.3005 121.035 86.83
110.246 113.451 186.054
108.707 103.94 172.015
269.012 91.0607 152.8
270.428 90.9422 147.502
98.9023 100.777 148.289
88.1446 211.83 63.3459
128.836 158.699 205.975
96.8583 129.854 177.611
125.414 120.97 203.271
93.2853 128.583 172.71
110.652 182.061 191.852
225.837 136.754 179.668
70.1723 221.467 125.346
68.8874 184.048 95.7303
73.9466 182.426 71.1752
104.026 129.431 185.466
75.6616 182.286 161.444
103.58 167.404 40.6972
127.829 174.789 70.9803
82.1999 242.859 132.958
246.67 75.0025 134.518
78.2859 237.489 132.965
80.6558 243.672 124.777
250.741 75.5662 137.188
125.955 88.9131 171.477
109.174 95.9893 156.45
77.6146 238.473 126.013
142.139 104.96 202.606
79.4791 243.433 117.781
93.2924 167.151 181.122
93.7101 127.362 78.8024
75.602 234.726 125.116
76.1157 233.809 132.336
163.889 70.1203 140.323
127.819 167.259 70.5087
83.3863 249.313 117.072
164.242 70.3415 132.562
172.231 136.883 211.765
95.3306 113.06 132.808
166.483 83.5382 107.658
220.907 128.505 181.615
172.994 129.006 210.271
168.76 139.146 212.84
96.9483 106.309 155.412
180.643 136.476 207.985
172.313 144.577 211.461
99.2018 101.742 152.911
134.877 241.048 114.155
179.901 144.576 208.429
167.8 145.454 212.677
180.298 128.991 207.166
200.82 122.725 190.721
172.834 97.3649 186.117
103.513 136.781 49.1529
98.1673 152.447 183.789
110.464 197.621 188.128
220.324 86.0972 122.018
106.214 143.385 46.3208
210.739 81.551 164.69
100.846 103.4 157.8
101.723 112.64 93.7507
103.447 99.3984 155.012
98.3004 108.449 161.59
178.868 157.963 207.055
210.416 89.9065 118.407
102.297 105.741 163.471
103.09 112.439 86.0396
112.628 93.1472 154.71
75.0387 151.712 109.686
217.902 144.248 184.334
211.726 144.358 188.211
132.846 79.3933 105.516
215.33 157.431 184.697
203.537 153.286 193.728
112.296 221.223 94.5006
110.469 92.1045 140.723
126.797 100.63 192.318
136.961 101.992 198.197
89.6787 175.044 177.952
96.6367 175.243 184.856
93.0199 175.302 181.444
165.738 80.2237 165.719
117.687 219.338 96.5636
89.953 167.478 177.625
126.32 107.699 108.686
96.9606 168.268 184.861
71.9321 167.95 94.708
215.624 88.1445 120.483
211.528 98.8701 122.481
157.46 143.802 214.064
207.858 152.27 190.788
211.672 85.7032 115.655
224.493 71.3073 119.73
78.1938 150.523 93.528
116.879 167.613 58.3382
80.4513 143.645 102.322
75.3815 152.901 102.291
119.982 128.389 90.8834
226.484 69.3385 125.489
79.0228 151.81 86.8757
247.097 100.17 167.612
109.057 120.604 187.907
72.7342 159.726 102.68
230.121 74.1512 120.74
74.3982 159.755 94.2419
165.964 128.061 212.081
110.853 213.242 87.4569
163.922 130.792 213.141
113.47 215.907 91.4644
107.889 210.195 82.4563
124.133 167.111 66.2437
83.9274 248.58 123.667
117.529 210.623 89.4661
126.999 160.442 71.8885
119.457 206.174 86.5559
77.3799 231.418 142.682
105.561 214.854 84.6945
217.957 90.7266 171.224
102.984 220.156 86.7614
117.661 104.396 187.347
143.915 148.954 213.059
126.629 221.15 101.656
126.503 85.5753 162.966
77.6605 149.941 148.639
106.102 199.86 69.3893
132.586 195.257 82.2239
73.6232 167.296 85.6773
80.6821 204.396 56.8665
90.4011 189.051 176.027
119.011 228.447 102.346
89.0566 249.482 95.7987
273.94 120.551 155.345
273.171 125.86 152.048
216.748 129.598 184.049
106.205 159.928 190.711
106.022 167.591 190.73
86.4561 129.065 147.898
116.217 168.217 196.788
135.9 99.2671 107.34
81.2002 212.625 64.2394
263.271 84.4385 153.509
187.826 75.1558 155.262
85.6642 175.09 173.481
187.407 72.2653 150.864
126.361 113.717 201.326
195.439 74.7096 155.79
76.9131 148.626 126.835
203.313 84.1405 108.886
225.898 90.5794 169.81
65.7002 198.225 117.543
225.873 98.65 172.861
218.56 96.851 173.921
75.4549 151.985 125.22
234.546 83.7387 164.551
225.461 75.5269 117.958
78.1635 205.558 157.528
75.6183 205.108 154.059
67.6175 213.323 117.523
76.1681 212.138 152.827
210.85 159.606 187.321
80.9868 204.61 161.324
191.777 109.786 190.01
81.7432 211.868 159.918
88.2486 144.425 170.851
91.2905 146.105 175.379
85.3312 143.63 165.173
96.8034 137.256 179.222
124.302 194.696 191.739
183.417 126.576 204.875
95.701 144.52 179.546
83.7523 145.673 162.052
262.515 126.297 168.235
165.179 153.147 212.096
128.368 86.3076 168.987
147.284 83.5758 117.728
103.702 197.978 63.8147
102.51 205.512 71.7631
95.858 247.874 144.561
225.605 86.1659 167.621
105.374 207.846 77.6006
261.474 96.6643 143.943
119.968 85.6227 117.61
224.745 114.118 128.183
227.404 117.729 128.773
98.8354 116.327 94.762
77.5362 165.856 69.7614
149.978 70.5306 140.063
231.867 115.016 175.401
90.8715 213.781 168.264
141.026 91.1588 186.018
232.934 122.104 176.053
69.7275 173.57 100.502
111.96 136.645 194.857
249.153 113.349 171.324
120.521 243.814 107.238
68.7702 176.075 103.362
70.4047 174.902 94.862
233.19 78.4806 160.56
249.539 97.7783 165.852
71.6695 159.678 109.773
71.8178 174.899 85.9313
120.159 100.374 185.051
129.235 216.384 98.9254
70.596 182.363 86.3147
106.717 244.765 98.9349
111.183 167.665 193.643
66.3255 205.447 117.667
132.857 181.009 199.174
121.627 110.269 109.136
90.3101 122.719 118.581
97.3446 121.48 78.7556
111.082 104.083 93.3323
92.8993 133.943 69.5214
88.4481 136.688 79.3502
78.7027 144.238 139.844
91.1915 130.972 80.3614
110.767 107.35 87.1394
94.0063 135.692 63.2457
218.793 68.8335 140.497
164.525 158.929 210.938
187.978 158.861 202.437
79.7741 143.81 109.532
83.4367 138.863 102.016
111.153 175.13 192.82
83.1348 138.307 109.93
104.176 98.6007 140.448
71.7321 220.94 94.2152
106.548 115.908 183.18
68.7807 205.049 94.1854
75.4996 174.833 161.887
87.623 219.912 71.8663
133.65 167.741 77.4697
106.704 167.583 46.126
79.6909 244.174 109.396
124.047 174.391 66.4646
144.824 71.6668 134.462
120.921 184.492 69.2137
137.444 93.4345 106.348
162.8 72.8777 124.806
90.1211 181.976 36.1998
172.593 82.5641 103.835
