ply
format ascii 1.0
comment Created by Open3D
element vertex 1374
property double x
property double y
property double z
end_header
110.898 204.121 78.9286
202.018 155.418 194.7
119.136 179.01 62.6356
225.519 72.2985 153.27
85.9995 129.832 146.115
216.299 72.3324 153.099
94.1634 237.885 153.84
77.7713 146.61 118.291
135.225 80.0718 162.213
77.8004 146.449 137.69
111.777 203.32 186.238
115.699 204.914 186.683
102.307 212.417 79.2643
259.561 80.5721 153.178
102.194 104.957 162.009
95.0912 205.207 61.7061
243.32 104.903 136.776
69.7358 172.156 128.31
94.6807 130.103 70.6872
111.322 160.576 194.384
85.9369 138.084 86.6296
127.153 96.8194 187.75
77.6184 237.671 128.897
110.652 96.4218 108.898
102.382 105.032 127.411
244.223 104.851 170.076
69.7858 180.861 136.211
102.35 188.437 186.679
77.5376 153.816 154.658
186.552 112.624 195.716
103.741 211.402 177.495
173.403 73.375 151.512
126.432 110.526 112.488
102.335 145.157 186.719
206.489 79.4866 162.505
77.7436 146.594 126.093
201.45 140.873 194.35
86.5942 139.559 80.7426
126.932 79.895 146.357
128.294 80.9969 151.886
219.391 112.27 178.48
137.413 123.733 210.77
102.958 197.007 61.478
118.749 88.5743 154.279
77.6806 205.152 61.9455
85.8833 136.826 162.103
203.699 72.1424 111.908
208.534 72.3801 112.539
159.056 80.7973 169.278
85.5054 237.897 86.7263
126.094 148.121 80.8464
143.06 155.305 211.547
85.3945 160.771 170.78
135.414 169.458 79.0982
137.036 231.16 111.008
93.5819 213.61 170.144
135.312 220.925 104.128
69.6798 188.735 87.5595
69.504 193.472 86.6049
127.831 248.008 111.721
153.951 105.066 203.344
144.131 87.4175 111.636
128.2 170.803 202.67
127.018 177.823 71.2532
144.852 97.2495 194.508
127.908 172.228 70.349
103.48 97.5972 151.237
119.751 173.651 61.2735
77.9199 146.941 106.806
93.7095 128.507 76.2969
226.398 115.416 128.619
95.0487 139.998 177.703
95.2131 133.795 176.734
78.5871 147.94 98.042
209.046 95.7616 120.619
78.2565 236.955 134.778
77.2984 238.609 123.234
201.225 88.3046 112.45
227.358 71.781 119.8
169.761 96.5343 187.071
93.7305 145.737 44.7338
77.3398 238.587 102.412
77.4566 230.23 86.2867
85.5632 137.2 91.3425
95.5001 246.548 145.669
85.3772 191.754 170.685
227.516 134.155 178.66
109.77 118.138 187.695
77.4959 162.667 162.152
268.966 131.542 149.357
120.224 198.259 190.258
196.629 71.9975 110.988
70.0303 201.049 143.753
257.478 92.3138 160.126
222.506 79.486 162.655
80.7292 167.605 57.8444
189.682 70.4626 115.448
181.238 73.1897 105.941
132.515 158.527 80.3454
230.188 70.6518 148.526
147.906 82.9171 174.161
161.789 163.782 210.061
156.685 161.522 210.726
92.6564 119.53 117.556
76.5955 231.53 140.243
79.8743 235.294 141.922
197.84 77.8812 102.597
190.375 80.0086 162.14
93.7835 137.553 60.437
70.4442 209.629 142.373
85.276 153.32 59.0546
144.368 98.9634 111.729
214.568 83.966 166.813
172.996 77.2035 158.208
165.138 117.672 209.129
128.315 110.335 112.692
91.0564 232.411 156.297
82.7673 232.564 148.728
268.487 91.5005 144.96
115.412 133.546 74.503
231.177 72.5805 152.724
230.72 75.8187 157.775
261.052 79.4274 144.177
171.901 104.073 196.264
126.595 79.6333 125.81
87.7916 125.605 149.533
148.319 72.6236 151.93
130.518 107.252 109.499
128.21 154.036 77.8409
139.6 100.571 109.631
116.798 174.581 195.896
214.184 75.1288 157.702
214.202 79.3728 162.681
88.1386 235.809 150.574
139.909 76.4123 157.701
131.82 76.3737 133.049
138.669 73.4581 141.59
159.707 105.637 202.678
71.9613 217.215 141.364
90.6253 240.45 147.938
88.7488 243.697 142.265
195.973 134.592 196.748
196.219 81.2279 103.002
79.3471 175.303 57.7912
197.113 142.069 197.469
89.7829 255.827 123.104
115.681 175.76 57.4153
93.7835 120.867 108.439
258.185 116.744 169.298
139.45 74.262 149.449
82.0813 175.088 50.4373
221.559 118.468 179.641
87.9502 125.574 157.533
88.6476 215.101 67.3178
132.097 76.738 124.352
132.866 77.3275 116.664
111.427 128.5 68.6926
119.941 168.327 61.4091
73.8486 159.604 142.254
114.447 233.27 101.462
137.862 81.4362 167.953
129.886 81.9201 157.618
69.1769 169.394 109.094
205.817 70.9049 148.857
172.919 91.3989 109.266
222.51 70.4373 148.902
214.9 70.7031 148.707
122.845 86.3205 156.955
119.775 89.3739 159.87
120.522 131.782 88.62
239.238 92.6958 167.441
68.9664 207.893 138.608
241.094 98.6337 168.989
111.514 133.889 194.162
139.3 73.3622 132.586
140.039 74.2756 124.163
97.3499 234.404 159.273
85.2483 135.588 157.075
84.1676 134.426 148.77
79.7322 141.586 140.873
80.859 142.424 149.29
94.8932 230.409 86.4491
198.687 74.1084 106.524
164.367 72.8608 152.118
134.456 94.2678 104.563
163.475 71.0924 147.823
166.07 81.6582 167.932
172.153 79.7655 162.866
156.203 77.8594 165.274
164.291 79.1076 164.209
84.3615 184.328 42.4876
122.689 142.424 81.4584
90.6486 257.837 108.05
93.3451 151.578 179.034
93.0124 159.381 179.656
83.058 142.674 157.437
107.012 208.298 180.904
82.5419 134.547 141.289
112.616 207.598 183.887
115.795 199.612 189.006
144.329 92.6343 111.656
183.193 116.621 200.991
171.795 112.026 204.181
92.6343 159.923 36.2225
140.375 149.718 212.157
137.072 151.737 210.836
155.381 165.412 209.441
113.913 117.338 83.2053
67.6073 175.374 116.103
102.776 238.986 95.326
123.891 166.855 66.0818
116.895 150.671 64.5337
161.514 121.06 211.409
118.048 141.217 73.4019
134.371 236.446 112.573
128.923 98.4131 102.476
166.264 106.592 201.332
106.423 214.644 176.691
164.958 111.012 205.434
164.066 102.141 197.735
80.2486 150.61 157.836
84.2808 168.092 171.373
252.839 132.779 170.526
88.9908 158.978 174.822
189.14 71.6767 109.957
137.09 236.189 113.34
132.198 203.049 88.4244
148.22 80.2647 170.157
80.1298 225.804 151.081
126.27 204.171 87.5645
110.987 153.039 194.598
149.25 71.4807 148.008
124.833 195.417 79.6585
131.09 198.973 84.672
94.783 138.769 54.5179
264.228 92.4893 144.077
248.14 70.7343 140.515
206.149 163.68 190.067
270.624 92.2877 148.04
111.638 175.218 53.0931
201.96 149.983 194.98
239.712 73.0909 151.609
254.472 79.25 154.418
119.44 162.983 62.2377
94.1116 121.658 103.599
240.596 81.3347 161.04
255.74 92.8702 142.541
86.9529 156.97 48.1607
131.889 101.716 106.154
99.7804 217.819 81.9376
100.77 111.029 107.563
96.5057 117.132 107.515
100.311 109.474 116.895
174.769 97.7307 185.085
222.473 109.045 176.666
224.991 115.748 177.682
98.4601 214.295 172.681
99.2644 210.105 175.345
94.6607 216.005 169.809
166.657 123.839 210.805
132.968 192.9 80.7778
201.438 160.295 194.499
100.946 176.361 39.3748
105.207 158.687 42.2486
108.303 175.872 49.2548
101.883 168.123 38.334
104.686 167.199 42.3494
266.519 130.896 147.827
97.1503 159.045 183.833
101.825 151.216 186.893
101.195 160.269 187.261
126.141 79.4363 141.341
270.309 122.258 164.093
126.38 79.462 132.919
117.686 87.567 148.104
122.807 84.1013 149.208
121.512 82.6543 132.663
121.703 82.875 141.37
163.865 126.156 212.114
156.818 135.475 214.433
103.836 106.68 167.55
86.9313 253.28 106.628
111.705 119.592 77.5524
131.862 81.4037 104.424
132.216 79.3026 107.44
138.852 78.9764 110.065
90.0959 125.508 166.06
91.9462 119.177 164.443
107.53 101.753 165.52
116.618 93.9716 165.295
114.664 92.4739 157.096
109.961 227.516 96.3322
114.878 224.938 98.3152
110.471 123.189 71.8772
181.435 77.263 101.116
189.4 82.3274 102.241
271.374 100.631 148.755
133.715 78.8817 155.958
117.424 86.8577 124.942
123.442 84.3987 107.135
122.709 83.5927 116.358
136.853 220.419 104.164
136.323 218.682 102.756
132.496 211.787 96.2336
130.852 208.175 92.4858
270.065 117.788 163.61
156.841 115.676 210.475
79.5759 201.603 56.5885
77.318 200.333 60.7285
78.7514 183.787 56.5876
77.1364 192.035 60.1691
78.6482 192.548 55.8
100.464 226.153 88.5633
97.2991 224.147 84.6111
89.817 207.582 59.1673
90.7398 210.828 64.0656
92.2869 203.221 55.9553
271.802 109.73 149.457
118.569 180.491 194.957
93.9534 189.527 178.771
189.965 109.061 190.517
76.2846 151.123 141.374
189.926 101.079 182.823
123.298 191.992 192.339
123.255 182.335 195.965
121.111 185.658 193.935
113.167 176.504 193.481
264.624 108.928 146.089
101.413 183.284 187.404
122.527 101.172 100.073
106.885 176.148 190.848
83.6612 249.517 107.472
79.5803 243.587 107.205
87.5632 149.463 57.6953
91.5063 142.377 58.1746
87.8073 141.177 73.7086
89.2684 142.258 66.6805
123.612 107.973 107.266
111.275 139.928 194.533
148.011 77.6491 165.663
123.263 201.019 83.5577
244.812 110.761 136.108
226.419 95.7227 128.678
108.805 110.32 182.159
76.907 239.283 116.045
167.823 89.0923 177.524
130.873 126.07 208.285
139.902 84.0726 174.157
76.4741 159.239 157.441
124.168 133.245 204.864
131.046 107.946 200.991
231.444 85.1786 166.048
227.84 89.9539 127.989
131.726 133.5 209.599
205.904 83.6765 166.849
221.515 108.958 127.291
214.92 69.6078 124.748
93.9475 228.299 161.961
148.067 89.7044 185.066
249.417 122.774 138.302
143.461 82.5338 112.688
123.068 167.61 201.071
252.462 71.7966 141.271
73.8706 224.93 90.886
125.468 158.166 204.229
75.0028 232.822 99.3991
65.863 191.996 124.775
84.7149 160.336 51.4815
97.6727 206.983 67.4605
172.942 100.114 190.087
92.5254 151.702 41.0818
121.382 159.016 201.701
66.6869 192.4 133.017
98.8668 183.776 40.2223
104.323 175.373 43.7099
132.359 183.258 77.2142
68.4198 192.282 139.312
75.0432 191.976 158.232
91.3943 126.417 99.5736
143.712 105.041 203.064
270.048 101.622 155.153
77.1172 214.109 69.4717
71.2881 175.508 140.802
71.6602 159.242 115.757
248.187 82.7272 159.587
267.22 106.438 160.587
139.182 90.3038 184.229
111.501 136.192 60.6858
164.15 95.3695 188.189
97.6835 150.633 183.014
186.346 133.416 203.849
165.48 92.0672 183.978
97.0802 189.947 43.9793
108.297 233.886 97.6366
213.745 158.761 185.467
85.4834 129.067 140.784
192.225 115.965 193.358
128.93 190.099 193.887
188.219 118.418 197.927
100.204 135.456 50.766
248.454 73.8957 150.281
266.261 101.945 145.634
75.709 168.281 74.0834
111.587 188.994 61.1414
98.8881 228.168 165.086
83.8264 240.583 91.6722
112.319 226.718 171.316
109.633 227.083 170.308
222.6 75.2922 157.841
78.5859 167.352 64.899
106.886 228.385 168.738
99.0736 192.624 48.9604
199.199 125.922 192.822
85.4609 128.632 132.905
116.105 109.247 189.786
145.096 98.4318 112.103
99.2898 117.425 173.941
268.879 112.266 162.513
136.934 105.961 202.317
113.137 126.395 75.3163
109.839 95.5146 125.167
98.5278 233.29 90.4334
100.711 167.816 187.667
104.834 100.651 132.324
229.794 79.5643 162.256
217.046 107.999 125.688
107.595 125.712 65.4295
107.325 116.13 75.1478
113.734 90.8562 149.555
105.558 120.509 69.164
190.463 86.1002 105.985
92.191 126.265 91.6691
76.2644 208.256 67.2531
105.709 99.471 158.403
181.257 87.3128 171.461
222.505 68.732 140.942
188.139 96.3776 178.8
247.909 100.439 167.419
180.919 91.0312 175.302
85.126 143.566 164.568
226.06 79.8132 120.819
125.911 104.266 104.648
155.583 87.2163 180.331
76.6495 239.202 108.064
100.009 119.164 75.0035
117.016 118.131 91.5265
89.8124 248.124 93.6034
206.116 75.2269 157.475
131.648 117.629 206.202
120.239 142.574 202.068
77.8851 163.39 71.3548
164.773 74.7521 116.871
239.012 92.8337 134.916
76.4391 231.52 91.6462
65.5437 191.987 116.501
120.527 106.604 102.106
156.732 94.757 190.16
79.9499 235.789 90.0184
255.189 123.616 141.283
101.407 251.432 96.0865
77.752 154.597 86.8866
95.9014 115.431 116.305
102.126 243.445 95.6902
90.1359 241.487 89.5925
132.235 103.266 197.503
120.882 151.081 202.234
116.438 102.093 182.204
142.057 121.022 211.413
98.0636 249.631 94.1153
143.111 71.8886 141.25
105.792 231.405 166.166
105.711 198.682 67.3914
84.1166 248.742 123.819
76.5846 150.189 132.3
97.5318 117.498 99.1336
88.5132 250.001 133.332
69.0826 176.828 100.873
93.1337 110.732 149.121
222.122 101.194 127.162
128.895 89.4506 176.505
87.9016 133.203 90.6775
88.8659 150.646 50.6994
104.168 98.9907 139.709
96.4619 168.061 184.418
138.588 97.7995 193.822
112.121 98.53 167.441
262.757 79.1758 148.275
131.759 91.7419 182.74
84.9683 247.019 131.282
90.7154 126.017 107.447
71.458 209.317 83.1365
226.023 101.609 128.94
174.767 133.008 210.484
247.749 125.912 172.406
81.1264 242.371 99.4053
109.334 103.665 172.693
92.94 195.191 46.8129
116.932 185.403 65.0936
137.666 106.431 110.141
172.22 94.1186 182.253
108.597 194.059 64.8249
66.76 200.915 133.449
115.501 160.234 197.549
84.6042 247.759 100.487
108.78 201.545 74.1785
128.603 241.59 111.463
73.5005 208.816 149.322
68.0758 184.415 100.404
115.175 141.316 197.902
119.58 254.678 106.622
247.206 92.1692 139.287
107.183 110.452 82.9033
245.429 117.015 135.752
98.119 166.947 35.0874
187.449 149.496 203.965
99.7126 100.309 149.658
107.449 134.422 190.185
73.3605 233.417 107.95
72.2059 192.093 75.0476
67.6427 191.828 100.495
81.1857 199.588 163.465
116.695 193.272 73.0233
121.155 98.4355 183.173
95.3173 123.546 82.2792
88.2302 124.639 124.236
66.8173 208.707 116.098
122.872 101.947 190.514
81.1813 192.268 49.8107
98.5734 108.907 132.658
191.474 142.21 201.434
96.4927 109.407 140.124
160.343 76.7305 119.984
93.0345 236.171 87.8982
86.6242 131.604 158.121
180.888 73.4118 151.779
115.852 125.851 82.8845
110.219 96.1608 116.947
107.71 100.83 107.547
140.546 109.25 205.387
197.535 70.8614 115.83
189.426 77.0293 101.564
181.126 68.9778 124.086
106.754 100.911 116.369
117.937 124.509 89.487
108.122 94.0835 141.179
108.906 95.0936 133.293
190.031 73.204 105.688
181.047 70.3652 115.818
109.366 103.798 93.3167
101.945 104.505 132.874
114.135 199.05 76.3049
130.616 189.496 78.1682
99.2893 109.329 124.841
150.303 81.2591 123.496
118.374 95.6966 172.903
237.938 101.676 170.777
83.3743 167.467 50.4275
117.203 241.875 105.045
209.578 122.336 186.111
171.306 135.39 211.989
230.915 109.116 174.417
271.548 116.967 149.781
172.634 158.584 209.197
256.308 109.639 168.014
110.445 140.562 55.1308
252.401 112.299 170.246
156.536 84.0519 174.372
239.193 134.423 174.327
213.99 101.035 176.393
102.404 113.096 85.9694
91.7163 218.823 74.3
222.588 126.102 180.533
85.0182 136.502 99.7636
77.18 222.242 77.5961
249.76 107.254 169.332
81.3183 224.701 75.9946
79.3381 149.301 90.8467
117.374 85.9505 132.511
110.248 187.163 55.5214
90.0737 214.692 167.226
189.321 70.6412 148.251
189.384 69.079 124.184
181.057 86.8347 105.354
123.891 150.816 74.713
165.927 71.2279 125.295
235.523 81.4193 128.14
173.409 69.5007 140.629
139.05 173.724 203.89
133.917 172.782 203.377
229.775 94.5765 170.602
181.697 68.9666 141.58
164.548 76.4006 158.587
136.786 193.348 82.2848
126.303 119.868 203.619
118.109 235.289 104.323
164.954 98.4542 192.342
230.659 93.1185 130.359
189.293 68.3911 141.394
216.291 74.9521 113.441
173.035 68.9335 132.645
69.0986 177.276 130.428
88.5785 251.032 98.7226
79.9717 209.277 158.629
97.8234 133.472 57.651
262.615 100.77 144.507
250.006 77.5805 137.286
74.1958 167.23 82.5523
114.18 100.146 174.645
133.343 94.881 188.641
120.779 205.235 86.4023
148.307 87.0526 180.978
116.152 167.215 196.926
203.9 119.497 187.667
116.522 250.429 105.055
118.356 157.318 63.3776
271.751 109.675 156.799
216.018 133.194 184.965
119.443 230.485 103.521
172.751 86.8124 172.476
131.447 159.099 207.024
136.082 170.717 79.5551
124.592 94.7219 181.367
239.662 69.46 140.976
78.4071 155.796 81.2663
256.267 84.1962 157.002
206.473 69.0743 140.713
89.4459 223.894 77.0849
70.4571 174.806 133.401
75.885 216.884 74.9754
181.319 99.0253 183.774
211.356 128.328 187.01
182.539 71.6918 109.881
73.6803 208.828 74.6234
88.9715 125.932 116.219
86.2836 245.859 136.483
117.585 109.366 97.7424
95.6096 261.422 104.472
67.3104 208.591 107.756
189.665 68.2947 132.478
268.885 94.1393 153.832
115.404 142.209 66.5183
108.179 132.793 57.1781
157.031 90.0369 184.626
198.532 118.009 190.033
106.742 183.372 190.27
148.212 142.233 214.132
107.465 191.434 58.3551
76.2627 224.898 82.8228
101.503 120.885 69.7269
76.5361 151.422 99.8302
135.366 187.535 78.9757
198.811 87.8959 171.071
113.51 150.434 58.2481
102.356 203.853 180.76
92.6998 143.577 51.2817
144.393 171.528 205.807
135.675 174.036 78.8872
148.375 104.827 203.374
106.71 114.049 79.7265
180.998 82.6791 102.037
214.242 85.0438 116.771
259.45 97.1531 161.146
239.233 69.8784 131.776
102.963 105.314 121.022
112.269 142.717 58.5844
83.2839 158.694 58.0912
120.501 133.47 202.009
255.739 75.7689 148.624
189.392 72.8698 152.146
98.8819 191.296 182.693
214.056 93.2473 173.13
189.918 76.4075 157.317
66.9978 208.519 124.416
98.6372 262.935 103.031
112.911 102.965 93.656
105.575 128.35 59.7772
187.618 104.254 187.602
76.6989 152.236 148.454
82.5256 142.905 91.2719
180.933 110.502 197.773
231.005 69.9698 125.282
140.361 87.5702 180.183
74.4808 159.362 148.364
108.942 197.813 187.433
109.034 150.665 49.1603
233.13 86.5407 129.464
83.4864 134.374 124.389
109.753 213.647 178.647
90.2278 118.292 157.772
191.461 150.486 201.596
100.447 102.675 141.762
131.527 188.565 194.858
100.291 202.359 65.1207
167.525 90.8931 110.144
76.8026 167.89 163.215
204.467 103.447 179.145
82.6751 150.486 74.4562
89.5942 232.976 84.1101
147.996 150.549 213.084
128.775 221.988 103.054
136.418 202.101 88.8651
71.0782 183.649 82.6492
95.5807 197.58 52.2472
86.6583 253.563 116.457
117.669 116.647 96.5323
148.475 167.415 208.154
77.2932 190.162 162.186
140.819 78.9148 164.971
72.8165 167.057 149.196
201.367 113.855 186.241
212.755 77.2068 109.649
79.9097 219.919 71.9329
198.603 92.5537 174.772
71.1605 184.175 148.852
222.972 134.367 181.065
131.954 175.326 75.4158
135.79 179.429 78.589
69.1606 186.027 138.078
265.226 116.968 146.334
117.928 118.403 196.123
94.9776 122.306 90.755
71.7326 175.838 149.453
85.384 214.328 163.249
237.421 75.4675 126.347
84.7631 175.472 172.381
106.932 250.539 99.3609
265.934 126.863 146.966
84.7594 135.854 108.121
180.066 157.331 206.645
129.756 152.137 82.0208
79.5795 227.988 80.3972
82.0018 233.265 83.8924
105.777 116.831 182.591
197.647 101.973 180.458
185.838 128.369 203.348
99.8533 142.803 43.2487
214.367 110.408 179.554
195.151 127.43 195.551
217.486 87.3311 121.091
108.842 101.76 99.4254
69.9086 191.179 143.836
189.542 92.2637 175.149
131.837 83.4471 165.973
86.6973 147.558 65.3454
246.88 101.769 138.873
89.5038 159.388 40.6476
121.437 125.99 201.525
112.614 241.577 102.204
114.572 108.226 90.8494
181.291 83.1977 166.427
79.9017 215.761 156.004
241.44 76.5719 130.26
206.265 158.441 191.018
76.9226 169.516 68.2367
165.405 159.823 210.587
146.367 84.2904 116.035
216.501 106.638 177.587
228.142 74.9952 119.324
163.444 156.51 211.659
160.96 72.4283 129.078
122.946 116.878 199.967
206.135 87.8447 170.803
211.194 158.984 187.186
85.0245 144.78 76.8037
124.58 184.835 72.9344
132.21 241.11 113.045
97.3926 183.806 184.153
74.2093 167.509 157.768
128.514 246.988 112.108
114.65 192.061 190.934
105.295 135.323 51.2954
168.381 72.0686 119.479
120.561 152.584 68.8489
239.494 84.3699 132.853
77.3119 184.338 60.6141
255.85 109.025 141.909
99.144 150.293 39.0347
156.196 74.4753 131.158
180.984 90.7194 108.62
99.2504 109.99 165.066
206.589 99.4835 176.998
81.905 159.01 165.565
70.3374 218.993 97.4667
148.214 115.351 210.269
123.116 241.663 108.515
70.3012 183.461 141.127
122.177 82.8725 124.493
239.277 116.329 133.606
225.934 108.897 128.879
112.836 255.956 102.652
214.38 117.665 182.587
170.769 148.679 211.555
169.38 129.331 211.556
107.458 141.752 49.1764
116.44 202.505 81.3249
84.175 226.936 155.016
212.328 150.341 187.697
198.427 83.0508 166.076
103.096 106.015 115.431
230.669 101.701 131.653
112.814 134.33 66.3755
211.741 81.3741 110.809
123.088 92.3171 174.376
126.755 165.573 203.336
181.636 70.7563 147.167
206.251 91.5179 117.208
120.443 135.469 84.8548
239.062 71.198 147.566
79.2879 157.812 74.2353
119.928 129.016 90.1487
253.904 94.3116 162.675
242.653 93.0054 137.186
166.936 77.7906 108.561
255.96 100.951 164.606
237.411 71.2222 127
105.924 200.928 184.188
82.096 215.686 66.6923
149.131 119.307 212.019
112.936 91.8106 124.437
265.88 83.3838 149.792
269.217 87.361 149.061
267.794 91.8121 150.495
247.557 71.6608 146.287
205.966 92.5564 173.91
97.0899 139.774 48.2884
156.306 74.5502 157.402
107.12 150.386 191.304
77.3868 213.738 153.86
75.1904 217.24 148.745
124.245 110.172 197.706
131.245 233.037 109.943
135.941 187.532 79.1423
148.703 156.825 211.724
78.7947 156.971 160.354
93.299 211.044 170.987
131.887 86.9161 174.09
105.223 207.436 76.9733
70.7748 175.506 91.8068
78.4462 219.533 152.132
68.0522 217.212 107.691
68.8305 215.764 100.933
76.3352 149.874 125.477
98.6637 117.063 91.3327
68.2226 175.674 124.432
197.656 68.4408 132.642
105.592 101.338 124.096
79.2003 243.172 116.803
196.022 111.042 188.112
107.139 191.486 188.5
181.761 133.463 206.987
252.122 72.0895 145.089
70.8035 225.735 116.838
68.9794 222.401 107.354
69.3034 221.944 114.801
70.4035 226.284 106.581
139.696 94.0147 189.577
120.833 107.362 193.102
147.507 160.598 210.53
136.386 206.815 93.143
76.3659 174.893 66.5696
71.816 225.261 99.2783
68.3273 217.201 116.285
222.59 142.205 181.633
248.146 110.761 170.946
75.3617 150.932 116.347
172.227 85.1976 105.419
113.335 190.75 66.6408
99.2607 126.154 66.3746
92.949 126.967 171.562
67.7891 207.986 133.062
70.3811 200.048 82.7926
68.8891 200.534 91.5913
176.66 71.8539 111.692
68.3475 200.506 139.204
239.307 110.191 172.598
106.557 142.575 190.364
68.241 208.687 100.106
173.138 90.3355 176.53
247.457 117.272 172.338
72.4624 166.957 141.677
113.809 183.667 58.3485
89.9687 191.663 42.4099
136.351 174.724 79.419
239.057 77.2511 157.629
199.006 108.435 184.622
103.653 193.958 185.659
94.7033 122.01 95.9215
113.788 116.674 191.35
227.168 127.341 178.486
69.2093 185.326 92.9522
188.772 125.752 200.1
125.163 126.792 204.624
214.502 71.388 117.258
165.067 134.264 213.338
185.947 90.1343 108.824
213.748 88.0237 170.301
76.8777 183.541 162.962
143.12 72.0386 134.462
112.23 107.176 183.669
197.943 72.5403 152.803
115.848 134.318 198.051
264.145 92.882 156.439
215.204 126.478 184.373
127.324 79.8256 120.193
271.065 125.022 149.86
245.778 122.257 136.18
147.834 93.853 190.377
75.4286 201.057 66.0894
66.8561 200.506 107.776
231.849 142.496 177.031
255.586 101.456 142.84
162.641 73.2178 124.132
238.705 140.914 174.62
231.617 133.911 176.83
231.225 109.216 131.568
211.89 133.671 187.617
69.4874 197.687 86.4479
227.797 141.999 178.816
238.786 109.403 134.438
76.1051 200.323 156.315
188.938 87.8274 171.076
80.1611 184.793 166.48
231.397 115.466 130.529
104.847 150.931 42.6707
84.2876 134.937 116.22
116.435 210.577 88.8295
90.0201 257.622 115.305
112.466 250.098 102.703
81.3985 157.753 66.58
139.694 159.727 209.47
65.9233 200.545 124.242
172.667 69.9218 124.19
135.791 209.645 95.5625
118.42 103.964 187.957
74.2736 175.034 73.6387
172.425 75.6015 106.455
77.3236 161.289 76.5165
244.535 82.4742 135.921
97.9365 158.522 35.9589
246.274 139.72 172.655
122.716 233.789 106.355
95.794 181.591 36.8002
70.3059 218.546 133.031
81.3957 192.07 166.426
87.4934 132.457 99.6241
180.753 76.5512 156.68
72.5296 200.529 149.656
189.447 83.0183 165.796
84.697 183.102 171.696
115.083 183.759 192.881
88.7646 191.129 174.036
79.9721 174.473 167.233
148.62 126.022 213.542
221.788 150.72 181.641
222.487 76.0337 116.328
140.995 126.232 212.248
73.7463 183.823 157.796
155.752 119.241 211.949
73.368 175.089 157.447
156.973 125.536 213.2
78.5803 148.664 150.319
89.0641 133.704 83.0304
148.285 134.842 214.162
91.7078 248.303 139.994
131.746 76.1511 141.441
116.931 86.5926 140.631
107.671 184.321 49.2538
173.974 71.195 146.94
91.6215 226.518 81.1353
94.7798 113.985 131.424
90.7592 182.508 36.3475
95.5537 243.01 149.743
134.653 88.3973 178.869
89.9225 212.197 168.143
154.499 81.6718 127.349
95.1567 248.79 142.988
81.0155 184.334 50.0743
123.102 249.154 108.908
119.916 196.913 78.3834
148.604 74.1903 157.349
248.564 108.913 138.209
111.783 222.077 94.8202
205.939 126.31 189.376
81.6471 142.166 99.9113
69.9601 164.569 116.284
112.419 125.078 193.043
258.627 125.463 169.432
124.725 143.521 205.394
117.099 255.107 105.185
274.157 122.767 154.119
97.8087 200.02 58.5591
100.963 195.163 55.5472
78.0446 172.624 62.6148
74.6251 225.511 141.206
124.799 86.6361 102.113
132.014 77.3627 148.681
117.891 87.5586 116.131
103.997 183.473 44.2693
114.474 92.1218 107.619
195.973 89.2876 111.218
96.7632 108.416 158.543
104.688 107.63 98.8499
113.787 91.8794 115.907
115.975 94.1698 100.627
231.121 68.8144 141.03
105.66 257.372 98.899
231.434 76.5376 122.538
206.479 133.315 190.767
132.046 167.165 204.937
197.561 68.7407 141.281
111.696 159.736 52.8617
200.165 133.238 193.998
192.884 105.592 186.038
100.294 209.919 74.2251
216.54 142.435 185.122
182.694 106.778 193.178
231.62 68.555 132.594
111.47 213.379 179.427
109.381 158.866 49.0004
85.1721 229.754 153.834
212.296 142.559 187.78
238.931 101.11 135.42
139.86 134.218 212.566
152.658 80.3138 170.036
255.678 75.7515 141.035
97.092 153.888 36.9301
101.6 206.508 178.844
94.2046 154.661 37.2855
69.7802 220.498 125.17
85.775 129.041 125.706
96.6102 124.808 74.1138
156.788 101.501 199.228
87.6767 124.603 132.725
102.758 140.355 186.28
69.2054 207.776 93.0054
72.6408 200.674 74.3483
67.813 200.486 100.321
173.129 117.11 206.62
229.716 83.7127 125.726
82.8648 133.936 132.788
91.3914 166.505 35.1965
99.4013 231.372 163.045
91.0281 175.7 35.4532
87.7361 166.522 40.2835
118.249 88.0093 108.853
223.211 85.1191 122.991
85.4909 168.891 44.4323
103.856 232.824 94.1475
87.1984 175.226 39.1717
131.432 84.5807 102.761
98.4661 258.495 98.9174
97.8071 254.242 95.338
91.8304 255.915 101.284
222.254 69.6892 124.272
221.955 71.5284 118.671
86.6212 131.051 114.296
86.9738 132.126 108.135
131.386 183.441 197.502
84.7357 191.59 44.0338
207.043 87.0195 113.965
205.301 83.183 108.864
147.786 108.941 206.367
100.958 128.688 60.2399
197.091 79.7608 162.435
147.569 101.162 199.522
222.207 92.8712 171.486
115.972 167.38 57.5032
108.721 166.841 49.2057
111.325 151.636 53.4151
124.336 150.551 204.575
256.001 131.097 169.582
114.999 99.928 97.4089
254.269 125.132 170.715
156.623 150.31 213.307
70.0681 174.106 97.8363
263.062 124.081 168.145
155.629 72.4914 152.743
122.355 93.2018 99.1493
120.832 143.892 76.5352
255.201 117.449 140.938
68.1614 183.987 132.624
260.979 117.335 144.466
260.793 109.371 144.677
126.245 158.471 72.0968
90.2774 117.484 149.513
78.4083 237.171 96.7233
261.111 124.102 144.382
238.319 84.6116 163.965
122.236 160.109 66.5883
91.4388 117.558 140.744
164.028 70.4149 132.599
93.9381 112.342 142.671
198.354 158.909 196.664
97.1355 175.486 35.5404
93.3639 111.881 156.266
222.568 92.4643 126.003
105.632 108.6 174.308
111.487 181.839 53.3321
102.929 114.318 177.244
83.698 240.549 140.248
112.457 91.077 132.643
131.818 98.7341 192.583
262.749 85.9002 154.457
145.246 78.7001 118.232
103.927 106.498 107.282
131.653 150.066 208.872
106.668 107.836 90.2841
149.119 73.0418 130.314
190.181 159.074 201.249
96.3965 125.154 175.075
206.915 151.349 191.482
186.295 157.346 203.597
101.079 125.475 180.96
139.917 142.853 212.577
110.501 131.071 63.3503
97.4117 262.483 103.776
94.1121 121.33 170.152
101.812 120.049 179.428
104.14 125.042 184.198
79.0705 201.231 160.103
99.4705 135.033 181.892
101.598 112.044 171.91
71.0909 191.991 148.771
112.663 90.3287 141.211
81.7399 241.945 133.505
115.168 159.397 58.1162
196.918 70.6905 148.593
197.379 69.3124 123.999
74.8767 233.197 124.621
103.378 132.942 185.688
73.7837 233.255 116.127
75.0988 191.792 65.9978
66.5324 192.955 107.453
75.8749 233.132 132.542
70.3895 192.133 82.4367
69.0158 192.192 90.5737
83.4383 249.489 115.787
87.5804 252.755 124.795
68.2289 175.635 107.481
164.65 142.222 213.393
84.2979 151.074 165.748
92.9592 135.511 66.7681
175.166 143.318 210.643
224.269 115.44 127.973
171.096 142.245 212.005
89.5613 199.885 50.1252
181.606 142.189 207.595
89.4842 185.845 38.6937
181.502 126.29 205.846
180.761 103.012 189.762
173.663 125.913 209.211
104.187 143.709 44.0843
137.22 176.657 202.244
100.385 103.03 156.446
205.807 142.005 191.842
205.689 109.492 181.946
215.996 150.671 185.186
139.908 101.945 198.943
92.0967 175.531 180.472
87.9315 176.144 176.027
92.4301 167.21 180.218
88.2398 167.586 175.764
161.913 88.2577 179.375
96.534 175.949 184.795
164.612 86.281 174.342
100.585 175.683 187.736
215.139 92.5902 122.259
92.6322 127.523 83.1481
214.709 100.784 124.123
211.763 90.1784 119.463
81.1075 141.905 107.442
84.3143 142.835 83.2427
248.442 84.4429 138.426
170.941 72.7624 114.043
73.5516 158.678 100.256
75.4359 158.729 90.678
114.927 216.122 92.4349
107.798 209.778 81.8543
198.116 150.886 197.47
91.931 118.846 124.456
104.946 215.825 84.9611
91.8119 118.037 132.61
107.975 217.779 88.9438
114.785 207.334 84.9447
126.507 104.217 195.28
199.694 98.0955 177.602
131.362 225.443 106.037
70.0304 182.864 89.505
88.5906 183.559 175.707
122.982 224.04 102.112
75.1876 183.722 66.9576
88.8031 228.069 158.231
127.831 169.498 70.1658
123.707 217.425 97.7674
131.164 216.706 99.7486
85.3764 238.08 145.592
106.073 224.326 91.8137
68.8143 169.04 115.148
139.459 117.709 209.35
273.461 117.232 157.425
254.503 117.963 170.579
222.306 101.198 174.55
242.572 100.142 137.014
106.554 167.406 191.011
77.6215 177.48 61.7159
206.761 116.43 185.002
111.926 167.687 194.038
173.78 108.329 199.859
92.8137 182.422 180.168
247.562 134.474 172.227
124.727 227.038 104.511
197.878 75.5517 157.277
111.734 166.838 53.1024
224.265 89.3089 169.535
209.15 99.0153 121.505
117.714 132.751 81.4508
231.705 91.2569 168.933
86.2707 130.745 151.817
123.146 175.202 199.187
222.469 84.5325 166.749
206.165 69.5677 123.85
121.17 90.5093 166.203
231.072 100.712 172.271
174.079 151.095 210.099
245.344 71.254 134.431
76.8359 208.335 154.988
82.5824 206.371 162.619
90.4143 142.939 173.318
87.0262 142.079 168.21
89.5093 150.829 174.332
86.5185 148.372 169.314
84.361 151.133 67.0834
88.1936 134.066 166.708
180.479 80.0689 162.107
91.4849 134.345 172.36
98.9048 142.402 182.468
136.913 238.993 114.274
156.57 157.279 211.855
164.374 150.585 212.625
199.248 91.0356 114.043
139.82 166.782 206.988
95.0512 107.194 148.014
187.245 142.292 204.225
99.794 116.886 83.1688
205.302 72.3935 152.664
181.122 68.317 132.714
127.805 114.32 202.809
101.924 112.809 90.9557
76.4665 159.968 82.7701
115.379 150.697 198.124
101.833 158.158 38.1095
174.522 78.1398 102.344
101.484 111.719 100.355
131.142 142.753 209.139
147.942 71.6198 133.472
76.4713 223.776 147.124
156.92 71.4556 134.817
240.038 117.493 173.84
156.085 70.2712 140.763
121.917 192.165 75.8426
148.972 70.6751 140.592
148.267 76.6593 124.395
230.873 118.646 176.319
231.753 125.52 176.586
264.749 100.571 159.265
70.8865 168.381 100.063
245.945 75.6182 134.028
261.91 103.054 162.723
72.6009 167.851 90.9721
116.545 125.825 197.205
70.1012 166.6 106.855
245.276 86.6582 162.794
263.989 110.069 165.023
72.0324 159.278 107.893
72.1823 175.046 83.6657
71.2762 217.144 91.1651
157.04 78.0415 125.794
85.0431 176.173 42.8235
68.6944 216.726 123.676
238.965 126.541 174.441
69.1571 215.268 131.632
97.1515 238.72 155.362
95.2389 114.566 123.906
131.06 176.225 201.357
77.8659 147.515 144.185
90.9462 134.547 74.6675
95.6129 131.892 65.1442
180.145 150.704 207.723
249.847 118.29 137.953
75.73 150.723 107.763
107.611 94.4404 148.98
135.49 134.163 211.292
109.119 95.8886 156.101
70.1187 210.531 89.902
76.6948 175.42 163.71
80.1292 167.551 166.903
80.332 150.873 82.9357
124.22 175.136 66.9544
108.48 126.226 189.249
79.4981 142.124 132.702
121.07 183.247 68.3572
129.863 159.802 75.7656
123.476 208.951 90.6014
131.679 167.439 75.1676
122.053 214.027 94.2761
117.123 219.688 96.6018
220.308 82.1242 118.602
106.791 242.133 98.5817
167.081 84.0291 107.328
77.2466 153.161 92.3118
98.2731 241.378 92.6431
174.591 82.1407 102.76
137.304 198.443 86.0088
72.8591 183.886 74.6065
88.1509 238.028 86.7955
112.381 110.911 84.0717
79.8353 142.222 124.209
80.686 141.595 116.005
173.632 71.2257 116.908
65.8824 200.311 116.479
66.0728 184.201 115.631
247.142 92.9475 164.862
264.376 117.436 167.09
66.6526 184.222 124.037
66.9361 183.802 107.344
206.127 71.2523 115.88
132.966 111.382 204.092
140.084 84.1154 108.03
139.891 93.3164 108.206
247.891 78.2146 156.008
69.0968 169.577 122.497
71.7544 167.718 132.822
180.296 119.342 204.386
145.158 89.7748 112.674
140.115 76.9862 115.635
97.1629 215.772 77.0663
106.715 112.966 77.7894
73.5935 217.363 82.2072
155.872 108.905 206.079
87.6186 125.136 141.649
158.057 97.5207 193.715
126.619 88.2764 171.349
125.161 87.1258 165.492
180.221 95.6986 180.162
198.243 84.6011 107.128
173.33 82.4551 166.908
80.043 242.92 124.208
263.487 85.071 143.823
206.715 68.5621 133.317
137.004 225.011 107.348
156.638 142.014 214.225
214.945 68.7757 131.389
214.506 69.0328 140.938
222.113 68.648 132.11
163.799 70.1594 141.241
130.411 93.3405 101.815
69.4367 221.734 103.249
106.841 159.56 191.162
71.3387 224.819 124.342
155.757 71.2753 148.994
72.4544 225.069 132.441
190.676 133.645 200.464
95.9951 115.681 167.062
185.032 122.861 202.725
83.1343 199.663 50.8256
205.991 75.8171 107.238
70.4395 166.511 125.011
72.6953 158.887 124.181
227.849 147.898 178.693
73.6877 159.192 132.706
255.753 84.6097 141.331
80.7659 211.28 63.6256
105.232 189.395 50.446
81.7775 207.735 59.3321
