ply
format ascii 1.0
comment Created by Open3D
element vertex 1208
property double x
property double y
property double z
end_header
123.643 90.3886 171.05
96.5106 116.951 108.15
220.162 72.4717 153.779
87.6574 251.641 128.207
113.769 205.456 82.5461
79.2262 232.741 144.452
105.917 135.647 188.875
78.9979 196.595 162.105
248.334 72.2811 135.783
78.8389 143.865 133.073
79.0158 144.12 121.371
105.601 108.243 92.038
132.658 81.5317 161.77
97.1144 215.695 171.21
78.8927 144.335 142.895
114.301 197.582 189.571
78.7409 161.398 162.979
104.979 148.623 189.446
141.042 81.7474 109.509
78.4381 242.144 108.1
96.521 213.724 74.0823
96.6226 125.494 72.6499
70.0986 179.806 91.6094
123.315 246.889 109.103
96.0068 152.237 37.5009
88.2578 153.752 47.8318
105.978 232.932 165.171
123.521 243.212 109.037
78.3644 160.991 72.7491
69.661 224.654 110.688
88.777 197.271 46.6669
180.169 90.9193 108.664
104.556 206.4 180.744
131.414 153.755 82.7929
194.473 135.669 198.107
95.7391 116.014 114.92
195.534 156.582 198.686
213.632 90.0921 171.627
222.037 124.351 180.574
114.858 133.808 72.8824
79.252 144.323 113.636
135.799 205.644 91.8529
141.012 72.4499 138.165
169.537 98.5561 189.929
132.613 117.474 206.769
104.913 107.591 97.9067
113.81 231.739 100.625
208.403 72.6099 153.391
162.317 72.9316 152.609
123.924 143.088 83.0581
78.504 151.67 154.983
115.078 138.541 197.733
95.8853 149.458 181.108
220.843 110.401 127.059
114.649 90.4545 119.784
78.8502 196.83 55.9727
78.4225 242.38 112.507
88.0423 144.825 65.9387
87.261 143.067 72.2085
69.6519 186.603 89.1614
122.385 90.104 99.9394
106.202 116.814 72.932
70.0147 190.861 144.188
221.261 80.945 118.255
70.2821 163.567 112.658
104.464 213.989 82.9664
211.18 148.143 188.575
96.1818 107.255 155.523
266.295 89.3364 153.93
105.216 107.695 172.065
85.0381 233.146 82.2568
78.4287 169.716 63.2896
108.386 259.875 100.257
97.3357 197.842 54.8014
231.479 82.5544 125.991
78.312 233.726 89.5799
221.483 100.328 126.797
113.969 196.758 73.9548
105.883 99.7234 130.089
88.6884 249.765 134.239
78.1523 190.609 163.17
79.4499 163.076 66.351
85.7803 215.332 163.352
249.091 137.531 171.945
250.585 71.9935 145.87
79.5405 174.072 57.7948
220.569 118.515 180.034
190.483 71.0053 113.192
225.11 80.5178 163.48
112.712 226.056 171.823
121.537 106.058 102.815
180.271 80.8957 163.346
106.79 215.374 176.372
108.461 212.617 178.817
129.443 107.735 109.631
70.7123 211.639 142.046
106.596 129.672 188.233
140.549 96.8426 109.476
192.08 162.072 199.709
124.116 108.421 108.664
193.918 99.9685 180.16
222.697 130.691 180.903
95.6715 228.468 162.999
104.464 166.524 189.833
104.41 175.083 189.833
126.72 109.447 111.059
116.02 140.386 69.4661
87.5616 178.507 37.7939
238.66 81.8304 162.051
228.793 72.6082 153.274
235.42 73.0635 152.627
234.791 77.0346 158.354
225.777 75.8768 158.402
145.406 84.355 176.234
114.204 176.854 55.8671
145.515 78.6843 166.911
133.08 159.381 80.4938
142.875 101.21 111.192
216.71 121.393 182.621
117.666 175.215 196.185
146.071 74.8946 158.281
100.323 103.683 140.441
95.7383 133.506 61.9841
144.803 73.1422 151.338
69.9966 223.44 116.797
147.456 71.7393 147.919
136.239 74.3403 141.006
85.1463 227.505 155.48
81.7789 229.141 150.653
162.565 114.906 208.572
77.2306 226.394 146.748
115.194 159.085 197.484
85.6657 244.085 138.082
96.7334 243.336 150.553
72.4679 157.044 114.016
77.1087 147.923 123.068
78.9966 182.405 56.2471
200.158 147.31 196.001
195.676 147.138 199.016
190.214 146.979 202.434
89.5431 255.773 122.267
114.78 124.44 81.2993
92.4622 260.546 111.814
117.938 174.671 59.6703
85.9528 130.435 149.113
129.365 78.9296 148.514
125.192 82.7379 150.395
225.704 103.696 174.43
87.9172 126.647 159.684
89.99 217.253 70.8215
129.833 79.1039 113.332
95.5877 124.522 78.2187
122.719 164.524 65.3586
183.516 72.1441 108.101
69.1578 209.317 138.336
104.53 106.049 105.479
115.082 109.144 188.895
97.0155 117.607 102.541
74.2532 157.831 141.453
77.1704 148.45 131.196
122.213 89.2185 165.249
135.362 82.6754 168.301
130.823 80.4104 155.099
126.59 84.2968 158.52
171.806 92.2927 109.942
225.637 70.4514 148.73
208.063 70.9516 149.007
217.28 70.7338 149.086
99.8333 215.453 172.755
209.911 162.426 187.294
206.26 156.332 191.398
200.555 157.615 195.401
199.635 162.399 195.225
115 90.7232 152.077
87.2442 133.165 163.985
242.596 87.4359 164.069
152.679 81.9414 126.054
154.817 82.1412 127.659
136.503 74.3568 131.924
136.878 75.2713 122.076
96.6386 240.913 152.976
266.812 92.3165 144.498
135.94 195.793 83.5855
77.2559 148.282 139.963
86.8568 130.283 157.561
82.1896 138.982 149.029
79.7228 146.04 150.429
96.1678 223.148 82.8567
171.555 80.4021 164.084
172.455 77.4733 158.767
163.429 79.5507 165.447
128.471 149.04 83.3957
85.9217 252.858 112.947
86.468 252.273 105.076
95.1804 158.226 181.851
77.6009 150.218 148.799
84.302 139.266 158.096
81.2731 148.754 158.432
110.085 208.565 182.216
118.442 198.696 189.861
116.485 202.429 188.058
208.183 75.5691 158.026
180.86 113.829 200.547
172.896 112.566 203.972
261.625 94.5804 143.843
153.531 165.527 209.289
130.037 80.2655 106.125
67.7696 174.797 114.063
67.4126 184.278 104.258
267.848 113.885 164.245
115.515 149.541 62.677
121.86 145.691 76.5372
120.955 157.173 66.6024
75.5216 228.425 140.705
164.977 110.965 205.375
87.7288 126.043 152.766
162.877 104.443 200.593
87.8493 135.773 83.3386
79.7271 155.587 160.744
83.2979 157.245 166.602
104.499 116.665 72.8443
126.887 103.759 104.893
134.542 226.204 107.459
135.821 230.316 110.171
198.671 83.7094 106.308
135.25 201.384 87.922
234.368 70.945 148.156
225.241 68.6615 140.309
186.121 116.284 198.669
244.991 70.1077 139.988
234.631 68.8998 140.03
128.438 78.8218 123.174
87.5703 125.355 125.762
243.786 71.5102 147.046
251.735 79.4222 155.706
252.9 84.8748 158.948
244.681 73.6214 151.213
244.415 83.3885 161.236
243.029 78.4294 157.73
162.501 71.0719 147.795
120.604 105.05 191.319
95.0166 115.041 122.918
92.0733 121.918 113.343
98.7136 110.531 122.094
123.803 99.7736 99.7255
99.2609 111.57 113.811
225.22 112.485 176.79
226.005 121.241 178.417
100.973 210.538 176.203
95.4612 211.057 172.422
175.195 118.735 206.592
162.957 121.73 211.124
88.077 173.068 38.3258
92.2012 175.355 35.2687
123.724 81.9314 122.537
84.8547 130.206 140.831
166.599 79.524 107.406
114.916 90.8812 112.039
88.0302 126.374 119.37
99.0902 157.507 36.3876
89.8008 130.231 167.996
109.209 157.691 192.964
94.1963 157.733 36.3471
217.232 139.242 184.625
216.237 130.402 184.496
110.93 202.638 77.3189
100.747 147.45 185.4
69.3707 192.923 87.9251
107.584 101.899 104.076
97.5092 235.27 90.451
205.643 162.897 190.667
104.71 187.522 47.2935
99.4943 200.395 61.4202
86.2577 141.075 79.2249
127.597 85.0153 103.032
125.756 92.0732 178.002
216.788 68.8553 130.264
112.216 106.308 182.617
84.8644 130.024 131.4
121.627 97.7893 182.748
106.608 109.745 178.36
216.96 94.6343 123.783
119.847 95.7093 175.901
233.361 80.8718 162.814
125.728 129.34 205.538
91.378 243.557 90.2327
145.613 88.7964 183.37
77.8171 167.034 164.268
222.513 93.6166 126.333
92.2635 130.249 78.0737
243.244 94.791 137.478
239.729 93.8598 135.428
119.472 194.217 75.8909
80.6571 166.402 58.9925
129.466 140.276 208.431
198.912 69.6864 121.966
240.17 105.062 135.441
236.335 117.968 132.185
97.9334 118.825 86.0267
163.464 86.8734 175.762
86.4317 166.349 43.2596
195.914 114.615 190.112
98.5515 217.073 80.0237
85.5045 157.295 52.3188
103.114 106.356 165.824
102.215 130.425 183.807
90.1123 147.698 51.7971
93.9024 148.658 41.8414
83.1706 218.527 69.2638
122.357 115.409 198.983
103.394 121.885 182.179
91.5254 182.497 36.4482
98.9898 189.948 45.3248
135.034 220.082 103.415
105.935 182.167 46.2105
134.363 191.691 80.4654
254.125 76.0078 139.62
87.3324 125.241 131.696
75.6323 174.164 69.3351
101.708 183.623 42.4222
81.8921 237.721 141.521
154.432 78.4605 166.748
263.415 112.203 145.746
253.663 75.0494 149.083
65.9324 201.469 122.176
141.386 72.5909 144.216
118.816 138.647 200.838
125.379 198.02 81.9241
154.132 71.4849 149.563
81.7649 245.909 122.306
68.238 193.063 139.045
267.831 94.8591 154.703
78.7467 192.114 55.4287
272.072 112.583 157.79
101.011 192.35 50.5141
153.764 108.977 206.415
138.717 114.969 207.977
127.529 166.107 203.575
82.9242 139.352 104.365
145.137 91.6272 187.405
217.118 70.2709 121.75
137.835 89.489 182.427
81.2703 166.414 167.802
136.159 92.3812 186.184
198.346 105.019 182.475
234.967 103.843 133.764
129.676 97.8463 190.754
115.637 100.307 177.851
136.862 96.6194 191.966
70.0552 171.231 101.229
69.5238 177.345 97.7028
127.539 94.3968 183.797
153.848 88.3828 182.825
98.02 109.787 131.619
80.0873 203.578 56.9733
103.106 104.925 122.226
131.085 165.258 74.9287
89.2563 121.271 158.704
164.534 93.3441 185.865
109.715 175.501 192.133
198.834 130.049 194.135
191.657 121.088 196.128
99.2497 235.996 159.197
110.556 103.882 175.297
101.253 229.513 165.405
77.5248 184.158 60.0403
121.608 173.247 199.083
136.66 100.71 196.546
91.5613 247.155 141.128
136.85 104.666 200.888
94.2361 243.858 147.532
130.311 106.514 199.612
257.56 98.492 162.826
65.6855 192.93 122.449
106.481 125.368 63.8664
66.495 192.749 131.941
108.115 122.437 69.0092
181.16 92.0775 109.709
128.862 184.243 75.7059
85.1855 148.47 69.1715
97.2966 181.11 37.4324
94.9951 114.912 164.457
185.812 90.9102 109.496
78.4312 152.035 89.1507
108.982 183.934 50.9375
127.868 112.911 201.923
108.65 102.076 168.155
163.853 130.584 213.034
126.627 245.545 110.866
71.8573 184.465 78.4733
91.9835 237.609 88.0073
189.798 84.4681 167.439
90.6491 157.073 176.573
190.142 94.778 177.161
119.252 95.7807 98.3307
254.999 92.7602 161.574
172.95 77.379 104.258
173.667 71.7211 114.913
273.557 119.224 158.151
171.83 95.6462 184.623
94.7382 131.087 68.9068
226.771 112.387 129.011
90.1412 255.769 104.068
75.2766 236.903 112.85
77.5577 159.334 78.7565
75.9673 237.27 105.203
76.9205 157.119 86.0531
112.955 97.7371 98.8205
74.0668 228.456 95.6208
70.686 182.86 85.3943
154.366 74.4805 157.891
80.7576 239.168 94.7802
92.3921 165.373 35.0048
79.8342 154.765 77.3029
77.31 235.154 95.9734
84.6696 235.508 147.598
214.762 114.81 181.35
97.1739 138.515 179.8
137.103 130.683 211.576
199.802 111.767 186.118
121.369 137.665 84.3184
221.032 106.291 127.127
107.047 246.319 99.2618
85.2426 131.008 122.732
69.1914 185.253 137.619
94.3418 260.601 105.42
100.793 246.728 95.1539
137.893 104.288 109.876
99.5251 227.603 88.5672
119.316 185.188 67.9607
181.683 70.7768 147.208
92.9012 139.289 59.8817
117.867 119.759 93.9026
87.3592 151.82 53.6217
189.268 89.2693 172.508
136.608 94.4353 106.141
173.143 71.2431 147.031
189.949 157.303 201.661
102.009 98.0221 149.613
89.6611 128.338 104.627
89.7665 129.315 96.1297
89.1813 252.331 130.405
77.4442 216.974 71.5391
101.304 205.506 179.077
200.417 87.4632 111.203
86.9285 133.751 96.6065
86.6034 133.194 105.303
243.107 130.728 173.379
97.9207 127.446 66.6684
243.625 138.621 173.296
77.1771 157.845 157.813
107.965 199.085 70.5632
163.408 140.055 213.665
172.089 121.46 208.483
118.219 102.436 185.413
117.935 200.115 79.9706
104.732 182.416 189.659
120.106 165.617 199.772
69.3836 200.975 88.3323
67.3099 201.845 104.866
71.8593 201.437 77.3839
70.2621 201.862 84.0292
68.5024 202.021 95.0741
260.684 104.833 164.277
78.3638 215.996 153.962
107.745 208.038 80.1285
103.37 156.452 40.0337
93.5047 130.927 173.84
69.4672 217.17 130.494
175.177 99.7523 188.059
94.4973 140.532 52.0814
224.552 96.454 172.409
199.066 80.6561 163.529
90.4094 248.288 93.9466
222.614 72.2258 117.589
82.6037 192.563 167.575
68.539 219.273 113.474
226.672 92.5589 170.505
70.2861 223.061 101.694
114.753 143.265 64.3351
242.011 113.201 134.785
86.2377 213.77 164.296
104.696 205.309 74.1191
111.384 131.237 193.494
198.895 68.5175 131.697
265.397 98.4534 144.854
67.0144 193.054 104.594
118.821 129.688 86.8921
110.715 94.9362 122.259
189.436 72.2057 108.189
107.079 100.878 112.737
208.24 70.0107 121.884
80.3419 216.935 156.003
234.78 112.634 132.577
226.227 68.66 130.291
66.693 201.968 132.187
106.468 260.332 99.5486
226.567 147.246 179.358
83.6017 200.701 51.5657
227.108 139.125 179.102
124.854 251.428 109.85
173.255 73.6001 151.961
127.215 121.27 204.652
211.019 108.894 179.877
172.441 83.4088 168.477
100.722 184.012 186.651
145.834 129.828 213.577
226.368 103.655 129.35
227.968 117.524 128.947
225.593 86.1259 167.44
75.4717 192.541 158.657
82.813 223.095 74.2276
193.464 130.038 197.372
94.6242 195.611 48.7429
77.7324 225.724 80.3209
70.408 183.11 141.376
67.8991 184.133 131.499
69.6578 224.598 106.887
89.8282 257.49 113.128
117.013 111.888 95.5252
110.401 106.708 88.1868
68.6596 219.44 105.219
113.869 89.9946 146.699
89.8324 121.172 131.016
103.488 105.831 113.444
81.2026 173.687 168.409
110.989 193.869 67.6915
224.478 72.4415 153.644
163.398 147.64 213.159
205.228 107.243 180.881
134.959 237.499 113.056
75.4471 156.159 95.3967
101.85 254.793 97.0311
103.185 125.156 63.6297
180.912 85.5751 104.348
90.3206 130.325 86.4178
226.885 95.1847 128.809
105.264 143.068 189.318
172.917 91.6932 178.443
129.567 156.996 77.3823
172.133 69.1127 131.433
90.5535 121.347 122.171
131.299 231.88 109.501
181.697 68.8695 140.971
169.499 116.389 207.503
135.355 102.161 108.101
103.055 230.361 92.5854
116.203 182.792 61.4214
242.584 118.925 134.626
87.1825 159.966 44.9397
106.778 254.68 99.2655
94.6715 114.162 131.18
127.224 174.39 70.2178
210.625 158.181 187.775
95.3393 123.488 172.888
69.4437 216.848 99.0102
109.327 147.734 193.123
77.1264 235.989 131.314
97.4442 118.123 95.6679
74.2829 156.953 131.385
263.616 101.982 160.943
70.2156 202.848 143.866
199.422 94.8496 176.032
219.253 91.1824 171.27
98.0901 151.757 37.5554
70.8308 220.782 131.928
76.2386 210.544 68.9208
67.1157 210.59 113.723
67.7956 210.747 104.595
73.2013 210.841 77.6815
69.0564 218.581 122.065
124.277 109.512 197.362
171.755 88.4178 174.731
243.532 76.27 132.082
216.056 71.9464 116.132
108.794 130.952 60.0536
125.755 148.653 205.694
117.589 103.267 96.9881
189.808 112.569 193.193
93.6084 234.941 156.058
260.639 127.192 168.716
116.156 166.345 197.06
134.754 174.494 78.0393
102.171 104.425 131.711
79.0057 153.419 83.4285
125.311 181.929 71.7947
103.809 233.759 163.624
134.544 209.711 95.0938
174.915 90.8967 108.719
71.8009 175.2 149.431
136.134 148.278 211.034
94.8728 123.035 87.3181
80.622 211.499 158.662
154.297 114.434 210.064
206.62 89.4783 172.067
82.5311 246.707 103.867
79.1874 241.489 124.83
114.96 148.759 197.841
153.626 72.6424 153.221
261.543 112.744 167.131
86.8407 242.373 90.6264
144.307 169.548 206.637
135.579 167.283 205.859
71.8056 228.815 104.36
137.89 163.584 207.837
76.8079 201.579 156.9
142.09 81.741 171.208
73.0164 165.849 148.822
208.364 103.318 178.246
94.1004 122.909 95.6881
104.27 97.8655 141.47
72.6107 165.874 141.103
69.3148 168.214 121.484
250.682 71.3963 140.62
270.482 94.0755 147.789
233.632 70.942 124.969
70.986 211.527 86.7626
69.0245 210.387 96.0441
95.7881 142.644 45.6594
172.807 103.116 194.355
198.985 75.9293 157.86
200.384 72.6927 109.716
189.959 69.3607 122.118
110.309 102.892 95.0315
108.689 93.7933 140.535
137.065 139.253 211.701
120.736 87.9575 157.47
93.2669 229.257 84.4481
77.484 210.402 155.153
199.968 89.2183 172.313
96.9286 117.635 170.833
91.7282 191.805 42.9683
148.27 81.3403 171.726
73.6928 174.299 158.072
151.353 81.3186 171.532
126.44 207.332 90.2934
121.081 149.136 202.441
258.938 111.775 143.587
146.125 71.9533 132.361
170.924 73.5025 111.887
208.104 95.0344 174.878
154.647 147.678 213.753
68.2656 201.5 138.752
222.961 148.272 181.197
87.3823 125.26 139.285
242.627 71.1693 131.726
173.006 69.4471 140.105
74.8193 166.449 158.698
172.889 130.077 210.538
235.068 129.775 175.524
138.096 77.2197 113.849
76.4327 228.388 86.944
77.7057 183.882 163.909
186.029 79.3269 100.138
170.932 106.714 199.621
104.092 201.744 182.703
89.014 146.06 59.4114
206.492 139.136 191.205
83.3521 236.256 86.5404
236.185 100.794 171.011
125.219 140.366 205.85
71.5301 228.582 114.265
87.3297 134.388 89.504
237.779 78.5933 128.216
87.603 150.521 171.791
162.656 97.5737 192.091
160.135 73.373 128.808
84.746 184.542 42.0841
246.3 111.892 136.623
82.6514 228.265 79.1714
109.688 112.472 184.803
234.796 95.1072 132.931
166.675 88.4629 109.671
86.0656 166.889 173.167
101.449 191.991 184.572
85.116 139.622 86.9302
228.526 88.8288 127.875
72.8088 202.164 149.694
113.788 127.991 75.6375
190.412 76.1488 102.884
235.322 69.1244 131.269
207.121 112.827 183.103
109.272 201.841 185.594
208.961 74.7405 110.439
91.7028 190.312 176.741
74.1293 183.963 158.44
181.532 70.9333 113.225
86.1448 182.614 173.369
165.136 75.9483 113.93
116.423 91.9871 102.971
89.0506 121.337 149.392
126.506 165.91 69.2963
116.91 191.02 71.106
91.0999 200.555 51.8496
145.484 121.723 212.172
115.244 113.695 87.9483
113.699 89.627 132.943
71.1652 184.109 148.849
79.4815 221.751 152.385
108.017 139.537 51.1468
106.796 133.152 54.1961
118.891 192.908 191.497
77.4516 174.885 164.733
69.2158 176.443 130.097
71.3399 174.53 139.859
143.123 95.2627 110.829
225.358 85.1228 124.16
114.183 118.845 82.946
190.525 84.8646 104.811
75.8624 219.226 148.635
98.6131 120.308 76.7316
198.998 72.7161 153.193
129.874 148.26 208.176
218.594 110.314 126.287
118.391 147.811 68.6461
111.823 138.921 59.683
204.484 124.973 189.722
111.291 191.648 190.179
223.471 75.6168 116.528
145.186 147.808 213.268
155.052 71.8154 134.259
116.011 130.871 78.8731
109.119 95.1116 132.04
145.879 113.563 208.94
208.046 71.7632 114.424
80.1915 231.867 83.9271
154.546 121.23 212.506
195.216 140.718 198.575
146.513 166.28 208.349
246.794 79.7696 136.5
75.0444 157.413 148.317
102.272 133.05 53.0947
135.71 174.81 202.805
115.428 130.965 197.251
144.666 85.013 113.312
116.807 121.314 196.116
145.289 157.018 211.306
124.86 82.2877 112.934
80.6909 193.253 51.0792
121.188 121.913 200.2
68.2599 192.459 96.1296
243.256 94.3224 166.743
111.154 246.537 101.81
125.205 94.733 99.3128
253.476 94.5867 142.014
269.19 104.056 157.089
217.309 111.47 178.983
138.159 80.0392 165.2
118.824 84.8657 131.295
70.5652 174.197 133.205
113.459 115.247 190.42
211.127 89.3416 118.588
119.03 92.872 167.502
119.603 140.013 77.891
217.02 103.351 125.346
181.332 84.2129 167.741
205.456 82.2782 107.888
199.749 101.466 179.303
75.9436 219.973 78.1661
226.623 130.461 178.935
77.1295 167.536 69.5242
87.2083 197.386 46.6074
217.432 86.9284 120.633
198.809 138.915 195.763
97.5586 231.818 161.632
246.857 120.524 136.582
249.1 130.693 171.843
99.0634 101.175 149.85
91.9487 121.188 166.364
130.139 129.814 208.52
117.744 253.302 105.665
233.696 104.024 172.521
172.454 157.321 209.5
253.601 103.919 141.673
251.619 95.4925 164.137
83.7174 139.434 96.0218
165.318 71.6758 124.39
83.3838 210.26 61.17
86.1194 132.315 113.303
128.076 193.226 79.436
83.0382 148.096 77.7041
113.791 136.896 66.6318
101.932 211.397 77.7032
199.104 122.083 191.48
99.4052 111.563 167.508
205.114 91.7592 116.915
122.744 176.272 65.784
180.873 93.1845 177.422
199.138 76.8126 104.152
190.196 68.4117 130.956
106.536 100.46 121.881
110.477 92.9296 149.564
116.3 121.525 86.9255
103.03 195.568 59.1472
81.3887 184.647 167.835
86.8801 191.655 172.234
111.488 94.9249 113.41
68.7916 175.016 104.439
70.5178 173.896 95.3172
259.047 78.1678 143.259
190.835 138.681 201.343
92.5983 186.538 38.9044
137.032 85.3822 105.171
217.303 76.709 113.301
167.14 91.4173 110.478
119.071 246.036 106.501
79.1258 241.077 102.042
88.5305 165.209 39.1236
180.988 73.6983 152.261
101.635 237.828 94.1343
154.896 130.296 214.082
78.7378 242.024 119.76
110.435 139.445 193.705
162.535 89.6391 181.945
145.846 139.211 213.911
80.5795 184.293 51.2785
124.027 179.027 198.11
216.424 80.3068 163.598
235.442 139.86 175.609
88.7517 127.587 112.912
72.9261 220.052 87.742
90.2439 157.551 40.5524
119.164 237.299 105.367
252.396 120.5 139.577
246.975 109.81 170.999
94.6079 182.412 182.023
233.942 76.1161 124.031
120.188 130.778 201.404
109.341 183.157 191.27
103.615 114.03 78.6517
181.047 68.3689 131.487
68.062 210.456 131.418
252.714 111.954 169.943
252.98 103.573 166.846
254.49 121.033 170.729
145.356 96.329 193.378
108.385 228.791 168.878
114.583 107.789 90.527
235.067 112.617 174.091
108.496 113.286 78.6453
148.489 83.4645 119.475
155.029 96.4965 192.967
264.596 128.456 146.535
146.396 71.1546 140.373
118.91 112.689 194.398
127.085 103.323 194.74
122.595 110.067 109.827
92.1193 253.023 97.4128
131.027 155.486 207.66
199.94 84.5645 167.689
73.8639 210.641 149.365
102.368 260.496 99.1202
98.1905 262.004 102.249
225.695 70.6079 121.885
107.7 193.902 188.153
207.759 121.622 186.752
227.619 77.2392 120.227
200.56 91.9836 115.252
198.83 71.5812 113.188
163.45 156.814 211.552
181.823 121.782 204.315
181.158 88.8688 173.105
90.6913 183.596 177.729
207.952 86.3938 113.791
81.6578 200.918 163.507
80.1703 202.871 160.925
107.875 120.613 186.611
164.117 100.443 195.726
100.79 129.585 59.7897
111.857 129.993 68.4774
184.033 148.068 206.015
114.141 163.877 55.9289
114.157 90.1476 125.481
116.946 157.743 61.2094
80.7885 138.432 140.312
241.187 84.8825 134.328
113.726 156.953 56.6821
109.677 148.206 50.9261
118.675 209.1 88.7212
90.7796 238.636 150.042
118.426 166.271 60.2554
177.748 124.766 207.384
80.7459 139.068 131.341
245.232 86.1635 137.348
110.579 157.368 51.0676
110.257 165.854 51.057
187.693 98.6663 180.959
118.378 183.768 193.88
91.2827 213.223 168.724
110.198 175.137 51.4635
253.027 130.49 170.613
97.2557 109.209 138.234
251.496 135.581 171.15
243.88 103.151 169.599
153.883 79.3802 125.422
193.12 88.2973 109.134
76.4084 237.019 122.21
111.877 95.9671 104.672
81.7965 174.662 51.367
119.767 88.2846 104.883
98.4504 174.796 36.223
259.386 120.13 143.519
142.974 79.1084 114.847
69.692 208.42 90.5162
70.1052 213.844 92.8287
253.056 112.279 139.791
90.3448 208.76 60.9529
263.978 120.803 145.752
260.272 126.326 144.02
126.267 149.556 79.5559
270.64 121.56 149.402
92.356 112.527 149.183
168.209 89.5325 109.293
111.064 253.634 101.788
131.019 175.171 74.666
94.626 112.168 140.42
154.461 104.036 202.209
95.2527 106.592 148.8
93.5126 112.767 158.009
96.1792 107.369 143.817
143.481 172.009 205.427
102.801 113.326 175.59
105.034 115.561 181.172
268.474 86.822 148.903
154.772 157.127 211.86
210.667 101.12 122.55
100.898 103.642 158.06
83.5246 156.686 60.1549
99.6934 120.38 176.648
97.8876 129.829 178.817
187.391 122.219 200.216
71.1735 192.967 148.816
83.1665 166.203 51.6973
269.055 119.567 164.787
80.0132 240.036 133.001
127.582 202.416 86.4414
120.276 156.199 201.371
83.9806 245.406 132.042
73.6005 228.362 131.314
81.6212 247.15 113.402
86.3913 252.188 121.832
145.459 109.136 206.367
208.453 69.0196 140.095
171.994 139.44 211.824
72.477 228.241 122.278
179.153 130.432 208.074
87.0908 158.211 172.29
90.2427 139.397 68.7068
180.06 139.178 208.444
179.201 148.159 208.506
172.709 148.178 210.94
258.134 80.9318 154.18
73.4263 174.41 77.9473
100.881 136.933 49.2667
208.777 80.4756 163.582
129.203 237.508 110.647
106.517 148.578 45.3144
101.478 141.217 44.6116
70.1033 191.752 83.8266
90.2978 226.79 80.1941
93.2289 220.882 77.8633
96.0214 189.48 180.839
124.767 236.487 108.261
216.581 148.243 185.027
248.421 74.2363 135.531
215.628 156.148 184.728
223.028 139.595 181.302
207.514 148.225 191.124
221.814 153.141 181.366
231.139 98.445 171.582
90.0571 175.057 178.343
235.07 93.9618 169.091
94.3158 175.21 182.735
90.4831 165.917 177.934
94.7237 167.041 182.601
99.9971 166.355 186.99
91.4014 230.151 158.503
85.87 175.177 173.691
97.6174 108.998 161.36
209.172 94.4788 120.074
80.1492 146.229 94.4849
77.9417 150.147 95.6384
190.561 80.8358 163.232
128.711 184.668 196.246
79.6435 144.68 103.773
76.9744 149.086 104.563
130.429 180.608 199.041
130.993 196.598 82.746
80.9264 147.816 86.8793
100.996 122.419 69.2099
73.2411 156.976 105.387
211.106 138.543 188.379
170.765 162.139 208.95
110.584 211.933 86.1241
101.482 202.837 67.2586
209.931 129.97 188.226
108.73 217.28 89.1255
105.961 142.442 46.1929
119.637 203.984 84.6022
101.507 220.214 85.5376
154.708 91.9885 187.272
128.38 227.701 106.259
154.694 84.7487 176.176
127.96 221.264 102.196
157.392 81.8157 171.088
261.883 121.088 168.488
133.655 166.813 77.7633
127.154 216.832 98.5534
119.581 229.02 102.876
205.865 130.428 190.655
112.032 220.604 93.9003
102.854 175.152 41.6833
268.657 128.7 148.718
77.8091 234.429 138.996
109.707 165.981 192.9
104.892 157.614 189.747
249.159 89.4923 162.775
93.599 121.999 105.359
81.9243 213.973 65.3173
216.984 85.766 168.081
231.882 145.257 177.2
189.857 73.1354 152.643
189.893 70.7381 148.439
113.607 89.5123 140.092
141.386 91.6712 108.996
180.876 76.9159 157.253
88.7282 138.185 169.69
190.784 76.7653 157.908
198.743 70.8725 148.95
235.2 85.6725 165.499
217.146 68.9045 140.496
72.6014 219.654 140.899
102.26 147.932 41.3217
216.001 95.1058 173.66
78.0416 207.493 62.8864
91.4005 148.279 176.026
81.3952 156.247 69.0457
92.3129 139.41 174.603
85.3781 148.049 166.888
122.035 222.508 100.942
86.2801 140.531 165.799
184.116 138.937 206.068
183.423 129.384 205.318
89.0414 137.087 76.5907
105.923 187.924 189.11
102.947 112.537 86.3825
101.511 112.641 95.4513
74.1282 165.756 85.2835
103.68 166.599 40.6381
181.053 76.4043 102.339
100.291 112.479 104.508
126.589 191.523 192.988
240.694 107.743 171.7
110.39 110.632 84.4718
136.343 157.58 209.133
154.798 76.0854 129.912
154.508 70.3802 140.038
146.168 76.6979 122.408
146.426 73.1809 128.872
87.4063 181.256 37.6061
161.832 74.6548 122.322
233.596 122.182 175.854
243.447 120.888 173.444
69.5713 169.052 106.683
261.485 86.2428 155.274
71.887 166.995 96.3849
264.351 83.3362 151.428
70.6179 166.347 104.152
68.8495 184.366 95.8693
96.7948 134.957 56.3686
216.342 103.404 176.651
261.619 78.8583 148.403
71.8218 174.912 85.9662
69.103 168.086 113.194
112.494 237.688 101.42
108.588 236.528 98.6066
243.317 113.623 172.583
68.0575 175.05 122.377
180.934 69.2383 122.31
249.08 114.765 171.723
67.3096 210.617 122.644
132.882 185.177 196.775
133.69 181.022 199.289
178.235 155.253 207.87
162.036 162.75 210.236
82.4933 138.812 113.436
141.523 86.5885 108.762
76.5784 148.754 113.083
130.852 123.42 207.782
104.245 98.5942 154.777
73.0368 157.345 122.742
110.087 95.8368 157.608
71.2718 220.136 95.0745
127.882 211.418 94.2495
215.162 83.639 116.038
182.074 157.148 205.749
85.2772 192.334 44.1065
163.182 70.8674 131.436
125.386 89.8258 99.8967
250.162 121.426 171.942
162.608 70.2021 140.39
91.9112 215.796 168.078
166.552 84.3095 107.684
172.357 85.3332 105.477
74.4268 183.519 69.3427
77.8623 175.317 61.9771
207.875 85.6298 168.643
85.5824 246.154 96.5095
261.714 94.7375 158.67
65.7111 192.691 113.95
74.6681 202.316 68.6382
66.1674 201.365 113.821
66.5158 184.259 122.868
66.157 184.076 114.066
217.169 75.6086 158.353
137.278 120.795 209.75
189.84 68.358 140.954
128.014 175.008 201.112
135.446 111.916 205.334
112.062 120.353 77.8667
126.847 156.814 205.208
116.569 91.6471 158.726
201.893 119.229 188.542
98.8036 208.186 70.3899
85.6112 175.358 42.0478
235.165 85.8542 130.402
118.18 87.6389 113.326
93.1046 211.732 67.6957
145.421 104.423 202.614
136.668 77.9284 157.825
119.152 85.7074 122.582
134.389 183.215 78.2022
156 99.7241 197.44
155.29 139.056 214.432
129.018 88.6042 174.804
123.177 81.3865 138.643
136.433 86.3551 176.263
263.958 104.321 145.419
127.162 86.4651 167.068
180.485 97.6955 182.386
266.603 88.0474 144.466
164.636 82.5795 169.617
266.2 81.0293 147.823
133.489 215.625 99.6762
75.3105 165.946 78.8707
99.3332 166.274 35.7826
261.674 85.9724 143.286
88.024 241.264 144.553
208.474 68.6634 131.905
99.6167 175.156 187.07
106.537 100.125 160.962
199.117 68.7077 140.317
163.102 76.3371 158.923
129.362 95.6287 101.741
110.62 228.07 96.9609
89.5083 121.327 140.492
125.636 158.93 71.1101
171.95 70.397 122.497
252.622 85.541 140.303
70.3374 222.515 123.215
188.67 130.401 201.35
207.432 77.1508 106.946
92.9214 251.213 138.239
121.043 109.103 105.751
143.745 99.7939 197.503
136.174 75.467 149.051
106.998 189.292 52.9103
118.957 86.8713 148.951
71.393 192.842 78.066
70.672 164.43 123.101
183.351 78.8174 100.096
71.8358 166.148 131.284
243.695 103.232 137.195
86.4389 150.136 60.7963
112.67 185.62 58.4387
259.425 103.774 143.991
87.9145 145.755 171.003
113.107 147.756 58.4042
120.144 213.189 92.756
190.59 103.469 185.03
81.4938 139.037 122.516
118.237 218.851 96.3937
106.755 156.692 44.5517
112.238 121.61 191.684
93.4466 203.852 58.069
271.038 112.963 149.368
77.1849 192.608 60.0408
77.5797 201.866 60.7557
212.611 77.4003 109.031
270.173 103.021 148.369
115.843 225.675 99.3464
187.609 107.021 190.361
180.368 105.372 192.983
128.378 77.9906 140.89
182.982 110.836 196.748
193.664 109.428 188.58
181.948 101.054 186.322
127.912 78.6028 131.336
112.027 97.8266 165.892
74.1148 192.304 68.8983
135.533 80.0003 106.226
109.248 191.275 61.165
118.863 85.008 140.332
123.596 81.9167 144.175
99.7796 157.378 185.82
101.465 139.754 184.786
106.458 165.725 45.0155
105.966 175.537 46.1732
