ply
format ascii 1.0
comment Created by Open3D
element vertex 1997
property double x
property double y
property double z
end_header
174.573 69.5018 161.106
121.34 132.159 89.8358
184.461 168.654 205.586
148.353 256.338 125.585
174.914 114.183 205.054
138.807 203.003 89.5915
130.727 140.801 97.2851
86.0099 130.553 169.76
149.097 105.13 205.555
122.247 186.488 71.0241
121.933 170.877 62.5584
129.78 78.1227 115.108
94.6407 229.536 81.2984
158.218 176.571 134.459
77.1843 159.179 160.598
94.59 113.873 170.558
237.832 160.196 151.921
237.698 154.022 151.756
103.899 146.605 196.439
94.6197 113.872 124.721
103.902 230.054 89.248
183.513 105.427 196.424
202.052 194.388 133.928
157.909 176.113 97.6486
85.7733 149.243 62.31
125.23 265.68 134.383
175.978 149.545 151.806
86.1953 123.301 136.625
85.9948 122.55 141.763
139.749 247.727 152
211.105 150.117 196.602
119.968 230.017 169.819
201.843 86.9193 134.501
104.159 105.689 108.196
149.069 167.455 98.0501
148.391 176.738 125.163
255.443 95.4763 187.874
76.8228 239.345 97.5755
95.2015 256.287 133.705
77.3932 219.816 151.464
68.2044 176.027 146.115
68.2838 176.63 132.389
147.88 124.236 116.399
220.076 123.537 196.529
113.347 203.052 187.304
238.061 177.033 160.267
77.4146 169.178 63.664
174.715 220.56 147.225
85.5325 165.634 43.9836
190.959 77.967 178.936
177.081 177.702 205.695
210.506 94.1457 143.206
157.808 240.016 124.549
214.004 79.8812 186.594
237.25 167.007 152.349
119.005 203.853 187.909
139.751 265.743 124.52
86.7584 247.055 90.2913
113.432 178.514 53.2632
111.947 178.032 197.068
95.3275 132.467 63.5346
130.055 149.973 116.957
111.93 238.997 161.093
122.522 137.054 213.773
113.226 130.338 70.645
95.1934 123.111 82.5457
123.475 88.1995 176.905
174.208 211.66 168.845
210.236 176.189 187.246
149.049 175.526 88.8282
195.998 70.0653 169.117
264.327 104.577 182.523
165.774 193.144 109.039
93.6359 239.079 152.349
131.134 194.443 80.2628
156.313 228.024 116.882
139.246 158.935 90.0099
143.84 132.718 116.117
166.706 230.851 145.251
103.745 139.347 196.569
95.3199 114.7 118.371
119.966 186.068 196.895
111.468 257.204 143.397
105.201 237.916 160.337
184.404 74.667 116.19
126.138 220.381 178.359
125.223 80.2469 120.281
264.461 185.785 194.962
86.5999 141.911 73.9546
68.5478 168.802 123.501
121.015 95.9612 188.083
140.244 212.448 98.2964
255.644 77.992 178.248
96.4007 213.433 70.1987
174.417 159.096 161.217
76.5342 181.019 60.7416
104.791 204.392 70.7011
104.121 153.57 195.994
77.0998 148.651 97.9931
212.323 144.308 196.955
95.79 106.012 158.999
211.24 148.521 133.916
166.94 221.593 161.376
114.269 229.649 169.256
125.182 230.052 169.968
133.196 239.5 161.352
103.384 193.585 55.0485
104.122 105.529 177.899
112.936 158.041 53.4133
85.5646 130.865 114.207
246.707 177.071 169.325
112.5 144.506 205.827
210.558 107.853 143.144
237.601 69.1581 160.45
237.758 70.6301 160.454
86.9157 133.38 93.5441
184.656 185.762 188.617
238.283 113.392 196.545
112.356 251.567 98.6914
112.384 244.839 98.7251
105.344 255.951 141.899
76.7391 158.115 80.0167
76.3776 166.448 69.5743
152.71 176.765 124.787
113.174 124.502 204.959
112.603 129.863 205.55
157.915 149.718 124.744
229.293 176.988 151.391
85.1087 195.869 44.1997
77.2187 220.753 72.1558
245.914 146.516 161.389
130.459 176.768 205.528
68.2914 177.197 138.228
188.276 69.0325 123.358
84.7283 248.955 129.085
143.944 115.177 213.554
129.197 161.781 73.841
148.898 257.106 130.79
119.997 202.345 81.5333
114.255 204.051 79.3563
246.008 97.6946 170.231
81.1907 163.549 57.0695
181.068 69.0727 123.182
188.808 67.9035 129.242
224.219 70.3527 177.381
233.533 163.641 192.55
241.464 154.08 193.533
242.048 163.571 193.058
149.793 159.597 132.9
102.477 131.439 53.1405
143.933 184.006 204.366
122.53 106.23 106.244
144.283 72.3014 156.865
211.419 69.4455 133.677
144.069 104.9 205.644
169.895 80.8778 175.515
102.357 222.004 170.191
79.0866 236.924 139.946
128.616 102.817 108.625
67.7442 213.622 135.971
68.5815 219.925 131.326
83.6818 163.35 49.9961
96.0004 135.998 186.179
95.5439 145.677 186.577
191.703 155.499 204.605
185.369 78.8636 178.075
232.086 182.764 185.299
238.798 191.43 186.801
170.485 178.749 206.286
85.1909 231.017 152.948
96.1012 172.202 186.713
131.57 122.353 116.463
152.464 71.1985 155.901
205.59 127.348 199.415
165.374 148.754 150.97
205.363 153.476 198.223
145.174 236.994 159.544
162.427 153.551 148.224
172.429 177.094 119.06
238.986 186.518 168.804
68.1284 198.752 88.6533
163.881 180.092 102.004
179.059 205.446 172.726
82.0125 153.978 67.338
87.9583 136.15 174.746
172.29 200.272 184.573
242.294 91.9671 190.684
91.4332 109.802 156.518
110.694 248.436 152.458
144.368 228.132 168.06
206.01 146.449 131.987
248.672 118.219 166.988
82.6333 233.363 78.7545
253.351 116.835 171.389
252.406 108.586 172.23
64.7988 207.724 120.863
78.8703 171.554 58.2048
241.119 127.436 195.258
67.1174 189.825 94.8785
117.802 171.657 57.8842
86.6607 171.605 177.746
100.692 129.128 58.8569
161.95 99.1677 194.359
127.137 115.849 115.682
144.029 179.379 207.462
130.222 150.098 115.025
152.424 155.159 128.986
78.8012 208.236 158.542
245.637 135.398 161.813
84.8899 196.224 170.534
198.539 82.6618 128.509
107.952 266.134 98.0578
241.566 68.3076 172.657
75.5384 171.985 67.564
116.693 269.283 103.208
214.856 163.113 192.037
150.068 250.887 122.558
224.525 67.5349 147.314
206.334 155.223 131.693
161.427 145.402 217.983
97.2491 264.236 101.927
171.241 135.68 165.484
178.892 145.328 164.475
231.232 119.208 196.403
87.2132 172.095 38.243
64.4373 199.07 129.923
208.982 182.108 173.56
171.324 183.434 204.167
152.42 171.752 138.956
154.078 101.243 146.038
84.0624 128.199 129.832
83.0452 136.426 111.615
178.162 118.255 156.885
192.675 87.049 187.573
197.882 145.659 129.836
125.479 90.9116 183.29
249.109 74.0652 174.44
170.13 147.382 150.714
145.403 252.984 119.101
206.36 171.927 126.812
199.817 92.4875 135.391
79.9958 136.278 129.769
110.228 153.945 49.0456
177.613 120.273 206.778
186.152 191.345 156.356
144.21 189.088 200.042
249.354 153.787 166.119
180.153 190.714 148.484
205.862 91.6995 139.275
249.958 136.534 166.512
96.4483 107.209 137.635
185.432 192.822 147.707
253.674 154.382 172.141
96.6078 126.724 184.691
144.02 193.827 196.07
206.518 145.188 198.9
163.585 135.924 163.019
151.166 214.638 105.077
82.7794 204.264 52.6847
94.0048 102.971 148.651
191.729 135.148 204.842
87.8393 182.081 36.9995
197.253 135.493 202.95
253.13 163.037 173.275
143.127 166.116 213.841
112.957 260.615 98.3308
233.711 66.2991 164.906
181.254 161.457 163.83
109.907 172.416 49.2906
84.3551 127.157 164.615
146.66 162.243 123.181
207.452 84.1774 137.009
205.549 173.553 166.233
101.086 108.988 112.081
147.495 172.619 124.744
84.7914 216.274 162.223
179.631 171.055 129.776
112.237 136.056 205.904
212.745 119.496 142.215
159.936 174.352 104.22
151.241 164.488 112.237
154.636 170.56 102.131
150.16 165.02 103.946
125.19 253.976 148.768
165.653 176.704 109.891
258.524 145.46 176.503
116.892 91.5126 174.201
155.289 179.838 91.6465
207.146 181.61 128.152
204.668 189.104 131.011
165.25 226.537 127.684
75.8649 146.444 129.899
104.527 97.1067 136.156
236.68 76.0588 161.918
162.098 127.59 120.775
204.165 137.292 133.386
240.271 68.052 166.556
217.348 162.042 135.069
76.8092 174.708 62.1403
100.669 181.172 38.5917
235.06 126.809 154.017
181.463 164.802 132.545
244.08 117.704 163.004
104.251 194.145 187.553
233.352 118.302 154.394
239.491 118.851 158.954
110.329 171.167 197.987
106.564 172.506 194.418
107.214 144.554 200.191
67.0187 216.781 102.75
158.584 205.242 105.493
117.646 154.266 208.373
74.3163 162.748 83.8255
113.503 155.866 204.709
80.917 244.182 130.207
126.463 200.452 83.0309
208.184 68.9929 171.144
110.337 154.821 202.01
99.7501 153.898 191.243
105.106 164.592 195.215
74.9362 233.243 137.099
110.007 162.021 200.325
74.081 234.409 130.022
239.555 116.74 196.58
85.151 156.418 51.907
91.3851 145.034 50.289
87.4653 152.704 49.6794
184.992 87.6539 124.868
91.228 154.881 39.145
91.27 180.801 34.254
160.957 151.684 129.776
93.113 112.013 163.977
253.854 181.822 180.927
249.371 180.806 174.927
254.866 174.771 179.263
162.524 165.019 213.683
197.73 73.6825 122.212
251.759 172.603 174.585
251.512 198.163 190.296
179.441 100.838 193.982
153.093 199.3 94.1141
259.765 171.9 195.239
171.514 73.8439 119.193
88.356 127.205 111.417
126.435 235.034 166.004
259.404 172.05 182.732
189.028 91.9756 190.208
63.8986 198.724 120.584
209.273 178.538 167.312
164.828 207.673 118.275
67.2902 216.313 129.472
211.757 186.982 163.915
74.9184 172.254 162.846
170.695 91.3543 122.863
75.4679 153.814 94.0462
207.053 66.1561 155.402
118.474 99.8268 191.44
215.171 109.106 145.488
143.772 92.4774 191.434
214.496 65.721 155.391
144.744 101.274 201.101
166.774 230.908 140.07
92.7034 111.468 138.998
211.242 88.4581 142.615
129.948 172.989 72.5784
152.482 101.539 200.124
153.442 97.2622 195.518
135.839 180.39 78.0736
179.417 109.312 200.299
222.935 171.64 139.794
186.637 136.101 206.408
186.144 130.015 205.799
154.534 98.1401 129.652
95.641 115.494 176.365
180.681 116.896 203.911
174.205 192.106 171.462
143.632 179.979 137.248
201.701 167.243 196.167
108.004 100.407 175.165
153.482 226.377 165.682
98.5414 236.176 158.489
142.587 155.937 111.175
104.567 140 44.3331
126.255 262.564 138.646
133.062 204.287 88.6299
217.38 115.364 196.403
232.12 192.094 172.768
130.716 96.7907 107.255
101.039 232.438 162.921
98.1757 118.209 183.535
117.26 109.978 201.132
114.628 117.729 204.002
144.336 137.326 117.034
152.493 252.434 129.686
119.473 182.999 65.1344
128.041 144.789 118.371
106.718 120.525 68.957
127.6 137.164 103.175
161.127 179.62 207.21
227.789 186.365 179.416
179.378 82.5457 119.434
100.373 249.529 146.197
188.596 127.515 130.753
72.6963 154.09 111.732
89.9811 110.214 146.964
108.989 251.732 148.418
181.286 93.531 126.223
65.6296 180.771 120.806
225.816 100.38 154.388
160.92 94.2534 189.555
170.689 85.2251 180.858
100.478 252.506 91.2104
154.645 217.039 109.631
259.511 145.465 193.307
131.106 157.084 79.3439
123.643 243.044 106.03
178.743 89.6195 186.312
145.662 108.579 117.364
170.655 89.9602 185.452
135.687 127.414 217.74
207.609 135.557 134.798
161.83 125.575 150.676
108.918 208.315 183.269
91.3432 172.161 33.5656
169.933 94.0844 188.854
85.1038 120.454 148.576
260.732 90.9525 182.959
163.506 76.1106 123.086
168.839 70.2769 128.072
264.506 110.523 183.853
171.933 68.77 130.777
127.609 154.664 76.5368
152.901 188.459 200.784
121.415 86.7057 106.814
220.88 68.594 141.956
144.331 234.275 112.959
173.194 191.361 165.682
222.765 180.209 147.634
152.609 225.671 112.89
104.803 97.2326 157.782
144.755 226.966 109.446
108.324 234.081 164.196
86.4961 201.997 169.427
81.8403 244.013 94.153
171.273 216.635 129.706
80.2469 235.336 83.9239
196.82 200.564 156
154.042 244.097 147.527
203.667 196.051 139.775
160.355 232.403 155.005
193.77 69.3122 124.448
170.614 100.093 193.793
111.552 94.2456 112.122
209.199 192.949 147.614
101.306 120.995 69.5618
73.681 153.737 102.911
197.328 201.401 147.657
156.705 247.024 140.083
88.3089 162.627 39.3349
99.4952 261.375 129.6
101.737 187.678 188.298
196.864 171.485 125.938
109.664 197.338 188.338
246.595 72.4909 169.511
188.306 136.607 129.404
206.32 107.998 195.993
108.389 189.464 190.325
104.628 185.954 44.4598
118.64 85.2367 121.249
135.01 74.7645 156.655
256.007 187.734 186.737
188.536 111.104 198.52
85.3184 122.072 161.89
231.082 92.225 159.057
168.492 143.815 155.697
257.81 180.414 184.98
260.39 181.369 192.648
138.238 228.457 108.092
205.997 91.4491 191.795
95.435 141.274 46.2879
259.424 189.749 192.957
165.657 229.87 151.479
214.474 188.153 148.359
144.612 71.3211 147.665
198.18 163.038 199.406
198.18 199.243 138.553
156.041 246.253 128.589
210.392 100.949 143.289
190.452 196.875 139.359
186.04 192.447 137.696
101.073 127.448 191.275
179.297 80.0217 177.129
196.466 196.198 131.36
152.591 243.179 121.095
215.437 100.774 146.508
132.91 267.487 113.508
171.868 199.34 147.265
97.7648 108.466 130.281
144.486 73.9071 138.482
159.581 176.675 124.634
161.341 175.544 120.706
75.98 190.175 162.263
226.231 84.1839 153.614
233.267 144.977 193.785
195.813 188.814 180.841
218.548 128.833 196.289
161.559 100.835 124.155
232.976 153.826 193.397
93.496 146.894 41.9811
188.97 100.411 131.301
79.7933 217.135 66.2399
110.206 163.232 49.1522
180.826 127.693 127.994
223.818 127.575 195.823
130.744 140.704 99.3151
162.083 128.01 163.309
224.233 144.703 194.251
93.6774 121.563 104.098
170.458 67.6517 147.793
187.074 178.779 199.315
105.903 117.943 194.23
94.0779 202.69 54.7569
144.538 127.373 115.949
188.885 118.689 201.463
119.263 108.673 102.687
69.2276 217.494 93.1316
142.486 154.435 122.436
200.146 173.603 171.135
113.736 195.51 70.7974
183.609 123.629 205.158
239.711 170.913 157.811
124.864 257.899 144.678
160.724 73.8907 129.748
233.354 117.664 196.584
178.65 145.627 157.872
84.547 181.426 40.6221
82.109 198.831 49.4982
198.827 173.616 194.812
196.548 127.993 202.147
83.2043 207.313 164.01
104.472 126.603 195.62
154.104 235.161 118.413
211.978 73.4576 132.402
134.475 235.29 109.818
111.092 192.494 64.6492
78.556 172.375 167.271
233.547 136.746 194.464
71.3987 225.577 93.852
250.123 92.75 188.983
125.249 136.23 112.367
221.014 71.7253 141.274
157.267 122.993 151.606
122.741 128.745 112.878
142.395 242.78 114.964
161.831 154.229 216.581
69.2342 226.031 101.587
98.0963 189.998 185.736
194.713 175.88 125.073
66.1929 207.447 103.024
71.9605 208.41 76.2235
67.832 215.151 96.8316
141.015 156.026 95.8569
115.963 108.741 94.0166
152.805 179.49 207.92
159.477 127.583 155.869
124.4 80.4034 156.867
91.9818 162.778 33.9178
243.611 118.511 196.224
215.215 175.564 186.824
79.6718 153.757 76.1473
189.241 163.561 164.997
70.9014 190.086 75.9689
84.1907 137.692 94.7822
76.6452 195.823 161.581
93.5679 127.753 180.653
98.7051 163.134 33.5857
98.8515 126.316 66.24
75.5049 163.157 77.5248
179.826 75.0758 116.002
205.328 196.03 156.038
164.052 235.206 138.506
72.2948 225.263 138.821
162.194 106.939 203.457
238.896 110.48 159.893
79.5851 226.591 75.0836
84.7313 120.885 156.379
189.285 106.175 195.94
143.607 163.193 94.0864
179.111 171.906 206.682
99.1911 109.3 120.517
87.469 116.279 157.22
152.709 89.4982 185.162
134.722 136.614 118.161
126.203 224.659 101.394
89.2173 251.908 93.4579
180.372 155.615 147.057
244.393 197.45 188.288
80.4741 217.103 156.917
161.99 136.736 120.824
210.178 141.76 134.249
170.49 146.083 127.048
188.751 82.0497 122.02
223.355 146.062 140.33
119.141 154.468 65.2762
107.442 264.06 131.365
160.313 145.022 122.743
108.992 224.001 171.602
111.433 103.642 189.594
151.928 75.2433 165.324
134.899 118.082 115.537
126.341 189.967 75.699
83.7975 145.635 76.4979
143.438 136.163 219.396
218.469 184.235 146.562
172.697 198.587 156.591
206.081 135.979 199.507
215.198 154.236 135.202
70.6254 198.412 76.6881
206.669 180.598 183.043
217.155 136.857 196.045
161.07 109.824 122.847
109.955 101.747 183.001
251.322 172.565 193.4
223.456 180.96 156.251
172.864 192.997 138.96
188.434 144.794 128.774
198.682 191.46 127.641
259.111 110.295 190.829
140.476 100.766 115.784
208.616 190.611 165.785
76.4238 156.364 84.8555
160.85 224.343 163.178
129.376 261.305 108.151
180.487 190.367 182.769
248.448 161.763 166.56
144.555 162.211 215.429
135.513 216.093 181.359
121.168 86.9705 170.189
135.374 145.301 217.895
171.298 153.392 138.764
156.576 113.027 152.345
120.565 112.832 205.977
125.986 120.476 117.206
179.814 182.579 112.249
213.012 82.036 140.701
176.757 213.229 163.285
115.546 89.898 165.636
224.383 163.262 139.299
227.017 173.587 145.133
115.341 154.545 58.7809
211.441 154.67 133.831
83.2007 180.791 173.319
217.007 182.907 157.518
135.038 267.172 129.585
173.213 197.718 165.072
267.366 179.579 194.372
247.758 86.0671 187.796
223.572 109.878 150.074
93.1883 128.498 76.7519
112.129 144.657 55.6088
213.494 179.897 165.463
241.366 73.4059 165.696
127.353 128.025 215.242
144.899 91.9167 120.347
69.4624 226.405 112.452
100.372 191.822 48.1464
65.2445 206.587 129.899
248.234 109.737 167.504
81.4263 136.394 120.762
117.922 217.156 92.4055
106.042 153.963 41.8199
185.543 190.528 165.075
188.004 197.745 172.89
87.3367 125.001 120.17
74.2137 216.788 75.6158
195.501 79.9941 123.724
77.554 150.426 91.6235
232.885 109.783 156.666
265.648 127.708 183.692
117.245 271.386 120.944
213.263 180.261 132.245
163.505 216.625 119.416
65.2469 190.25 129.75
259.033 91.6231 177.114
68.4055 180.566 150.904
144.527 219.096 176.766
114.473 136.756 67.4404
167.933 224.297 130.562
67.8458 222.514 103.294
67.145 180.461 129.431
150.795 232.533 115.086
198.833 192.777 176.41
102.07 119.818 190.028
115.137 90.2701 111.202
129.357 122.303 214.507
175.402 203.341 178.664
143.721 197.649 86.9404
185.11 157.246 162.647
161.225 174.365 112.216
259.3 136.239 176.021
130.992 86.7198 106.863
151.586 181.926 86.6509
102.319 111.71 93.8847
65.5707 189.97 102.147
126.767 270.053 111.737
108.03 136.608 201.393
76.1143 240.724 111.45
170.504 135.866 155.437
267.216 173.969 196.625
71.5267 181.288 76.8714
143.441 216.35 102.191
136.582 229.216 169.195
93.3435 258.035 128.185
180.331 161.459 157.253
173.298 191.364 156.939
143.949 199.322 192.438
84.3156 241.02 86.5386
90.3107 198.117 174.627
127.391 110.746 207.65
134.839 243.287 112.073
244.768 183.259 171.223
101.758 243.283 90.9207
174.103 136.896 125.541
260.198 136.172 193.07
92.1763 189.19 181.168
227.961 176.743 187.858
180.013 110.002 128.546
169.356 70.1417 159.352
179.236 201.833 158.343
67.11 189.983 139.181
251.329 154.094 193.623
197.903 100.643 194.338
152.318 172.51 121.774
135.626 252.966 147.831
179.802 146.142 128.403
113.51 106.174 195.462
232.034 170.858 148.679
105.308 171.933 42.4691
142.516 76.1666 130.152
206.655 118.269 139.586
109.368 116.934 75.8856
73.4653 163.133 157.218
66.5637 198.914 137.843
267.119 145.124 190.621
80.7805 207.96 57.9091
163.628 174.962 130.973
101.942 201.693 64.1562
119.942 118.459 112.345
105.173 98.329 130.27
197.904 68.3197 164.803
161.569 188.278 201.068
186.514 161.406 160.104
70.5233 163.468 147.544
251.555 126.611 194.684
117.164 261.231 101.001
258.4 100.149 176.848
72.7766 234.593 102.863
223.355 155.084 192.974
90.8907 163.548 181.999
179.026 208.046 147.884
232.511 146.099 147.678
75.406 224.494 145.598
76.2212 223.535 77.1172
161.241 111.228 208.011
184.811 157.133 159.168
224.699 153.672 139.453
82.8497 224.983 155.156
109.071 93.3776 129.969
215.555 154.427 194.308
112.296 133.177 64.1935
250.162 145.085 166.471
102.159 209.943 73.4683
134.557 182.627 203.316
132.024 105.556 204.753
179.439 188.5 120.024
178.142 176.089 124.42
159.482 242.971 138.756
204.208 195.468 164.395
75.9875 144.985 138.54
107.009 227.6 168.474
163.923 148.326 126.509
78.5773 162.645 66.621
247.382 172.696 168.544
175.887 194.792 188.599
125.979 127.135 118.124
108.796 234.442 94.4575
98.2017 155.15 34.9679
202.15 194.65 170.315
146.341 165.272 136.218
114.791 162.993 203.88
142.429 154.989 103.284
170.286 205.034 180.503
179.606 186.433 165.719
127.588 144.808 215.469
117.146 272.299 111.922
235.916 98.7359 161.926
70.9472 171.653 156.745
148.891 257.088 134.754
143.967 77.8953 170.837
241.296 136.15 157.382
240.808 163.382 156.165
177.016 197.659 181.634
77.5296 201.648 160.006
231.995 101.299 158.735
177.54 187.336 198.843
134.682 101.415 200.724
255.803 168.613 178.178
125.56 234.072 105.153
233.667 73.4672 156.387
90.2929 189.668 39.5637
204.282 81.3309 131.46
137.271 179.956 129.467
101.933 102.712 130.568
68.9419 171.262 138.799
67.8805 175.207 127.272
188.814 83.0311 183.032
269.012 172.096 193.685
235.368 92.0826 162.753
260.543 127.09 192.704
83.8336 136.86 103.349
232.517 127.841 195.558
164.747 160.35 153.934
134.185 172.54 77.2327
170.688 172.598 130
91.2965 233.812 155.439
136.886 161.777 84.6272
123.924 252.733 105.931
154.494 115.91 213.08
198.334 101.271 136.105
67.0032 207.335 136.812
266.875 136.348 190.279
153.36 127.31 117.524
78.8463 226.752 149.151
251.258 76.1711 181.451
160.18 177.132 129.054
179.786 182.568 201.99
266.361 154.047 185.272
224.475 118.647 148.764
74.7145 179.25 162.568
220.565 120.967 196.516
108.281 216.345 84.996
79.1794 180.792 167.975
117.674 225.119 173.466
187.251 190.472 174.732
93.2364 258.164 96.8023
117.602 118.552 93.8408
207.602 191.324 137.31
158.959 112.967 152.688
135.84 120.606 215.823
188.059 68.5704 163.327
67.8808 181.519 146.653
99.4535 216.464 76.7995
152.118 178.667 129.767
108.316 243.467 95.7849
233.328 99.7868 193.814
207.45 66.2373 148.298
213.506 135.962 197.074
151.534 151.164 123.988
179.167 163.167 208.794
159.323 241.818 130.437
113.986 146.206 59.5577
197.244 91.5339 190.955
73.6979 217.052 147.513
233.252 67.3543 157.009
222.455 81.9511 149.411
96.5821 223.234 79.2559
126.496 136.672 118.502
180.34 206.74 155.831
105.018 131.303 53.0907
117.084 190.474 192.952
241.165 198.148 176.625
109.158 144.91 48.9555
117.956 207.945 85.2403
153.452 184.382 204.513
87.5605 255.04 101.338
144.4 189.99 82.7046
108.984 127.573 201.167
77.3119 141.324 139.233
74.9416 207.451 66.9655
266.489 135.805 184.197
65.014 207.531 112.34
66.7389 216.898 112.183
135.212 189.559 79.0621
152.711 153.567 218
205.073 189.471 173.083
96.1006 116.07 110.816
118.637 118.574 102.891
92.1014 259.87 120.235
109.357 100.272 102.574
98.6498 233.824 86.3883
106.118 100.052 120.512
147.757 88.499 126.626
179.143 71.3277 166.103
169.144 119.426 124.257
85.2443 239.697 143.696
93.9312 196.589 179.447
133.81 146.572 94.2633
163.393 135.316 156.763
111.599 112.044 197.6
73.8767 198.424 156.356
205.024 196.495 147.722
97.6146 242.633 87.7298
162.447 235.004 130.024
233.293 74.319 182.771
135.779 152.263 112.64
195.62 188.311 123.265
90.6172 199.587 48.4589
116.566 189.73 68.0633
188.121 91.6007 128.512
125.583 181.307 201.534
267.829 163.103 192.187
236.07 135.499 153.092
215.402 75.0553 182.473
94.7848 122.483 88.4249
123.974 174.692 204.554
133.625 116.388 213.143
246.617 194.771 178.487
188.585 66.9396 138.017
100.8 136.892 192.733
180.574 155.871 138.696
91.9193 250.518 137.103
135.303 234.425 165.064
106.971 187.511 49.4859
117.382 83.8949 147.426
163.83 69.0391 139.842
76.2349 231.625 86.8082
257.277 101.641 188.874
134.577 73.7458 147.859
216.447 144.992 195.622
170.891 151.725 131.893
159.99 70.8549 137.615
94.4084 122.201 94.3855
188.926 182.417 190.953
134.17 163.805 213.072
206.319 67.5397 165.251
107.311 129.002 58.5449
116.994 267.963 129.505
188.019 101.21 194.033
179.575 189.703 191.467
197.449 162.087 127.929
195.663 165.451 165.64
134.957 243.642 157.248
188.486 66.9657 156.796
197.67 107.279 195.915
206.165 162.352 128.019
188.571 66.5747 147.301
248.933 198.225 184.286
120.328 111.632 109.6
146.52 244.767 117.311
155.279 108.068 140.253
126.608 102.561 199.236
73.1624 153.792 121.187
100.899 205.932 180.505
143.805 146.128 120.499
68.689 172.269 148.381
188.535 110.048 131.998
111.042 93.8609 165.123
179.824 188.215 155.678
241.401 145.858 156.361
79.5983 190.889 166.54
179.971 83.676 181.197
114.607 101.703 96.2934
196.798 196.366 173.04
135.429 85.7242 180.812
86.9666 116.62 146.947
203.275 161.655 197.184
251.101 82.9524 173.877
143.498 120.57 216.54
124.548 163.758 67.5454
152.917 94.1469 192.166
152.888 127.073 217.614
170.524 67.9797 138.263
152.587 91.5475 138.019
76.6078 205.208 61.8232
77.6831 159.63 73.6501
123.32 138.172 87.2587
139.335 104.853 205.498
87.4262 134.711 85.2622
262.333 145.819 180.035
127.984 243.752 108.732
161.33 90.2827 185.331
133.866 96.9725 195.594
113.592 88.228 129.428
179.397 66.9615 138.067
224.688 65.288 155.354
150.566 203.999 188.232
171.645 151.648 146.11
180.166 161.635 138.24
161.404 207.818 112.395
234.59 178.889 188.636
73.1654 171.828 77.032
99.9847 135.572 49.2812
98.7532 117.683 84.7079
71.9619 189.984 156.613
199.449 170.122 166.842
133.562 248.651 152.886
84.1643 189.531 172.233
205.821 118.284 198.192
221.503 137.023 141.451
71.0128 180.597 157.095
180.267 100.135 127.539
179.217 188.649 173.918
178.538 90.323 123.957
117.34 127.595 209.311
158.58 195.71 96.8443
124.939 179.458 69.0515
78.416 152.148 84.4232
258.868 109.766 176.666
116.71 144.592 66.8571
154.732 100.63 138.261
128.557 181.134 73.522
176.407 138.64 159.067
152.56 101.127 123.011
98.7185 188.411 42.3512
118.375 119.293 207.568
169.81 175.931 122.407
107.563 252.26 95.4581
215.316 91.8275 146.317
126.305 171.846 68.069
94.19 112.766 131.009
259.872 118.553 176.225
235.582 83.2401 162.805
215.134 68.1189 139.614
90.902 172.628 182.479
134.66 135.852 218.242
95.9855 163.636 186.784
240.426 127.991 158.274
143.639 127.47 218.417
249.209 127.526 166.432
135.686 172.562 209.393
157.937 222.263 115.67
173.347 206.277 137.416
153.124 145.72 120.724
85.2181 136.84 170.683
169.867 127.489 123.883
260.734 163.937 181.466
80.3589 189.809 49.1721
117.225 261.986 138.692
265.459 127.084 189.81
67.8664 181.833 138.672
174.273 203.825 145.267
134.717 153.66 216.391
242.119 101.353 165.718
242.275 74.2552 181.912
136.771 160.263 214.914
175.782 123.643 157.176
116.697 172.175 202.154
171.457 120.67 156.898
199.576 125.679 134.707
213.674 163.192 131.587
163.218 227.622 157.663
212.746 187.427 139.659
196.057 127.876 133.173
86.4059 159.117 45.6997
100.722 258.129 135.913
124.813 98.2311 193.667
151.212 189.123 86.1623
135.85 92.4108 110.948
97.4658 208.319 176.409
211.346 113.879 196.639
109.272 260.129 138.396
196.87 111.618 197.378
117.154 252.58 101.69
176.86 139.061 163.798
126.012 119.203 211.77
117.702 242.87 102.118
84.6405 129.321 121.832
205.606 101.095 140.293
100.587 100.706 139.127
224.352 110.096 195.721
200.827 180.924 125.38
89.0055 232.788 78.8471
267.337 154.917 191.076
253.75 145.203 171.314
143.948 145.321 219.138
135.068 198.701 192.472
108.837 269.783 120.286
77.789 152.56 158.939
235.895 113.447 196.545
242.009 100.54 193.167
119.444 192.492 73.1121
205.698 108.927 140.358
265.056 169.609 186.867
241.835 109.926 195.56
76.0675 240.275 103.139
223.83 99.8208 194.274
96.01 264.816 112.416
117.287 198.869 76.6973
171.96 180.505 110.21
188.268 118.491 131.764
242.085 189.899 173.62
68.8608 198.38 84.3191
67.1505 198.629 94.6796
142.314 82.7877 120.98
76.5166 214.453 152.981
107.9 207.163 76.7592
145.665 96.9446 196.073
215.289 66.2826 146.941
126.798 94.6548 189.996
142.866 172.476 85.9055
189.609 127.135 203.981
88.8717 195.921 43.886
118.385 99.742 100.177
197.327 198.665 165.442
197.211 144.985 202.681
113.913 186.878 61.0244
74.0998 225.33 85.0741
159.424 110.424 147.082
142.755 171.78 128.144
101.462 110.978 103.029
88.9661 117.761 138.537
110.28 226.077 92.5055
88.2161 222.485 70.5476
86.8742 255.769 111.476
180.392 152.587 131.497
110.44 102.625 94.9899
108.108 92.2569 139.572
143.987 262.03 129.874
120.806 124.91 103.023
144.013 153.619 217.78
113.208 162.365 53.395
111.076 93.3652 120.369
140.029 258.096 115.729
135.86 205.371 188.889
117.213 127.054 85.2102
107.221 100.422 111.233
190.615 184.496 184.71
142.021 223.491 106.341
97.1907 196.568 51.1132
151.449 172.954 94.2283
134.812 225.199 173.277
183.008 184.678 195.248
188.856 187.536 180.928
116.992 135.89 210.075
67.4726 207.335 95.1734
69.4756 208.244 85.4709
82.174 222.897 69.882
156.479 117.548 152.681
161.129 118.199 148.522
257.662 153.953 176.802
154.056 109.861 147.968
155.417 116.981 148.571
233.296 172.739 190.593
171.489 188.415 200.35
245.399 83.2336 170.421
173.08 219.087 157.268
116.646 219.667 177.409
90.1694 243.016 85.607
251.913 190.084 182.376
197.327 155.265 131.201
143.406 181.403 128.755
146.534 160.707 102.665
110.281 118.975 199.998
73.5652 199.37 67.7036
266.663 145.372 185.077
64.2231 199.195 112.173
204.237 177.645 189.246
202.855 173.854 170.517
161.871 163.715 146.356
263.328 175.042 196.539
136.539 152.125 120.316
152.001 71.3115 146.563
198.049 109.23 136.179
179.35 93.6058 189.545
143.815 223.996 172.291
108.127 197.989 67.4683
110.81 201.365 73.8373
180.229 160.818 147.281
90.334 216.806 67.0151
241.091 145.175 193.739
251.654 136.181 193.695
125.817 109.161 111.633
171.813 126.875 156.374
241.266 82.1156 167.488
118.577 239.833 161.542
172.188 192.892 194.08
170.212 216.586 165.219
117.15 214.938 181.114
260.043 154.161 193.574
251.255 163.23 193.581
251.025 109.95 194.506
258.595 83.8828 182.344
155.388 169.9 112.496
146.291 82.6131 129.543
168.778 181.856 105.773
168.136 142.278 124.508
190.317 85.8951 126.298
227.406 143.968 143.966
86.5843 132.704 101.901
179.278 199.151 173.746
187.241 70.4369 167.571
265.767 162.607 186.11
206.986 163.852 194.702
251.61 82.6494 185.7
227.184 107.927 153.241
91.5287 128.142 84.7726
76.233 215.095 68.9485
138.472 238.697 160.736
89.5003 252.996 130.623
187.406 199.652 164.963
90.8916 127.278 94.0783
134.381 110.074 209.227
157.803 103.833 145.45
187.721 199.642 156.887
89.8593 127.455 103.159
96.9995 117.137 102.963
202.738 186.189 179.629
72.6912 154.281 139.531
85.0747 138.888 85.5882
241.843 180.919 190.6
213.411 188.145 156.359
100.288 144.828 40.2695
259.8 186.876 196.56
79.3542 244.937 102.244
245.224 162.632 162.295
102.771 104.406 171.641
109.501 126.558 65.8507
140.136 265.905 128.985
242.824 189.395 189.387
128.771 152.886 214.983
86.9388 163.359 177.458
99.3871 225.873 166.293
221.567 100.599 150.577
248.476 188.492 177.518
217.113 118.003 144.843
94.2426 139.742 52.041
102.845 236.013 90.4045
95.7561 202.049 178.06
188.645 73.3747 118.763
197.192 118.519 199.729
216.544 73.6886 137.991
235.535 197.756 181.429
92.9294 119.172 174.118
138.403 150.995 103.13
166.138 141.007 161.989
257.472 83.6213 177.212
152.197 92.2286 130.579
69.3926 162.242 111.852
153.281 109.171 120.422
68.5029 209.342 90.543
152.63 117.838 118.321
266.235 178.79 196.636
191.64 144.285 204.948
161.642 118.177 121.676
224.22 83.521 189.609
147.017 117.446 116.574
263.451 127.346 179.711
189.995 199.398 147.381
99.7307 199.479 58.3847
109.52 190.083 58.6097
92.0206 235.936 82.5314
116.481 84.3759 138.603
215.252 119.867 196.982
102.885 163.845 37.1001
89.9248 126.702 174.219
86.7115 125.293 167.984
94.5711 121.15 179.326
92.6603 136.655 181.753
197.336 136.349 131.673
188.541 74.4927 174.169
89.5728 117.998 165.396
99.9037 118.774 75.8074
68.747 190.399 150.13
191.329 195.353 131.485
86.596 123.852 129.212
69.6211 199.025 147.929
218.4 172.194 135.324
67.9687 197.085 144.409
232.725 179.164 157.67
232.762 153.591 146.667
223.662 183.049 164.523
233.701 183.266 163.026
174.156 126.35 125.536
126.022 225.581 173.853
229.429 68.3502 150.941
260.292 163.576 194.187
79.4009 245.01 120.63
134.086 146.035 102.744
83.6698 250.623 120.349
76.2534 240.072 121.113
78.6007 244.838 112.63
196.266 181.242 124.287
132.099 147.782 108.611
72.5565 233.905 112.021
73.1704 233.94 120.967
83.2559 251.358 111.544
231.494 82.2016 158.069
126.393 244.842 157.966
193.911 99.6269 133.598
152.53 145.772 219.192
179.852 67.9292 129.138
162.21 135.645 217.611
169.15 144.725 215.492
171.889 68.6309 156.148
144.028 80.4162 175.128
168.718 135.808 215.425
68.8823 209.355 141.481
188.433 188.744 120.044
101.308 139.457 43.8237
91.3227 225.846 75.8939
188.007 162.494 131.065
162.001 117.215 212.279
117.34 234.691 165.635
171.611 208.92 174.973
168.894 224.121 155.344
188.864 155.083 132.046
215.713 145.725 136.086
169.52 136.477 123.906
263.152 136.584 179.614
178.992 127.608 208.269
243.197 172.961 163.503
110.84 135.377 57.8445
118.187 234.691 101.049
76.7524 239.625 128.318
94.1923 104.019 153.02
172.101 192.577 129.272
171.08 73.5161 165.839
224.996 181.547 183.074
151.241 178.207 136.656
215.277 91.222 192.302
167.329 198.11 121.565
117.09 146.002 209.377
214.728 179.52 182.977
81.1779 198.518 165.804
108.314 242.904 156.89
170.785 224.377 138.543
117.183 136.053 76.0733
171.315 191.233 120.489
151.673 240.193 153.457
221.32 184.485 174.219
197.624 154.549 201.753
209.16 156.634 195.917
165.428 146.044 155.759
86.9136 181.806 177.771
83.3766 172.213 173.627
88.1294 226.557 159.073
214.942 109.134 195.851
79.99 145.258 93.337
79.7881 143.328 102.397
81.7751 145.135 85.2625
179.78 191.423 138.31
121.115 211.662 89.8597
180.044 190.56 129.312
94.755 247.897 143.395
131.346 230.957 106.845
180.061 154.469 164.833
261.725 154.621 180.57
172.086 154.082 163.311
114.977 213.934 88.1814
110.828 210.874 82.848
104.783 213.297 79.5392
162.638 83.8642 122.611
79.27 162.398 165.698
179.777 199.903 165.501
170.479 145.052 164.723
134.541 225.01 104.786
128.442 219.707 99.21
130.099 78.3221 162.036
153.28 80.7597 174.642
160.863 154.222 137.547
132.659 163.357 77.6802
241.725 180.861 166.516
119.973 227.341 99.6474
135.846 217.615 100.337
105.719 223.593 87.6305
90.4504 118.246 129.293
168.398 109.232 124.626
113.468 172.171 53.2815
91.2571 249.085 88.4412
264.818 119.145 183.833
260.317 118.293 192.007
67.7189 188.846 145.29
264.702 120.994 188.738
99.7951 163.559 190.236
100.315 171.893 189.673
106.119 106.803 184.593
180.364 75.8818 172.697
221.16 178.82 141.337
171.048 77.2125 171.044
145.435 201.58 90.9996
120.68 160.969 64.002
125.525 191.46 194.667
259.39 127.339 175.603
138.321 171.13 81.9652
101.109 102.735 164.002
154.427 83.5828 131.303
158.266 82.8139 126.426
93.9523 213.683 170.612
158.762 92.2789 126.673
117.809 243.469 158.487
82.8551 126.698 156.767
136.872 178.443 206.53
206.757 85.3601 188.86
214.798 84.337 189.478
215.205 100.76 194.575
205.684 100.569 194.611
187.729 192.106 128.418
71.6929 207.833 147.973
170.307 188.409 111.694
167.337 186.96 106.171
79.9736 154.172 165.254
108.019 261.562 96.1994
81.0531 145.42 165.201
108.531 269.456 102.231
83.7751 154.506 172.455
82.8503 136.341 165.866
112.4 265.219 98.5008
78.7753 145.248 156.863
88.4881 145.182 176.704
256.633 162.43 177.294
184.352 159.437 134.511
159.675 120.736 215.027
158.925 233.62 122.355
161.399 224.549 120.921
143.768 108.859 209.087
156.141 157.507 137.847
152.749 163.289 139.047
156.927 161.027 143.291
105.257 195.74 61.1148
99.3601 207.128 66.983
124.909 196.451 79.166
172.845 135.211 213.188
173.438 145.338 213.543
193.328 110.275 133.903
102.388 219.021 82.0328
206.211 127.577 136.498
110.035 213.608 180.042
102.714 112.774 85.1539
98.0016 117.331 94.0497
73.519 153.314 129.076
143.684 171.797 138.021
106.634 107.037 93.0561
99.4955 109.154 173.883
152.845 74.4923 139.99
133.35 257.303 143.785
126.894 204.868 188.495
108.682 109.112 84.7819
80.6775 180.988 49.7254
117.708 249.287 153.373
88.3397 236.774 150.065
180.134 68.8524 162.212
120.246 86.155 164.534
97.8494 245.887 148.521
234.708 196.616 175.163
219.128 77.7771 143.869
244.39 70.9859 175.613
214.413 181.664 173.444
84.4527 146.051 171.45
233.205 187.936 167.482
145.304 163.162 129.939
150.412 204.736 96.9364
170.318 104.048 197.878
150.111 164.925 119.61
135.219 252.078 112.56
147.285 159.743 111.111
126.527 84.9182 173.426
158.258 108.352 141.517
224.834 118.204 196.31
188.811 181.071 120.363
163.506 219.225 167.325
179.006 178.263 119.873
96.1024 124.55 75.1761
188.743 175.8 124.915
187.748 171.292 127.381
105.422 145.689 42.7914
242.367 200.584 182.986
125.469 209.099 186.049
138.709 264.325 118.683
161.985 206.74 182.431
169.029 198.269 129.222
163.314 202.099 186.586
171.263 196.237 189.867
240.672 91.5527 167.178
163.582 211.126 177.235
168.453 213.414 171.411
161.891 215.077 173.521
103.016 104.065 121.607
69.6534 172.679 94.0398
66.4464 181.061 102.386
165.821 200.832 118.116
68.792 179.117 92.4129
67.6809 181.411 96.2799
71.8315 163.923 94.1241
71.5607 172.665 84.0328
75.4839 206.971 154.494
96.6461 133.913 57.4047
69.8227 163.84 103.543
152.986 207.531 184.55
179.561 72.409 118.184
68.7296 170.198 101.01
70.1342 180.372 84.278
85.1568 172.478 42.0914
119.726 85.8934 111.99
66.7486 216.826 120.129
91.5246 136.866 67.1755
67.9332 222.013 111.143
134.944 188.295 199.28
133.559 192.95 195.421
94.3801 130.764 69.1321
68.0235 221.682 120.436
89.0478 136.199 76.0463
161.348 161.587 214.911
210.919 113.111 142.726
79.0211 143.133 112.009
76.4274 148.371 103.65
118.903 162.196 207.099
162.614 234.803 148.103
159.352 215.519 113.914
216.261 181.637 137.271
262.088 181.442 196.587
235.303 173.674 154.465
166.548 195.276 114.745
97.802 99.9296 147.58
103.191 95.7858 145.753
117.235 163.263 58.4327
107.987 92.2931 147.635
120.124 126.808 93.2582
71.1218 216.777 85.4399
65.6699 198.318 102.833
214.508 171.926 131.036
76.2374 164.596 162.143
143.98 85.331 181.39
180.932 207.641 165.617
115.854 224.392 95.7135
138.277 178.439 135.572
152.953 136.9 117.649
126.972 210.249 91.2197
224.971 73.7411 146.846
157.303 123.035 152.488
161.111 171.486 211.438
123.06 129.404 103.286
134.595 146.032 120.389
170.653 171.919 208.906
204.804 112.507 196.981
125.091 261.365 105.684
114.706 265.154 133.529
77.8215 189.7 55.7695
123.923 267.383 105.984
262.152 100.144 183.772
74.6391 233.218 93.9625
162.65 68.9095 147.043
70.2417 163.266 139.469
125.748 92.589 103.369
91.2148 119.287 120.687
158.378 69.826 147.233
126.032 240.055 162.101
174.613 75.7864 116.181
122.673 130.267 95.6754
74.2716 180.634 67.2397
73.5566 190.049 67.2677
97.2742 249.616 88.7632
159.777 189.312 94.9466
187.248 88.1351 187.115
251.629 190.021 193.89
113.899 183.738 195.59
197.34 82.1118 184.479
242.268 80.2871 186.699
198.372 86.5544 188.276
222.026 175.741 187.17
215.121 171.306 189.082
224.216 171.824 189.126
224.038 162.337 191.704
83.4523 127.268 147.785
64.0822 189.739 111.803
198.507 118.008 135.886
126.111 271.115 120.654
64.2515 190.096 121.175
193.815 120.046 133.641
126.403 268.541 129.098
65.2976 180.863 111.447
177.686 214.992 156.246
117.66 180.215 199.467
233.712 110.021 195.92
108.06 271.496 111.57
100.772 267.197 103.884
207.371 67.4606 138.229
197.388 67.0709 138.431
140.076 84.7819 115.328
135.324 82.059 111.309
140.312 92.127 115.341
77.5693 229.71 80.7918
124.749 107.412 203.477
243.052 109.097 163.381
107.169 112.615 78.1963
173.665 101.758 125.596
77.6108 141.963 129.286
241.953 172.239 192.093
225.1 92.1794 154.128
118.476 94.1785 182.35
127.793 144.971 112.045
171.199 161.728 155.848
129.834 142.176 105.607
143.413 214.748 180.902
161.914 85.5028 180.652
153.191 85.2186 180.512
255.924 77.6947 180.433
152.884 208.677 102.249
146.142 210.722 99.5197
143.304 206.806 94.9494
68.9637 190.061 84.8136
250.393 181.503 193.834
153.485 120.342 215.539
125.431 249.046 153.863
113.105 138.822 61.388
143.782 251.321 146.739
143.627 242.632 155.177
152.74 162.526 215.706
198.15 66.6189 156.384
153.961 167.124 214.119
197.847 66.3495 147.216
214.778 66.5358 165.36
68.7935 172.586 130.426
99.5699 100.899 156.287
126.508 85.4783 106.29
112.13 95.578 104.983
209.581 192.446 157.255
145.553 156.124 126.966
76.7282 230.667 143.674
256.934 196.53 191.976
185.736 186.372 115.324
179.814 186.317 114.342
185.672 183.602 114.715
83.811 127.818 139.053
69.5036 225.508 120.956
215.674 136.202 138.114
214.578 127.763 140.32
220.416 130.691 142.665
116.446 208.09 185.425
224.437 127.551 146.224
226.06 135.826 145.102
168.007 129.287 214.977
122.877 221.325 98.1627
171.86 127.504 212.47
148.815 127.89 116.261
224.339 91.6977 192.472
136.555 173.977 129.883
206.581 73.6209 128.282
179.643 136.763 209.512
133.989 214.209 97.2363
143.264 259.766 136.985
68.1087 192.019 88.7719
149.307 94.4509 124.072
69.7478 163.109 120.879
73.7023 153.822 147.839
67.0339 173.013 120.525
70.447 163.5 129.831
144.758 180.356 82.5526
126.579 216.757 181.24
134.398 261.919 138.036
136.995 265.077 133.41
245.703 154.745 161.612
82.7294 213.666 61.2023
85.7433 140.214 79.8827
109.591 181.129 48.6683
173.498 118.326 125.862
180.234 118.911 128.423
105.296 181.246 42.9878
80.8298 136.228 156.174
138.161 78.1866 170.538
169.467 99.7529 124.358
78.3205 142.758 120.46
86.4729 150.953 55.8742
247.328 103.351 168.933
126.034 198.507 191.303
143.429 204.802 188.819
114.379 127.973 76.6115
135.332 209.406 186.241
87.6131 144.035 66.4458
84.8767 147.884 68.3532
89.3469 144.839 58.1911
93.3348 138.081 58.8287
96.7882 219.488 168.886
197.388 73.2356 175.348
83.9762 154.62 58.865
228.962 155.136 142.547
84.8392 249.286 95.9969
170.847 207.188 130.302
174.091 218.545 137.422
176.762 209.271 139.523
225.159 136.632 194.766
237.051 142.134 152.461
216.71 83.5233 145.222
176.698 215.149 140.324
202.846 73.5939 124.612
137.923 174.115 135.87
114.237 89.0741 157.439
159.564 181.391 95.5732
205.942 172.588 191.82
196.024 171.046 197.855
96.875 181.452 186.59
115.972 180.868 58.3072
112.355 184.373 54.8231
250.771 100.798 172.596
164.412 198.892 111.366
156.816 211.171 108.248
99.962 225.749 83.9447
158.146 98.042 125.874
135.183 100.5 112.161
142.493 260.669 121.269
121.057 124.584 110.792
75.9614 147.426 121.654
69.831 217.75 139.171
103.366 113.442 79.3168
101.067 181.508 188.785
161.236 198.065 103.222
177.966 104.6 196.988
170.97 108.448 202.25
79.2277 136.628 138.819
88.1934 190.306 176.245
96.9061 204.538 60.6868
90.6083 207.927 57.4986
221.148 91.9598 150.775
89.304 204.458 52.6359
117.625 92.7014 103.078
93.7245 210.897 64.051
241.56 137.228 194.128
78.2847 199.952 55.9068
76.3036 199.236 60.4678
173.462 192.535 146.857
152.738 199.244 191.586
144.631 208.878 185.371
167.486 206.685 122.869
167.173 215.575 123.338
151.508 231.148 161.971
189.302 172.883 201.706
114.787 89.0397 119.993
126.706 81.4524 110.607
117.792 84.2618 130.036
165.076 69.0872 152.908
125.96 163.239 210.469
135.788 76.9343 164.971
164.165 153.969 155.708
170.572 118.658 209.699
160.866 102.46 198.54
170.697 198.915 138.68
134.442 268.421 120.721
156.34 201.861 99.4475
108.835 93.4144 155.961
241.685 153.455 156.523
106.556 98.1998 165.551
84.3256 189.37 42.0209
117.477 257.719 144.412
145.967 255.436 141.229
138.895 79.254 117.496
135.81 76.5012 121.239
133.417 77.9029 114.259
128.396 251.633 108.826
140.396 77.5496 123.444
117.492 198.657 189.558
161.645 171.359 137.394
94.8877 230.264 161.118
168.587 168.861 135.753
161.696 166.777 141.852
228.37 77.9906 152.678
113.26 121.068 79.2518
100.294 261.433 95.5152
152.745 172.535 211.76
91.3442 260.604 111.362
112.239 124.674 73.6159
97.5354 107.92 166.184
143.881 172.239 211.253
109.351 266.887 127.651
156.804 238.312 151.527
101.374 267.034 119.163
158.992 240.818 145.488
135.632 208.024 92.8438
174.186 196.695 171.119
113.385 88.0169 149.59
91.746 154.051 182.347
253.964 127.517 170.877
95.5361 153.233 186.692
100.285 145.443 192.375
128.188 77.4688 155.098
92.4922 145.506 182.36
78.1636 237.484 91.473
87.4933 153.278 177.097
161.332 197.986 191.377
105.859 163.445 41.5544
102.361 172.527 38.0173
162.068 127.887 216.331
89.8738 216.845 166.008
198.442 76.8455 180.156
99.3647 216.192 172.772
150.534 250.071 144.578
226.558 186.194 168.091
152.382 252.32 138.306
120.354 103.747 197.359
226.415 187.79 174.248
184.131 203.455 169.771
67.6286 172.889 103.866
218.531 124.7 143.605
214.772 127.377 197.169
106.981 136.808 49.7387
113.934 232.733 97.7098
173.244 109.531 126.062
127.215 136.185 215.88
145.011 100.428 118.518
126.421 170.879 207.402
161.451 70.6146 156.607
92.9634 120.098 111.553
108.375 109.336 191.931
245.22 91.1258 170.577
120.19 135.045 84.6367
263.587 117.564 180.884
232.657 83.7293 189.188
233.619 79.3939 186.989
241.886 84.2029 188.437
80.4279 136.253 147.264
133.975 154.504 85.8318
233.584 70.1304 177.602
170.928 225.048 147.394
77.3415 210.937 63.6621
232.951 163.428 146.959
179.407 66.7973 147.356
196.49 183.575 184.094
224.942 65.7439 164.57
233.761 67.9314 173.059
179.375 67.5784 157.253
196.66 179.119 190.747
224.092 67.9861 172.611
135.506 199.065 85.2309
125.339 206.002 87.1683
137.467 152.767 93.0378
151.974 78.1137 170.19
137.567 193.065 81.562
124.148 126.011 213.278
205.75 81.0244 185.702
124.779 100.531 104.119
224.975 79.2488 187.093
113.901 110.667 86.6554
145.742 246.44 150.851
88.8225 245.515 140.1
170.33 127.422 163.577
141.332 186.753 80.2162
111.596 219.965 90.2924
230.471 127.399 150.267
229.667 120.12 151.322
182.995 175.176 204.697
140.402 164.156 88.5012
126.39 81.8345 165.465
83.7433 163.171 172.974
185.175 203.82 164.873
66.7878 172.366 111.474
75.4211 154.768 155.051
229.047 161.899 142.573
82.0941 171.919 49.5824
153.072 109.763 208.626
123.212 155.931 69.9953
123.05 145.843 78.3677
251.029 118.1 195.551
105.354 247.122 151.737
76.1323 190.258 60.2374
116.79 253.618 148.749
78.127 180.628 56.6416
114.835 117.961 84.7495
153.572 234.92 157.37
100.472 268.046 111.557
143.104 118.19 115.881
124.361 154.666 212.61
178.173 215.876 146.776
93.7542 156.535 35.1122
250.616 91.6685 173.397
162.885 184.173 204.404
126.186 136.644 94.1095
125.621 215.588 94.944
137.072 126.535 116.001
168.771 112.68 206.657
107.127 199.889 186.86
107.917 217.662 175.845
68.0196 166.899 117.213
76.2191 146.912 146.769
91.5817 260.111 103.668
83.596 250.92 102.767
96.9141 179.591 34.886
126.842 145.073 85.2821
98.24 172.483 33.6973
129.75 151.872 82.2556
129.205 142.479 91.6456
229.747 71.7164 150.646
129.575 236.27 108.042
131.463 148.424 88.2635
263.317 109.418 182.868
120.203 143.343 75.6582
134.442 89.1212 185.465
161.481 80.8961 174.484
143.748 75.1393 164.601
99.1257 198.495 182.934
197.665 68.55 129.349
114.699 98.1728 184.751
90.7752 181.147 181.999
205.216 68.7554 131.439
96.9325 263.762 120.818
200.429 71.441 125.896
140.841 251.178 115.561
93.889 219.914 73.6291
254.23 137.073 171.194
141.179 182.111 80.1636
167.943 155.194 159.485
77.8541 143.079 148.307
146.19 169.808 92.1081
134.098 261.632 111.523
112.433 114.835 81.2187
91.0726 242.515 146.247
135.089 74.9118 129.36
135.328 73.7464 138.564
186.31 162.277 206.13
170.18 163.154 212.024
147.973 79.9798 135.056
126.489 187.179 197.899
232.683 91.6823 191.862
253.665 89.5252 187.04
190.088 163.033 204.123
91.5707 223.889 163.245
170.641 164.543 147.018
92.6023 207.825 171.992
206.257 71.471 175.409
215.359 68.2155 172.055
101.428 153.303 37.201
70.2314 225.318 129.72
231.493 136.847 149.109
215.392 70.8115 177.094
244.835 127.913 162.311
118.97 84.7673 156.143
152.583 136.548 219.266
144.072 88.6433 185.616
184.813 157.602 134.498
104.895 106.209 102.949
149.517 195.578 88.141
111.812 95.3451 172.178
196.168 91.4042 132.861
107.887 180.953 192.923
164.026 190.052 102.527
157.704 103.699 140.535
251.015 100.637 191.271
129.411 77.6173 121.239
101.302 111.225 182.451
156.272 76.7783 132.052
128.555 77.0406 129.422
141.321 110.168 115.714
170.647 82.566 119.211
123.365 145.589 213.438
87.9772 213.265 61.3918
97.5022 253.659 138.847
153.613 217.615 174.815
151.569 213.36 179.836
153.403 95.3237 143.981
122.901 79.1435 147.753
127.061 76.9253 147.996
232.589 189.484 183.018
181.763 153.669 155.837
87.6997 255.082 121.339
154.644 105.844 204.555
162.23 193.598 195.721
112.598 151.792 54.3151
179.992 144.444 210.267
168.51 122.629 161.531
120.531 168.943 205.882
179.29 153.182 210.527
172.147 154.04 213.34
162.006 119.004 155.469
167.736 153.885 215.068
187.348 154.11 206.821
103.393 95.9866 142.205
151.741 193.71 195.993
156.157 190.964 90.9546
131.211 92.3562 106.836
162.878 91.6893 123.721
76.8565 148.989 153.015
67.9728 166.778 111.915
187.186 145.245 206.838
136.203 219.927 177.978
179.015 135.903 126.994
76.0927 147.942 112.369
82.7279 241.475 138.401
81.4038 233.54 146.569
103.275 113.299 188.426
127.966 76.653 139.276
88.1672 208.056 168.12
170.992 165.935 139.045
207.021 75.5996 181.248
134.694 109.788 114.119
100.383 241.393 154.919
151.014 222.316 171.15
162.186 75.263 166.238
134.774 81.5741 174.405
162.809 78.0125 170.375
132.407 79.0945 167.69
129.138 86.7862 179.513
151.474 83.7885 136.513
123.422 79.3999 138.433
251.113 145.734 193.692
123.637 79.8742 130.41
164.824 122.623 161.27
132.961 128.087 116.976
135.191 93.3188 191.51
142.585 232.626 164.6
223.983 74.8118 183.066
