ply
format ascii 1.0
comment Created by Open3D
element vertex 1065
property double x
property double y
property double z
end_header
222.437 151.586 181.171
89.0257 254.599 124.435
156.693 72.5812 152.824
240.887 82.748 161.964
117.558 109.693 191.625
79.8652 234.603 143.122
108.047 137.65 191.388
108.056 101.066 104.211
89.7839 243.937 143.093
99.0536 133.327 181.189
127.192 82.3065 153.324
137.257 120.86 209.906
79.7003 158.063 162.233
98.7238 110.801 120.415
109.355 225.649 95.043
108.539 156.336 47.4802
70.2399 205.372 85.8984
221.87 92.6329 171.515
197.295 92.1381 114.334
99.081 197.265 56.4295
233.264 72.1316 123.511
252.168 91.6612 162.489
79.6146 176.226 56.6539
79.0339 166.603 63.9732
166.274 120.337 209.976
193.684 142.15 199.903
99.3018 111.082 115.48
128.798 102.225 104.611
88.6909 148.171 55.8816
86.0799 206.798 56.8188
235.202 81.6301 162.96
196.074 83.0138 104.455
98.7269 138.34 181.619
193.672 154.64 200.015
117.996 129.303 85.5987
83.1879 216.185 66.5068
128.794 83.2243 159.473
208.023 72.5723 153.284
204.743 161.313 191.743
118.085 120.07 94.7974
261.514 81.8624 153.116
99.053 178.626 37.8943
118.036 144.323 200.283
107.646 144.659 191.593
136.815 88.7347 105.058
89.1741 120.041 151.162
80.0013 244.15 106.538
70.0279 167.562 124.824
69.9717 199.691 84.4289
89.6168 121.072 138.265
128.316 92.1691 180.94
153.184 101.619 200.122
89.7012 235.694 85.7067
69.9785 191.63 144.355
70.1343 176.699 94.4593
187.295 73.0594 152.091
118.45 235.861 104.72
175.9 134.934 210.31
98.5545 100.902 149.082
107.944 110.246 181.332
88.9841 166.274 37.6591
118.044 138.942 75.571
117.387 100.952 181.785
89.6287 149.83 49.2734
184.809 91.957 110.166
167.232 73.477 116.203
173.297 72.4141 112.658
80.3972 234.535 86.5226
89.7205 130.68 88.4771
117.436 196.492 76.4636
70.1268 226.153 108.544
83.4278 225.899 76.1255
112.681 101.076 95.1762
89.8142 254.971 125.864
89.5292 252.526 130.92
107.526 173.556 191.29
70.0166 200.424 143.85
81.2742 162.924 60.2261
150.517 81.951 172.438
157.205 164.913 209.718
116.884 173.657 58.3823
112.941 225.864 172.006
179.149 81.2682 164.025
231.278 80.9714 124.802
110.078 212.503 179.567
98.1713 139.145 47.0194
96.7923 136.808 53.3857
83.2546 163.927 52.9587
192.901 160.811 199.527
214.906 91.3124 172.057
212.077 103.023 123.423
102.772 173.128 188.964
215.388 117.928 182.336
226.985 72.4899 153.333
227.787 75.8505 158.202
99.3669 102.034 145.715
188.519 160.211 201.893
162.164 102.879 199.442
185.435 119.34 200.97
120.539 172.282 62.1428
99.7261 112.399 108.067
146.588 72.9245 152.34
151.181 78.2645 166.773
151.491 74.2267 157.675
97.3022 229.013 163.582
217.762 80.6234 163.854
218.884 72.4106 153.5
218.634 75.5297 158.26
192.613 134.069 199.068
86.0036 237.886 146.305
100.75 104.565 137.513
141.432 85.4774 177.055
144.232 72.1806 146.445
138.429 73.4604 138.264
139.982 73.946 148.757
85.9922 228.589 155.349
80.2652 205.642 57.6676
82.5488 231.552 149.41
80.197 224.631 151.968
78.0628 145.977 128.732
78.2888 145.591 119.925
74.1053 153.83 119.273
98.0135 110.031 130.309
81.7332 172.877 52.2974
189.046 143.924 203.125
168.577 100.301 192.972
232.967 100.668 171.839
132.405 75.9054 138.69
132.38 76.9378 147.647
134.682 134.528 210.952
133.698 76.6776 119.186
114.534 134.277 71.3376
69.2178 210.41 137.573
119.462 93.0928 168.978
75.378 153.203 129.277
150.77 89.4269 184.594
135.092 81.2219 164.704
132.979 79.5877 156.593
98.5936 224.844 86.3114
208.953 75.5218 158.018
171.181 92.771 110.242
205.744 154.59 192.021
209.981 161.063 187.62
200.192 154.808 195.889
199.606 160.683 195.577
116.055 90.9734 155.392
141.883 75.8192 157.816
122.066 87.0423 157.456
88.4079 181.945 37.0454
245.082 88.61 163.766
246.855 96.2131 166.206
154.285 82.5962 127.537
140.932 73.6309 127.411
100.637 236.551 159.662
213.876 102.051 124.02
106.246 108.234 175.014
97.1651 108.877 138.982
96.6532 107.653 157.089
138.346 157.296 209.831
116.807 91.289 103.108
91.6101 115.885 157.902
95.3492 107.047 147.742
179.722 116.492 203.068
259.904 115.494 143.981
256.622 124.253 170.068
146.019 83.9087 115.658
188.603 153.837 202.877
112.007 173.202 53.4845
252.88 72.3075 144.661
106.618 116.255 183.363
80.0826 140.295 138.277
260.274 90.8505 143.318
111.422 163.608 52.4501
207.066 84.9948 111.781
90.1849 133.833 170.421
209.074 95.8209 120.479
107.12 232.474 96.3539
201.871 92.9564 116.379
109.371 188.257 55.5961
77.805 153 90.1853
172.854 124.017 208.982
228.508 68.9311 127.934
86.561 173.337 174.442
151.258 97.6958 195.219
90.6442 252.391 97.8911
82.1364 135.089 138.754
87.15 125.862 128.908
212.355 111.919 180.932
93.9091 163.316 35.1077
117.317 187.012 67.3956
80.1622 243.884 121.558
103.621 143.982 44.0663
169.749 153.393 211.018
216.808 125.794 183.418
103.991 212.109 80.5541
94.1705 173.734 34.8922
111.076 104.331 177.213
113.903 106.673 184.963
121.933 94.8758 177.759
221.689 90.026 124.822
115.324 99.6789 175.812
95.1537 237.049 155.342
130.057 134.164 208.782
77.9314 172.669 165.185
245.562 116.361 172.619
239.284 97.6222 135.499
164.222 72.9315 152.337
117.487 114.326 96.7889
144.256 159.998 210.36
117.317 123.52 88.4349
199.51 85.8935 109.052
221.587 124.03 180.705
107.219 99.8558 119.79
105.396 106.25 100.187
144.405 72.2405 131.021
106.479 98.9261 130.068
236.13 86.1939 131.198
164.604 78.6367 111.013
243.543 71.874 131.676
243.685 75.7354 131.793
246.889 115.6 136.546
236.788 68.8686 137.422
248.432 121.924 137.638
112.519 153.659 195.733
90.2968 122.314 119.792
71.9734 164.048 129.026
113.543 163.608 195.68
88.4061 255.297 118.766
119.36 165.002 199.453
254.628 122.904 140.966
87.4449 163.748 42.2003
124.37 163.931 202.497
131.546 213.482 97.3052
131.115 219.838 102.111
91.9692 153.836 40.4954
92.9617 181.963 36.4534
263.834 80.2554 147.776
87.0649 125.83 138.619
73.9832 182.319 71.1505
101.178 189.291 46.1892
156.226 82.1277 171.854
273.266 115.853 157.126
149.924 72.2929 132.06
95.6112 185.232 39.0577
66.2557 191.895 129.144
67.7809 192.499 137.436
265.822 96.254 156.582
189.588 71.7315 110.075
70.677 224.205 120.375
151.74 144.008 214.148
142.103 144.682 213.02
134.469 90.8855 183.061
133.771 98.7777 193.384
141.633 98.1701 194.998
246.616 106.595 137.863
77.7945 228.598 145.883
104.922 153.853 42.5076
170.006 144.212 212.112
140.628 93.347 188.969
205.69 110.058 182.177
132.628 93.9528 186.798
104.31 230.053 166.456
227.692 68.555 138.468
167.061 91.3481 182.283
160.979 86.4437 176.24
116.327 116.133 90.328
217.949 134.634 183.93
79.4818 197.456 162.3
218.323 70.3278 147.992
92.0747 248.799 139.851
102.606 106.013 119.451
112.091 115.419 81.1497
88.7904 127.112 164.067
111.382 125.694 71.7261
67.8755 201.533 137.475
198.971 126.347 193.11
96.0471 117.211 109.543
123.191 106.383 194.327
97.849 128.742 64.851
73.3523 163.469 146.863
205.326 133.944 191.456
96.9069 125.54 72.0154
72.9306 163.586 138.969
220.315 112.229 126.83
84.539 239.546 89.9068
141.751 125.209 212.188
121.24 182.394 195.35
139.721 102.317 199.415
103.109 130.717 58.3386
170.45 109.071 202.065
209.284 80.7704 163.9
95.905 144.871 43.373
176.157 110.57 200.835
103.192 182.594 43.4808
113.19 230.382 99.5949
132.981 78.8528 109.151
256.916 76.1415 147.103
179.497 89.8057 174.371
256.689 106.828 166.804
161.598 75.769 120.357
119.595 144.626 73.4767
178.584 73.4917 106.165
180.912 71.7225 110.454
170.408 71.3494 119.917
76.6735 239.314 109.407
180.471 144.602 208.094
73.5087 229.947 99.9203
109.101 186.789 190.659
217.654 106.307 177.228
218.304 114.254 179.614
77.4048 202.41 61.5125
198.661 107.78 184.33
200.065 115.644 187.939
210.062 133.647 188.729
104.715 250.346 97.9676
94.2398 248.836 93.1608
160.452 161.384 210.672
99.7313 248.922 94.7277
118.775 216.428 94.8676
110.874 153.963 52.0877
85.7746 173.43 42.3663
130.008 145.001 208.472
94.7707 258.016 100.97
101.894 229.732 91.3902
139.592 103.825 110.217
105.256 240.642 97.3127
226.93 134.765 179.022
136.361 240.806 114.632
189.333 70.4722 147.747
120.319 190.824 73.8315
90.9241 141.992 61.1331
99.7636 112.57 169.507
219.397 97.0754 125.492
103.44 106.627 166.827
218.93 106.027 126.272
83.7426 134.658 147.454
234.097 96.5847 132.822
223.06 141.831 181.38
90.387 132.171 80.9978
79.0512 236.06 92.6883
227.537 97.0068 129.435
119.422 103.338 188.385
247.553 70.8005 138.852
82.0111 144.184 90.5034
78.1271 146.432 109.372
109.539 128.439 64.2236
66.4092 201.971 129.53
110.94 114.69 187.414
125.729 100.582 191.88
132.115 173.373 202.731
236.79 125.887 175.03
143.476 71.8231 138.629
105.81 97.2767 138.845
101.851 105.238 129.782
134.879 173.431 78.2019
91.4092 124.325 167.837
129.311 180.884 74.8376
93.5175 114.516 138.608
109.502 124.018 189.619
80.7817 192.306 50.4598
140.637 115.095 208.525
112.433 143.668 195.643
202.507 122.916 189.879
179.814 89.1536 107.3
97.0825 117.973 99.9362
189.581 81.1579 163.595
111.243 190.31 62.854
199.125 143.104 196.262
103.736 257.814 98.563
78.3873 155.665 81.7896
98.5152 120.479 76.1844
151.927 71.4007 148.604
125.446 116.535 201.863
169.804 69.7513 128.413
253.569 132.391 170.308
115.615 89.5043 118.961
117.349 255.274 105.321
131.038 95.7055 102.868
92.6652 241.306 148.898
121.42 85.509 109.076
80.815 182.543 51.0966
85.5279 134.766 157.315
119.262 123.82 199.114
255.55 77.1334 140.221
132.25 116.094 205.824
96.4562 195 49.7576
208.826 70.711 148.258
180.544 84.668 168.472
170.331 134.931 212.105
121.597 114.74 197.905
138.136 199.086 86.7598
114.381 193.291 70.786
74.0318 153.872 109.84
123.876 126.127 203.46
239.627 104.167 171.021
264.516 87.6018 154.188
179.879 69.8019 119.282
78.2317 228.311 82.4728
198.928 70.265 118.918
92.8113 200.669 53.426
82.8263 134.841 128.613
112.411 256.109 102.429
103.448 191.359 51.8286
72.5497 211.727 80.746
67.3558 211.352 109.799
267.717 105.112 159.199
170.24 89.2014 176.383
84.176 201.336 52.063
131.816 104.284 198.25
97.8071 254.242 95.338
124.116 108.121 107.917
249.721 113.55 171.284
263.761 107.989 164.233
128.945 177.813 200.342
227.5 76.9438 119.918
100.53 234.298 161.471
122.469 240.012 107.831
227.794 87.3277 126.711
75.3882 172.806 71.0905
142.211 118.662 210.548
84.4435 231.269 81.5884
103.62 191.711 186.232
112.433 105.672 91.1628
86.0223 134.814 100.174
66.7344 182.684 110.147
204.563 78.0975 104.787
198.943 72.1009 111.257
207.952 125.943 188.172
179.074 159.569 206.591
224.05 150.919 180.335
75.2019 192.051 158.363
93.5173 191.211 43.2464
142.016 86.6606 109.724
93.5659 189.84 178.462
85.1127 134.938 109.848
235.887 115.142 132.61
95.1384 134.642 61.8971
85.2349 235.774 84.7761
214.144 82.597 114.049
188.951 90.1782 173.42
83.1526 192.157 168.273
111.442 95.5398 108.888
88.6862 173.795 37.2734
126.641 81.542 108.909
233.394 75.0308 122.997
160.03 70.5445 138.123
81.5018 142.331 100.364
152.388 160.947 210.759
158.201 76.2981 128.314
228.163 105.863 130.252
122.661 143.68 79.983
95.6542 155.769 36.674
119.652 136.059 82.4501
109.435 93.3184 138.985
218.347 71.3562 118.483
123.191 97.6249 184.51
202.251 90.9686 115.191
236.119 107.372 172.718
131.697 105.449 108.627
104.822 116.817 73.7538
69.661 210.434 92.3942
68.401 211.858 100.878
70.7903 213.22 89.0094
266.184 115.52 146.711
71.1355 222.646 98.5728
198.533 78.1406 103.149
237.41 95.5824 169.002
148.239 79.1972 121.924
162.703 83.0941 170.792
272.228 124.447 150.697
80.9974 211.98 158.938
258.791 95.09 160.556
89.0821 129.779 101.003
118.315 133.874 200.159
147.822 84.7449 117.799
250.421 133.095 171.359
86.4149 145.146 71.1892
204.563 129.055 191.118
198.799 68.7587 128.818
103.82 182.787 188.864
114.945 105.133 97.0322
214.669 72.5502 114.002
110.195 92.9574 148.542
228.064 125.334 178.044
125.849 80.8878 146.549
141.089 90.1083 184.468
272.341 107.251 154.706
135.54 150.839 210.548
121.505 104.84 101.448
111.086 134.302 61.5776
78.4592 165.085 164.353
141.736 134.84 213.023
180.192 94.7284 179.187
86.3989 215.465 67.4004
91.2776 115.352 148.395
133.702 182.351 77.8437
214.148 159.459 185.086
95.592 125.841 174.355
101.269 103.72 158.84
131.29 208.912 93.2853
89.8774 121.315 127.664
106.376 107.82 90.5522
71.1332 161.763 120.325
171.175 84.0175 169.627
111.782 193.187 189.921
77.9812 238.562 100.645
113.62 97.8484 99.0965
89.8551 197.487 47.2592
100.629 123.433 179.572
266.965 87.2681 146.882
129.786 163.451 73.9292
179.964 68.5779 129.063
77.8227 163.398 71.8543
151.059 125.244 213.492
220.828 77.5336 116.087
118.109 117.628 97.1249
88.8316 138.85 74.3072
118.829 254.976 106.181
70.1684 187.084 143.166
70.5827 181.135 140.7
66.3929 183.17 119.236
77.7291 211.232 155.146
116.781 132.608 79.172
200.491 75.1898 106.583
200.164 85.6158 168.769
200.302 103.062 180.139
119.261 156.44 64.9375
73.3885 211.399 148.147
140.902 172.259 204.844
86.8185 197.8 47.1357
170.769 69.4119 138.284
69.3932 183.253 136.791
71.1721 182.979 148.251
90.744 257.914 118.7
133.221 107.824 202.013
68.6407 220.61 109.316
266.218 115.989 165.751
75.8099 221.43 80.2118
113.878 144.426 61.624
227.033 71.5244 120.538
210.473 144.171 189.012
178.729 92.7272 109.977
73.6277 182.541 157.605
80.1148 170.029 58.1451
93.3894 231.881 158.534
248.222 107.186 169.733
78.1261 154.76 156.983
76.0266 153.972 147.625
159.926 136.087 214.153
98.1135 119.321 82.1801
109.352 136.776 55.1908
267.019 125.85 147.409
150.8 166.234 208.857
236.849 141.836 175.239
180.603 70.6315 146.59
79.2351 148.318 93.5394
272.613 105.638 150.032
96.5223 231.062 87.9848
164.517 72.3851 122.829
110.197 144.472 53.0513
118.904 196.389 190.657
199.161 97.1819 177.299
75.3939 164.047 158.493
103.827 134.176 52.4012
256.021 80.2984 154.544
240.45 87.9733 134.789
85.7144 191.753 43.7076
69.6639 166.75 110.082
170.304 95.9487 186.064
132.138 76.4055 129.042
151.389 154.038 212.51
238.077 77.4178 127.854
205.817 143.795 191.998
149.251 169.03 207.619
237.87 106.019 134.66
132.891 162.84 78.2889
180.371 68.7287 139.22
254.718 115.464 140.575
72.3144 231.301 109.348
170.192 76.2012 107.812
250.615 126.134 171.626
91.6712 163.562 178.826
189.594 69.8703 118.698
104.093 202.362 69.8916
208.95 96.6442 175.475
240.217 114.564 134.141
227.254 143.672 179.17
92.0673 134.695 70.9444
217.529 68.9982 128.647
120.437 132.526 87.754
110.24 94.2372 129.284
82.1255 153.353 71.3055
132.887 192.413 80.5459
97.8463 118.763 173.065
137.34 223.456 106.428
123.36 154.245 71.3235
228.393 114.397 129.437
259.975 123.498 143.772
80.2586 140.72 128.126
108.605 159.866 47.58
257.213 86.5774 157.729
120.995 229.065 103.65
104.126 129.898 56.8313
193.576 111.841 190.188
80.6937 203.994 161.182
84.415 220.621 71.5139
91.2485 124.799 108.609
104.05 105.837 109.278
105.124 98.9544 156.599
258.414 96.6796 143.521
79.2524 157.77 74.3646
75.7272 163.011 81.3076
93.1238 125.044 90.7843
107.736 100.257 110.364
254.85 97.7181 163.694
123.96 204.979 87.4206
83.849 134.958 119.306
69.5892 183.599 91.8164
132.561 163.523 206.253
122.03 96.9012 98.8432
131.108 198.553 84.3177
80.7742 151.285 80.1495
142.777 105.866 203.41
69.9867 216.795 134.184
71.0755 222.567 129.516
189.178 68.2316 139.524
159.047 118.133 210.999
78.5899 190.916 163.552
172.67 78.793 103.275
246.162 124.778 172.84
72.4441 220.968 138.83
69.5755 218.62 128.264
189.521 68.573 128.903
101.301 200.148 63.5707
87.6141 190.929 173.129
123.653 145.525 204.486
228.516 94.2849 170.774
111.002 199.201 73.7729
86.9124 181.304 174.387
91.9357 125.469 100.438
130.663 125.212 207.969
102.389 97.9221 148.431
106.738 109.93 83.5958
122.125 134.03 203.291
160.488 75.5269 158.098
123.51 153.056 203.76
85.7098 249.016 128.522
138.21 82.7219 171.05
124.955 80.5294 128.574
173.08 83.7437 104.007
81.9056 171.847 169.066
77.833 182.681 164.222
216.652 76.8432 112.627
87.0112 246.335 136.671
118.408 156.551 200.168
133.328 224.196 105.84
189.12 85.3799 168.474
237.326 70.42 128.836
91.5839 259.224 109.725
160.264 124.904 212.529
67.7323 182.703 129.191
112.073 249.826 102.449
87.7066 136.862 81.8378
233.61 106.84 133.176
151.508 135.819 214.394
207.977 115.806 184.243
89.8402 160.217 39.2019
93.315 216.267 168.775
81.2735 242.857 129.927
122.537 248.586 108.579
117.113 249.576 105.398
87.9162 135.275 166.728
195.994 118.338 191.87
126.279 173.391 68.8699
86.6394 153.802 53.2433
96.9991 211.596 173.129
117.362 242.394 105.249
238.044 115.855 174.003
110.48 227.763 170.138
237.085 86.663 165.442
208.385 77.3546 107.986
199.072 68.5179 138.496
76.4104 230.388 90.2174
237.864 134.963 174.716
209.069 105.606 179.044
70.6187 180.343 87.8541
105.704 201.446 183.826
70.0765 177.392 134.08
71.9461 173.015 147.978
69.302 174.741 128.793
88.043 126.493 119.209
75.6996 211.387 70.9065
67.3506 211.434 119.541
110.979 95.0204 118.976
128.479 157.469 75.2853
150.002 112.673 208.985
94.3876 246.393 144.767
218.916 68.7409 138.889
107.772 180.593 191.048
109.313 102.285 169.88
188.87 115.891 195.986
128.262 246.599 111.924
81.5382 200.739 163.439
71.0831 201.604 80.451
173.646 156.075 209.404
113.845 202.992 79.9779
108.132 196.331 67.4441
78.993 217.876 153.748
207.451 90.4517 172.601
137.277 85.4429 104.883
70.9595 191.97 79.9384
122.722 194.596 78.0197
116.058 90.0401 109.54
98.0132 110.018 163.367
88.6628 128.445 110.829
70.794 213.129 141.335
67.7856 210.951 128.142
247.045 78.0342 135.722
86.9551 134.946 90.5131
105.853 194.656 61.7338
98.3401 206.081 67.2193
104.366 125.273 184.508
135.25 126.624 210.59
180.038 76.6139 156.798
130.235 154.465 80.4854
103.299 135.133 186.012
94.3114 135.02 175.895
100.549 163.812 36.7126
94.4857 116.668 165.76
171.346 160.733 209.133
75.9007 220.438 147.891
208.5 86.293 169.219
83.1043 240.576 139.081
77.7985 237.878 128.956
77.5172 239.806 119.203
152.285 117.208 211.404
176.024 143.595 210.312
74.0545 230.114 129.029
181.077 133.926 207.439
160.917 143.732 213.749
113.233 173.233 194.18
102.036 138.637 46.7526
130.059 173.043 73.2149
89.5648 121.138 161.088
87.473 224.933 77.0268
79.03 192.396 54.7639
91.9431 218.65 74.2728
88.1002 124.925 157.295
79.2123 183.411 55.3703
110.922 208.238 182.841
71.0831 191.655 148.642
218.232 144.309 184.136
180.603 125.642 206.152
151.29 93.2933 189.342
115.44 116.448 192.927
246.039 96.5965 138.83
217.195 153.124 184.154
210.264 154.485 188.705
93.5896 239.533 89.5376
123.757 88.6075 166.546
91.0623 173.586 179.378
95.9069 172.976 184.192
119.4 180.78 64.2664
189.878 96.4964 178.586
91.8237 182.39 179.156
98.2365 215.553 78.1313
96.1544 163.784 183.556
97.7123 189.772 182.324
217.56 86.6844 120.423
102.467 115.463 177.111
215.144 95.5278 123.219
75.8313 152.963 100.004
114.252 212.445 89.0445
102.241 154.046 187.46
113.92 135.005 196.392
107.767 215.239 86.8441
112.457 218.649 92.7689
86.0692 144.384 166.93
100.896 209.071 73.9797
110.791 209.027 83.677
107.488 154.207 191.641
116.594 142.48 69.0776
101.215 218.518 84.0144
103.879 221.157 88.1374
144.417 81.9662 172.285
119.899 83.9662 138.951
122.184 210.662 91.5054
87.7746 246.845 93.8759
274.099 122.208 155
84.0396 249.718 119.151
272.437 115.507 150.301
152.127 70.7276 138.327
102.614 163.453 188.472
114.468 88.6611 138.948
107.347 163.284 191.473
190.237 76.3542 157.273
83.7805 249.829 109.167
107.403 100.527 163.182
180.168 73.4717 151.82
89.4834 140.279 171.473
199.022 75.7499 157.632
245.098 140.633 172.965
226.89 80.8093 163.58
198.512 70.6218 148.185
199.005 72.624 153.049
114.459 89.8615 147.774
243.158 110.286 171.895
134.821 145.739 210.793
209.253 70.7625 118.689
218.237 86.8643 168.744
100.196 156.183 37.0845
75.9685 230.398 139.21
226.809 98.827 172.697
222.756 131.791 180.946
76.9865 201.688 157.076
123.576 232.351 106.265
88.8021 146.608 172.575
115.214 222.4 97.1663
78.3906 144.964 137.648
84.1943 154.435 166.862
247.268 79.0468 156.901
88.3734 154.298 173.357
217.212 96.9238 174.188
160.928 154.287 212.322
118.401 120.58 95.9225
107.597 205.631 77.5223
123.004 183.561 70.588
187.894 100.211 182.591
187.947 134.091 202.703
104.305 113.423 80.1861
114.989 190.125 191.435
101.441 113.6 90.1384
86.8638 214.102 164.784
97.6425 118.515 90.8702
168.906 126.84 210.972
75.3173 153.935 138.428
100.509 113.112 100.165
152.384 77.205 128.335
117.922 91.9121 162.41
142.074 153.428 211.685
161.853 71.7208 129.684
69.493 174.07 101.312
190.986 73.1999 105.813
103.879 173.289 42.7603
71.3792 173.459 90.5005
70.6414 170.913 98.2344
68.5089 172.503 110.085
68.1899 182.741 100.941
107.674 142.318 48.8099
71.5262 182.757 80.9745
74.0218 163.549 89.7748
81.2839 221.534 154.828
94.4561 125.406 80.7902
197.977 134.755 195.58
103.661 126.715 62.3501
190.43 86.9756 106.895
71.7949 164.358 100.541
101.978 122.463 69.0228
189.593 83.8565 103.527
70.9879 162.237 108.902
122.903 220.568 99.7871
91.7793 153.578 177.524
115.632 153.523 61.0208
125.359 163.148 68.7868
133.243 178.272 200.807
151.846 85.002 177.306
73.5412 172.665 157.424
178.672 153.708 207.9
190.819 124.805 198.036
81.2592 141.478 109.233
69.3044 219.486 102.034
72.6284 221.175 90.6147
171.453 73.3757 151.793
105.288 164.324 42.8493
67.7881 201.776 100.967
82.3632 163.435 168.05
124.849 215.013 96.2288
131.34 182.577 197.994
224.625 83.801 123.018
165.075 83.6017 108.548
124.962 80.2346 138.824
169.891 87.5271 107.741
78.1204 173.147 62.2804
77.2155 182.463 61.3852
227.631 87.4888 167.929
93.2589 144.54 176.987
199.287 81.1244 164.043
72.2302 202.214 148.518
110.065 109.324 83.497
112.93 97.8626 167.296
80.7141 141.145 119.015
66.2409 192.938 109.433
271.271 99.5731 153.325
66.66 201.718 109.762
209.256 68.8347 138.17
65.5856 192.008 119.182
65.9177 201.568 119.378
162.467 94.2388 187.601
125.645 171.826 201.446
167.139 159.97 210.326
209.403 68.9229 128.975
254.644 106.676 141.683
78.7061 147.085 100.21
141.061 96.2398 109.557
73.7394 202.162 71.3424
140.199 79.3267 111.384
95.6023 203.696 60.5454
142.234 76.7428 118.621
91.9578 229.226 83.2881
141.366 164.337 208.246
109.501 117.999 75.0134
84.5036 211.286 62.0844
114.181 125.373 194.816
95.7412 211.408 70.4404
69.0569 201.772 90.9436
150.785 105.984 204.162
125.846 90.4062 174.859
132.134 88.2006 176.672
131.512 84.3643 167.905
172.804 92.6782 179.863
179.719 84.2478 103.232
94.0581 115.403 128.64
113.078 239.541 102.13
89.4977 120.986 145.237
152.856 72.6117 153.293
72.7274 229.798 119.358
69.9391 193.089 84.3277
69.1398 192.01 89.8979
67.5268 191.798 101.299
69.5702 166.272 118.651
70.6922 172.438 131.972
68.0802 173.294 118.937
78.1744 209.079 64.0809
135.132 97.1874 106.108
169.769 80.7131 165.119
107.548 183.809 48.8757
161.769 90.5763 183.78
131.788 230.448 108.889
271.229 121.538 163.309
132.524 81.1057 104.097
89.741 140.591 68.2765
246.268 135.578 172.602
87.7837 146.646 63.0149
84.1992 154.111 62.0234
110.867 182.328 52.9732
81.3524 242.586 99.2337
112.634 182.109 192.443
96.2792 181.634 183.77
115.446 183.506 60.9637
252.834 72.0546 140.311
87.8035 125.335 147.977
71.3131 173.182 137.449
189.401 77.4017 101.952
89.1152 119.923 155.543
258.693 105.633 143.858
265.5 105.807 145.966
122.663 191.767 192.32
190.473 105.145 186.767
91.4837 208.969 62.2837
76.5008 191.764 62.0038
79.2815 200.07 56.1222
161.66 114.557 208.62
137.563 197.703 85.4594
137.822 228.934 109.995
208.469 72.3233 112.711
137.095 220.385 104.202
125.4 81.04 120.594
246.894 86.7652 138.173
84.7742 183.373 42.1463
120.461 85.0029 119.254
142.248 79.4448 166.845
119.788 84.1417 129.236
84.1511 144.236 81.0593
271.929 96.1077 148.587
266.853 96.6523 145.217
187.461 109.373 192.428
108.502 131.522 190.723
92.4359 143.418 52.716
179.152 107.068 195.507
107.509 207.545 181.677
209.412 88.7425 116.986
181.64 102.606 188.723
178.931 98.7728 184.492
111.673 94.6538 157.341
118.869 126.013 90.6296
160.759 98.7449 194.642
132.36 238.95 112.465
120.996 173.797 198.499
95.1116 221.825 80.6296
129.979 189.293 194.364
114.811 124.871 80.9215
82.1068 183.052 168.792
121.092 85.0316 148.015
256.921 115.283 169.373
102.794 143.499 186.792
97.0417 154.753 183.12
80.1163 159.303 68.8414
97.9555 145.29 182.138
267.498 131.154 148.439
107.703 174.222 48.7363
78.7191 236.605 137.262
171.233 115.5 206.4
102.055 205.297 179.692
102.846 210.721 177.155
227.376 105.947 174.598
94.6307 116.245 119.824
137.588 195.367 83.7176
160.237 105.96 202.695
100.822 239.563 93.9749
182.952 113.209 198.718
132.343 86.653 102.818
170.386 71.2382 146.998
160.222 70.9754 147.396
254.142 96.909 142.415
121.948 200.983 82.9226
122.527 88.7328 101.48
247.523 84.3702 160.806
237.472 77.6148 158.255
248.42 74.141 150.731
247.417 71.6072 145.985
87.41 163.63 174.012
180.215 77.6458 101.53
239.182 73.2036 151.987
72.9837 172.742 81.9001
99.98 172.296 37.0453
271.284 90.5478 148.633
85.986 249.091 100.179
271.266 118.563 162.858
161.039 79.3582 166.034
237.269 71.0696 147.603
227.402 70.245 147.834
80.044 149.548 86.9213
132.765 203.404 88.9134
80.8682 151.653 159.897
137.819 239.102 114.617
137.792 237.145 113.914
227.611 116.269 176.938
126.278 151.048 77.9861
115.384 88.3344 129.185
120.973 164.223 63.5868
264.891 122.956 167.257
77.6876 218.951 73.2528
69.142 219.611 119.325
269.978 112.798 161.471
73.1338 192.103 71.9841
171.277 104.436 196.881
241.982 81.7753 133.751
113.112 201.651 187.27
88.3749 156.805 44.6042
200.018 90.095 173.042
92.4671 213.68 169.335
119.374 199.18 189.84
186.456 126.209 202.262
82.4369 144.799 157.714
130.949 153.853 207.863
79.5294 148.474 153.783
88.8189 254.679 104.247
88.3228 255.495 109.726
128.1 148.208 83.7446
108.117 166.229 48.2223
170.575 77.2053 158.62
116.471 163.072 58.8553
256.185 86.8903 141.847
80.7927 142.385 148.969
78.7226 146.939 147.516
