ply
format ascii 1.0
comment Created by Open3D
element vertex 1751
property double x
property double y
property double z
end_header
201.682 69.6537 170.15
68.5157 174.192 141.038
164.187 88.3697 122.468
240.222 174.627 160.85
135.629 100.064 112.438
182.023 163.627 207.639
208.604 151.432 197.262
170.435 190.899 117.654
172.15 193.19 136.118
170.503 198.674 136.76
63.9467 199.027 117.247
178.293 190.27 126.722
68.2035 207.056 90.888
171.377 192.415 126.263
118.769 236.248 101.79
161.742 144.862 123.145
157.814 234.668 154.67
161.1 220.388 167.551
256.81 123.275 173.465
112.207 224.975 172.106
169.238 121.709 155.839
120.002 230.92 169.014
177.117 202.083 156.881
189.095 162.324 130.547
89.7538 224.445 73.3581
102.631 137.809 46.9887
169.258 132.016 214.629
149.552 150.046 218.657
160.771 152.644 217.147
144.724 164.884 132.44
254.163 103.931 191.281
68.0038 189.632 90.2414
209.267 152.157 133.14
129.667 95.4211 192.329
153.93 175.351 94.0668
76.2618 189.799 162.69
153.705 231.811 160.256
202.686 156.474 198.834
86.7186 252.435 125.993
139.681 153.262 107.555
85.6761 253.745 116.981
80.516 247.108 117.364
143.293 158.958 97.4805
126.269 213.353 93.4388
82.1031 246.256 128.269
143.98 160.057 127.015
157.546 70.8195 155.71
228.085 169.459 143.82
76.6779 179.864 60.7243
177.974 205.864 173.316
171.67 157.073 161.582
189.945 199.037 146.423
128.838 172.826 207.217
197.889 150.953 202.048
157.972 113.276 121.23
96.6818 193.451 46.4713
255.044 84.1174 175.88
261.024 86.6376 181.956
128.764 170.761 71.0399
67.958 197.671 143.904
172.51 196.491 164.956
255.134 83.9285 184.852
176.37 197.577 183.476
90.051 111.868 156.685
85.0359 122.233 146.611
224.033 173.327 188.599
150.321 228.034 165.622
101.697 199.165 60.6673
130.924 230.679 168.896
261.557 112.509 178.15
188.222 67.0908 136.076
68.7964 221.588 129.344
165.061 216.156 120.995
67.8671 215.159 134.782
261.641 122.49 177.473
254.518 103.018 174.587
121.244 225.948 173.335
174.337 202.92 148.725
235.027 187.612 167.715
140.022 131.565 218.828
97.4444 141.312 188.788
184.316 204.41 164.984
119.746 215.3 91.9557
111.391 170.268 51.0413
115.942 169.871 55.8982
183.899 149.447 208.608
115.312 159.681 56.9288
79.1848 138.998 146.546
111.193 161.233 50.4725
78.57 137.719 136.753
113.351 131.602 69.6578
203.659 81.0018 130.606
107.882 125.571 63.565
233.624 103.771 158.96
101.034 129.185 59.0456
130.072 122.772 116.987
168.437 106.144 200.747
169.439 187.08 201.878
261.437 132.259 177.751
149.943 187.304 201.8
169.414 180.929 205.464
75.6057 207.578 154.427
206.654 93.472 192.577
86.1509 196.325 171.543
207.328 84.1185 136.793
232.109 95.0989 159.766
77.2249 171.725 62.6222
177.445 153.642 146.13
159.321 169.654 212.544
207.84 66.4007 146.18
80.7886 248.006 107.486
88.2161 169.172 37.2273
163.902 222.074 122.687
93.367 160.81 33.8958
158.656 176.21 134.377
153.027 102.664 138.6
168.584 198.157 127.015
64.7501 198.816 107.929
80.1567 139.989 117.393
244.857 132.561 194.218
81.8622 131.558 136.968
160.947 217.487 116.789
101.452 236.964 89.4866
140.429 103.317 115.658
151.842 92.8977 136.979
188.035 75.1333 174.743
84.1093 132.211 117.581
187.102 182.089 117.704
99.3819 153.742 35.4511
242.942 68.6793 173.11
121.888 268.928 128.592
78.4302 178.462 56.5034
247.004 72.8726 174.67
118.402 265.292 102.11
179.834 150.467 155.866
225.528 180.44 155.533
75.3955 170.533 69.2143
166.259 149.896 156.016
151.703 230.004 114.461
169.304 131.305 154.932
167.394 141.82 155.883
150.041 236.649 116.54
237.52 170.427 154.795
82.1031 131.698 146.212
134.443 140.959 218.059
90.576 229.895 158.317
243.549 179.484 167.361
244.529 171.34 164.451
196.677 169.625 126.313
94.4014 238.789 85.0812
249.179 172.962 171.168
164.994 131.964 121.869
143.813 82.0605 124.747
169.655 131.277 123.713
217.091 141.658 137.531
113.214 214.236 180.612
178.597 188.679 155.116
174.408 134.364 163.323
184.855 192.435 146.472
204.795 132.219 199.895
197.194 141.041 202.861
156.466 109.078 140.462
196.876 132.328 202.801
92.7425 199.625 50.091
157.915 96.0482 192.78
162.119 125.151 162.04
82.6713 236.031 145.226
121.318 208.865 87.7008
168.973 124.468 162.463
215.673 131.87 196.748
110.007 225.941 92.2397
111.174 266.398 99.3435
92.9491 112.371 136.859
146.579 160.238 128.18
94.3377 103.373 147.029
132.236 148.356 109.186
148.946 162.343 117.841
142.568 156.616 118.562
159.144 75.4071 166.086
94.554 104.674 154.449
99.2245 195.947 52.9553
169.004 160.343 156.121
112.995 94.9266 174.148
197.266 113.519 135.699
255.591 160.278 175.474
149.709 160.844 216.212
114.514 97.0886 182.659
116.411 136.23 73.7827
162.204 153.43 147.343
149.416 176.972 209.427
179.285 170.62 129.994
176.885 142.292 157.641
101.32 187.533 43.485
160.976 130.479 217.05
139.626 215.184 181.4
178.82 116.47 156.938
115.549 140.488 208.883
217.537 122.17 143.905
120.385 131.802 212.141
150.324 169.636 96.9292
128.231 80.8403 166.243
150.7 99.3613 197.756
230.083 119.935 151.651
151.045 216.985 106.539
158.743 104.831 202.053
140.225 189.17 80.7546
92.6641 113.065 164.659
265.657 151.142 184.447
260.447 149.996 178.786
140.394 204.147 189.58
115.396 139.958 67.224
217.129 113.231 145.875
210.002 112.666 142.293
171.469 220.756 156.807
206.516 82.533 186.928
179.708 208.801 165.88
193.685 187.736 121.493
207.595 180.301 128.034
138.4 151.381 120.001
205.051 187.122 129.499
206.196 131.658 135.342
196.984 180.072 124.631
97.7675 161.607 188.512
197.832 189.921 126.072
241.206 122.93 159.855
158.254 141.332 120.314
235.432 122.58 155.092
128.349 177.888 72.0123
225.502 94.1349 154.467
76.5929 233.87 89.4046
103.042 169.915 192.108
130.825 198.313 192.173
112.451 151.926 204.511
68.1678 223.391 101.486
106.726 154.707 198.582
68.4776 222.796 123.055
269.382 164.201 193.051
130.157 226.339 172.917
113.756 170.248 200.858
163.622 141.183 217.633
140.803 229.937 167.568
197.799 103.019 135.976
92.7414 151.371 39.646
108.757 170.565 196.877
77.5476 242.89 116.272
169.147 140.755 215.43
103.61 150.895 39.6539
112.606 159.297 203.105
265.968 170.757 194.646
205.182 196.289 146.293
235.494 93.5521 192.08
156.123 158.541 138.696
83.8516 161.045 51.2823
89.0387 148.843 50.6613
91.4898 185.058 36.0102
92.2894 179.952 34.1919
158.079 172.182 108.307
188.081 141.056 129.01
103.112 179.999 40.4879
207.091 122.512 138.541
105.029 220.489 85.236
247.301 181.179 172.713
131.173 268.691 127.283
257.837 171.128 180.977
151.724 203.021 188.809
178.505 95.9294 190.949
99.6941 170.082 34.3888
187.898 74.0259 118.378
247.064 159.985 164.205
246.217 188.373 191.497
253.843 170.419 176.463
65.0023 207.047 127.505
220.684 184.574 173.969
68.8267 211.379 140.676
79.216 169.754 58.2772
257.903 101.008 188.28
118.298 179.353 60.8222
87.9363 181.436 179.123
187.676 141.347 206.39
245.401 103.421 193.54
133.084 240.964 160.133
200.772 137.839 132.244
73.8742 150.962 136.535
214.476 187.163 155.683
166.1 225.919 128.7
204.338 150.858 130.937
121.199 151.869 211.267
139.195 234.991 163.638
160.118 100.437 196.369
129.633 91.0242 186.13
92.8962 253.217 91.7094
140.631 184.516 131.427
216.752 84.0628 145.468
255.821 141.408 173.23
183.082 108.07 198.598
150.724 95.5203 194.166
169.875 200.197 185.912
89.5234 112.018 145.445
177.952 82.9678 119.449
175.253 124.093 209.487
179.369 122.028 206.496
150.274 90.2004 186.669
148.848 178.912 136.223
99.9536 111.951 107.23
96.4447 183.775 36.692
149.593 169.71 138.759
178.424 112.732 202.77
101.43 238.96 157.687
150.109 141.704 118.479
85.8543 170.817 41.2962
111.952 236.295 163.295
169.296 150.372 147.27
149.264 181.487 206.526
113.749 114.237 201.157
80.4281 179.61 50.8478
128.979 142.034 118.522
109.525 122.89 69.5612
208.924 156.857 132.802
259.564 194.058 193.709
72.5158 227.488 136.924
104.482 116.273 73.1356
129.631 102.978 109.471
187.304 93.557 128.83
108.4 269.787 120.218
95.057 115.086 118.212
189.018 85.3091 124.995
198.065 131.141 133.082
255.178 170.52 194.138
70.2755 160.508 117.939
104.711 186.577 189.663
122.353 159.203 210.164
168.351 141.122 164.154
138.81 151.199 99.2941
139.368 94.1038 193.171
169.268 86.3815 181.95
187.04 169.77 128.364
152.733 95.9386 143.889
158.553 141.573 218.793
139.745 225.209 172.237
152.659 103.591 145.86
100.721 189.006 187.432
168.642 101.442 195.347
164.788 223.22 161.407
187.018 187.23 117.43
168.464 91.847 186.939
261.652 188.002 193.674
254.973 113.09 194.029
178.342 189.296 174.273
120.54 246.058 156.647
226.107 131.42 195.236
185.216 189.745 165.295
117.498 120.187 207.415
255.322 92.658 187.216
124.06 139.464 87.1492
188.512 84.2188 184.002
93.866 188.517 182.932
126.633 251.559 151.097
142.587 169.414 88.0702
130.121 264.986 109.42
79.6169 179.936 168.662
107.778 194.955 63.485
102.669 131.836 194.404
196.931 200.589 155.421
264.817 160.515 184.909
75.0521 178.246 163.018
251.262 96.3107 189.634
125.434 138.798 116.721
251.442 141.107 168.14
81.7715 198.852 166.306
245.651 112.5 164.782
140.833 171.011 135.678
123.382 105.032 106.047
69.9636 198.342 79.26
80.5227 150.473 79.1544
129.509 197.502 81.9147
89.2284 119.789 166.996
111.314 240.562 159.686
155.448 97.0697 143.485
77.7424 213.578 64.8662
92.2168 121.87 175.138
79.5084 158.227 69.2944
93.7178 142.399 183.847
74.1358 236.359 117.566
122.974 114.797 114.708
148.768 256.062 126.997
218.165 170.135 134.781
226.966 102.961 154.733
180.3 207.431 155.311
117.659 142.263 70.9446
178.449 198.957 174.285
91.8962 256.953 127.412
208.354 177.17 166.929
159.806 176.897 127.341
169.069 180.132 107.474
83.7088 131.938 165.705
167.623 175.576 125.395
157.326 172.896 116.541
86.6671 134.7 89.2058
226.265 141.386 194.294
149.538 103.437 203.062
226.613 65.6963 154.85
95.5657 122.902 181.766
217.243 159.607 192.559
86.6827 162.269 43.0615
207.536 140.87 133.586
198.624 77.8655 181.185
196.352 74.2567 121.1
200.143 173.202 171.405
216.007 141.487 196.075
90.1695 196.076 44.4149
216.516 151.285 194.734
103.461 122.401 192.906
158.266 101.944 124.542
95.9222 202.258 56.6218
149.54 207.345 185.567
112.055 122.126 203.046
91.7257 208.273 58.9295
118.119 160.883 206.985
149.131 131.832 116.571
111.072 132.226 204.245
156.164 245.265 127.508
205.709 195.85 155.5
104.421 210.862 76.8617
66.983 218.193 108.026
73.6291 218.293 78.7791
198.512 168.937 166.546
169.431 122.512 212.121
188.548 94.0307 191.239
77.2614 162.084 71.8575
127.818 161.866 72.1566
131.225 87.51 181.694
159.274 91.6044 186.809
139.657 179.368 80.1632
120.715 170.045 205.242
68.5425 174.931 131.437
103.639 103.979 118.358
245.485 160.773 193.396
83.6725 227.006 154.501
79.8369 229.311 148.627
129.617 141.732 216.493
112.931 255.201 146.065
248.857 101.781 171.14
79.1059 139.32 126.311
120.998 226.925 99.9304
188.292 149.749 206.509
107.569 161.191 44.2751
89.2956 159.855 38.9099
254.014 189.111 184.617
206.916 169.241 127.084
141.213 255.937 116.875
168.768 140.755 124.344
154.33 241.422 150.256
154.157 221.964 169.921
167.156 149.072 128.469
146.04 162.12 99.3327
117.491 112.623 97.6594
186.275 121.973 130.721
108.948 186.62 51.4668
84.914 141.987 79.5885
236.202 102.902 194.331
130.347 246.046 156.102
87.7633 203.361 169.766
149.036 246.338 119.448
212.988 163.121 130.638
110.922 198.017 70.4865
84.1838 179.782 174.654
216.489 103.085 194.975
89.8228 239.332 148.705
158.976 150.467 126.769
215.565 186.985 146.918
167.218 225.934 155.005
223.876 178.541 146.464
179.835 150.008 129.684
114.873 270.685 123.116
200.56 86.938 133.558
238.657 150.72 153.017
91.9958 198.506 176.158
215.463 168.824 190.073
235.278 112.291 157.355
90.6708 131.434 79.6411
187.661 81.2904 120.875
71.1599 160.58 127.122
194.328 133.544 131.416
168.465 68.5776 136.635
92.1947 122.747 107.465
260.571 87.0725 178.543
180.516 159.494 145.753
114.904 87.3715 127.43
110.676 179.944 195.234
71.548 189.416 156.042
188.404 122.72 203.004
79.5551 141.3 155.856
174.405 194.754 189.902
81.0924 218.62 156.931
95.1925 124.236 79.3043
219.545 182.858 145.512
261.519 178.53 187.277
205.145 141.18 199.667
187.588 103.419 194.914
158.073 226.79 118.215
102.376 264.735 98.3846
103.277 125.476 62.4465
71.8046 160.691 98.7056
216.098 151.271 135.74
179.938 87.7796 123.036
149.573 113.105 118.069
65.8946 199.318 135.433
207.316 190.421 135.614
189.935 110.731 197.925
64.2232 198.954 128.299
159.882 237.544 126.723
208.53 69.111 171.607
75.0995 236.868 127.184
149.789 255.361 136.279
167.513 160.401 213.65
177.624 107.229 199.402
204.701 69.1609 129.879
235.857 150.55 193.555
178.949 150.311 164.897
226.365 180.739 184.32
115.652 132.742 208.838
159.096 122.352 120.087
76.4389 217.39 70.744
255.449 151.253 193.626
67.0502 218.133 117.192
90.1487 205.324 53.9642
101.669 198.5 184.646
204.164 176.273 190.737
180.629 160.883 137.569
85.1416 188.382 173.694
140.314 192.356 196.951
103.041 234.008 162.621
247.966 197.175 190.359
226.028 122.573 196.235
197.785 102.864 194.899
88.7376 150.41 178.022
178.908 171.161 206.903
146.844 85.0537 128.361
148.944 122.551 116.754
236.913 68.0867 173.307
187.628 66.9463 156.454
66.7477 189.507 136.433
187.412 191.286 126.052
69.2004 169.65 137.286
68.4321 173.707 148.016
266.092 141.091 184.071
111.783 101.963 96.8453
99.5865 180.843 188.099
111.25 218.734 176.31
197.299 68.8983 127.804
144.131 175.552 84.6159
212.476 185.861 163.094
227.397 186.138 167.333
168.774 226.649 136.307
179.854 160.996 155.893
235.117 189.444 185.007
153.411 111.818 147.529
132.004 211.834 94.6127
182.8 138.175 208.094
162.069 238.323 135.687
104.876 256.998 94.2279
77.6274 155.02 81.9589
216.227 160.38 134.654
120.555 199.608 79.4296
82.0711 199.338 50.1763
128.035 271.017 117.339
203.758 195.538 138.697
99.9022 209.417 177.66
178.333 103.001 195.617
156.547 244.275 144.527
102.397 227.459 166.712
206.525 72.0988 176.507
214.989 180.15 165.537
109.581 229.006 168.351
147.659 213.981 180.456
88.714 128.287 106.922
204.609 122.997 199.313
218.224 182.164 157.084
206.622 73.8111 128.171
266.046 179.169 194.723
91.0011 236.091 81.9276
90.0567 130.929 176.401
99.7443 160.299 34.3857
124.653 166.504 208.7
148.075 161.042 107.845
132.362 78.2092 164.886
112.085 105.485 192.751
209.84 192.239 146.57
160.131 238.371 146.684
98.2232 260.019 131.136
77.0904 152.628 89.2057
178.622 190.99 147.045
166.086 165.808 143.521
101.812 160.383 192.682
265.969 132.238 183.993
168.219 217.808 165.332
247.801 140.751 163.709
198.064 66.5644 155.837
169.457 122.597 124.08
157.526 176.506 209.412
133.574 170.288 76.878
147.098 125.969 218.021
121.276 263.91 136.676
84.8986 188.769 41.4051
183.796 154.664 161.96
164.602 70.2247 133.405
124.339 184.845 199.042
71.2298 160.421 145.752
120.419 111.593 204.633
188.559 154.99 132.768
183.754 154.797 159.013
118.219 241.317 160.209
131.194 236.585 108.813
176.88 132.695 210.355
71.0955 170.038 156.477
68.4702 178.845 151.299
70.6744 179.337 156.551
187.363 89.8336 188.521
123.237 180.466 67.7904
229.354 76.3102 152.736
178.552 154.62 136.829
68.4533 205.169 141.782
222.37 184.026 178.679
123.46 160.964 67.5359
109.869 140.73 203.33
150.88 189.227 86.0362
108.072 100.061 107.794
95.3838 143.947 42.5384
100.868 247.046 90.6137
157.489 246.294 136.939
204.641 195.222 164.451
91.1939 141.016 59.9587
161.96 69.4849 152.011
140.585 113.019 115.55
95.5487 262.508 100.647
185.158 159.754 158.947
104.524 96.6793 137.327
70.671 227.349 97.8819
120.61 111.948 108.957
102.454 133.219 51.3842
176.617 120.454 156.988
224.049 113.251 149.623
233.408 160.961 147.206
119.464 189.329 70.5817
147.369 181.951 83.2893
93.677 122.677 98.4716
122.904 97.1125 191.148
235.978 94.1238 162.962
67.6313 217.207 99.1137
70.8125 218.387 88.2646
233.947 73.4189 156.685
161.046 131.248 162.925
126.307 136.049 106.499
148.86 147.89 121.409
139.146 205.434 91.9296
99.436 221.244 169.204
197.312 198.685 165.352
255.379 160.545 193.742
259.838 157.176 179.329
90.6491 248.674 137.926
122.785 123.312 116.746
146.585 253.837 120.41
213.845 169.665 130.141
73.7718 236.823 107.147
103.107 206.955 181.349
199.588 74.1248 124.008
168.589 187.993 108.535
79.9818 189.283 50.097
226.595 84.6208 154.112
243.819 140.96 193.885
109.171 141.154 50.4175
117.808 245.904 102.336
188.197 186.33 182.952
160.714 175.456 119.305
264.909 151.136 192.355
265.257 141.414 191.684
116.744 153.933 207.856
140.592 239.879 158.847
184.572 185.22 190.789
168.952 113.18 124.663
234.57 181.105 187.523
251.755 179.447 177.254
113.116 141.225 59.9122
122.729 245.997 105.561
205.444 113.057 139.859
158.956 187.049 202.257
101.69 228.06 86.541
254.814 189.691 194.702
144.329 260.043 123.464
151.957 201.67 95.2565
78.7792 240.928 95.5206
95.8009 214.797 171.399
93.7656 131.755 69.3433
226.045 75.6154 183.976
232.276 83.1137 159.125
261.106 93.2134 178.228
108.16 134.148 53.2172
232.91 169.229 148.691
197.143 182.465 185.577
68.8838 189.337 85.569
69.9316 228.267 109.179
150.318 81.4293 176.161
177.885 67.7458 156.74
71.1264 179.52 79.8831
104.608 105.151 107.842
159.086 131.916 119.388
216.546 73.4382 137.648
140.465 179.411 135.845
171.479 69.1812 129.236
143.699 156.421 108.257
140.293 122.195 115.752
159.706 78.8418 171.281
167.751 70.3786 159.045
89.4219 120.311 126.043
151.034 179.408 87.7509
198.206 93.9651 134.827
141.097 199.474 87.4479
156.276 181.152 91.8006
187.085 189.755 175.401
130.554 151.071 215.793
110.058 131.53 60.0056
251.338 123.427 168.733
178.071 187.07 165.861
76.8328 207.409 62.6426
141.061 83.7356 117.947
195.987 116.342 199.144
85.3543 123.654 163.689
110.927 179.541 50.2635
86.4982 132.946 171.508
118.076 256.218 101.931
169.039 176.769 117.491
245.318 150.554 193.628
258.961 164.407 179.954
81.9478 225.458 72.5341
86.8249 116.198 154.341
100.091 103.037 135.987
180.038 160.153 163.862
147.234 187.471 83.1634
234.041 67.8108 156.984
205.334 188.564 173.61
110.693 102.199 185.126
159.394 122.48 155.55
177.686 142.265 164.253
172.672 164.969 139.948
95.2128 114.773 173.735
112.648 263.635 134.838
86.825 115.954 148.211
225.938 70.7899 178.199
158.6 181.527 206.315
119.648 122.938 98.2724
171.583 199.052 145.816
187.633 199.457 156.481
245.183 104.006 166.999
110.689 259.608 139.855
84.0352 207.744 164.603
107.733 120.439 197.648
95.7696 211.297 67.0805
175.566 214.381 162.833
191.278 194.893 129.998
139.569 111.891 211.228
66.9353 208.151 98.7484
252.163 197.367 187.197
196.842 122.488 134.482
69.2815 209.605 87.0434
178.608 187.288 116.42
71.227 209.052 79.1431
255.126 197.175 191.779
228.584 112.009 152.909
187.841 131.579 129.928
242.439 141.158 157.742
235.978 132.166 194.851
178.146 66.8432 145.971
64.8855 189.826 127.023
191.971 97.21 132.236
159.073 114.418 152.699
227.741 189.014 174.92
252.851 76.8597 177.005
247.685 151.659 163.768
256.438 151.067 175.031
106.22 133.729 199.1
197.287 201.342 146.484
139.907 180.238 206.158
216.479 68.3257 172.515
178.17 67.1856 136.237
132.066 160.274 78.5623
149.3 199.095 192.188
177.274 91.2886 187.419
106.281 141.126 199.373
229.468 187.035 181.161
253.524 77.2507 181.778
242.735 150.253 157.735
226.361 81.1028 188.227
198.095 159.976 129.109
245.221 189.051 175.327
101.224 112.9 184.241
156.32 70.5059 145.533
116.162 108.411 94.0712
89.5176 130.351 88.1777
240.009 109.359 160.803
95.479 153.728 35.5351
213.173 125.452 140.388
90.5119 256.249 97.9229
197.44 93.8075 191.987
206.009 160.124 129.186
122.592 266.35 105.055
72.8612 199.008 69.6612
162.749 175.846 106.904
135.383 79.3111 112.249
176.705 216.273 155.758
178.41 132.198 126.84
270.105 171.153 194.424
69.7232 199.693 147.784
100.847 122.107 69.3938
70.2102 160.628 107.935
121.788 218.998 95.8245
190.505 196.22 137.258
67.7061 188.691 144.813
204.54 104.116 139.766
172.245 212.56 169.407
157.035 103.75 145.94
83.0126 150.639 69.8018
131.993 189.884 78.0846
121.514 85.401 165.419
93.1109 245.35 144.862
207.603 67.9205 136.058
68.0121 179.879 146.568
146.49 94.6395 120.928
130.758 208.699 186.663
139.88 142.117 119.084
169.696 131.339 164.881
181.571 131.574 207.642
205.982 113.001 196.999
187.331 197.738 172.892
147.543 169.935 124.714
115.887 88.7076 161.588
141.35 125.566 218.142
197.846 66.4372 145.539
233.739 150.229 148.043
197.43 82.3663 127.445
237.99 102.303 162.221
75.8858 160.905 79.3359
113.66 111.863 86.9795
101.609 267.745 116.825
94.3275 123.072 89.1912
85.783 217.243 162.691
80.8785 229.561 76.9513
243.099 191.325 186.986
134.863 79.1426 170.32
159.223 86.6724 181.817
131.31 228.125 105.357
97.9299 109.127 127.293
98.081 131.153 188.05
185.764 192.223 136.372
80.4552 190.157 167.759
144.665 165.721 93.9506
131.027 263.84 136.238
178.6 208.528 146.366
121.136 141.738 79.1262
99.2063 110.104 117.437
149.038 178.612 127.485
76.7789 216.174 152.512
197.802 198.108 136.109
186.552 199.537 164.863
251.19 150.571 168.11
132.332 204.037 189.535
154.174 108.368 140.974
76.3233 226.507 80.2641
102.552 141.505 43.0386
196.114 195.444 129.988
73.3992 218.618 146.07
166.58 214.111 171.842
130.745 160.364 213.359
101.294 257.312 137.261
74.6389 150.327 118.053
93.9819 254.037 135.087
110.931 106.169 89.6501
215.805 180.316 135.458
145.194 261.188 129.657
100.876 248.5 147.725
108.663 100.073 176.173
121.684 86.1146 108.266
209.372 189.45 165.736
103.2 252.889 144.078
74.4617 151.323 146.435
222.91 81.7513 149.737
123.063 256.257 105
130.035 122.095 214.496
177.147 185.149 111.711
73.8191 160.781 156.206
67.1932 178.732 127.791
111.128 246.818 97.9207
197.193 83.9723 185.957
86.4243 153.103 52.398
85.4886 196.271 44.4783
197.334 111.669 197.363
156.527 216.055 110.987
82.5383 131.802 127.217
216.804 102.894 147.219
98.4505 100.138 144.872
111.787 255.666 97.9666
125.663 137.62 112.084
226.667 113.55 196.088
226.008 102.999 194.754
188.962 177.372 124.09
170.337 75.0954 118.815
264.025 132.101 191.536
158.89 112.921 146.191
138.442 236.414 111.704
216.582 93.5076 147.351
261.15 140.41 178.107
74.5803 236.182 99.0181
109.574 93.567 127.162
120.825 131.533 89.3616
107.269 99.3508 116.209
262.624 122.72 191.279
139.951 180.321 127.906
235.673 121.717 196.327
119.413 102.709 100.287
140.513 171.357 128.947
74.2883 208.638 69.3561
64.9439 208.342 117.735
168.437 150.959 215.174
185.444 113.027 130.858
132.587 149.742 88.5281
89.9466 121.979 117.84
169.769 74.1002 166.238
69.1641 168.957 146.132
131.036 94.1249 107.027
122.035 123.092 211.182
178.679 179.033 117.435
162.465 209.903 115.208
113.914 96.584 101.04
141.747 153.33 123.817
121.227 179.562 201.161
149.359 152.955 125.329
81.5663 141.208 98.7052
202.962 173.624 170.667
159.569 170.954 138.145
226.064 150.585 193.589
194.533 164.057 165.238
148.989 162.17 135.166
112.991 93.6829 108.004
105.663 193.025 57.4589
131.394 149.035 118.047
102.33 141.511 194.814
101.436 217.792 79.962
159.326 197.448 192.245
113.655 201.6 76.4939
235.757 141.368 194.011
67.9694 180.011 136.587
85.4004 133.322 108.308
178.67 93.2828 125.231
234.186 177.783 157.352
197.88 192.332 177.355
175.132 69.9465 122.936
138.473 264.169 118.567
152.184 168.17 118.617
186.7 177.676 200.956
255.422 131.691 193.745
116.125 88.8312 112.304
245.702 112.843 195.725
155.802 204.885 101.699
170.128 192.031 196.153
95.7534 196.637 181.179
177.528 182.061 110.702
86.0004 134.092 98.5171
77.7057 223.2 73.8833
89.1705 129.229 98.5114
266.286 160.824 192.737
150.652 94.3132 127.358
176.935 186.305 200.695
168.209 168.909 136.199
178.456 189.227 194.067
119.421 81.995 146.797
90.8831 247.138 88.0512
187.203 68.7079 163.475
130.349 113.362 114.793
215.629 68.578 138.919
121.257 101.149 195.042
205.031 172.531 165.983
161.137 166.473 142.909
157.194 149.351 218.313
185.651 190.921 155.747
142.164 238.481 113.746
98.3264 170.369 188.357
101.706 254.944 92.1636
93.5589 141.191 51.4324
105.923 247.814 94.3448
158.219 134.187 218.26
140.697 219.523 177.392
196.893 122.004 200.733
149.806 218.627 175.372
169.214 152.96 137.052
236.612 75.2195 183.483
150.774 247.49 146.764
256.254 180.185 183.158
120.945 237.462 163.862
178.781 181.47 203.223
269.327 175.765 194.905
73.8048 227.346 88.6787
92.3528 170.676 33.3577
158.877 216.34 173.675
147.847 226.951 110.702
196.819 177.827 192.233
70.2379 189.698 78.8117
82.8035 141.769 88.8513
173.243 195.382 170.713
84.0374 122.767 156.274
226.502 169.452 190.277
168.24 71.1807 126.136
236.262 112.622 196.281
92.5918 218.442 70.883
118.618 90.2626 104.702
86.1206 125.005 127.418
117.697 194.946 73.7126
203.713 150.618 199.409
225.32 68.2313 146.894
163.051 152.753 153.603
209.536 141.828 198.046
158.8 161.252 145.23
200.783 163.224 197.911
153.131 211.307 104.318
209.409 102.874 142.652
169.807 209.679 175.273
245.498 180.279 192.073
167.755 205.285 181.495
84.4697 170.349 174.84
140.946 142.713 219.091
92.3511 179.619 183.457
248.327 90.289 188.857
92.1907 170.627 183.532
211.076 86.8951 141.941
140.435 184.471 132.33
213.05 80.9723 139.939
172.078 197.664 156.075
210.115 93.882 142.803
245.611 94.1259 190.586
124.693 168.86 66.3198
78.7026 146.519 96.0954
79.3384 148.412 88.2967
131.668 201.69 85.9897
75.9442 150.743 98.6923
74.3243 160.188 88.1235
101.022 268.237 107.658
178.485 191.459 136.498
172.809 193.134 145.335
113.961 211.32 85.5393
110.55 207.841 79.7931
107.887 214.123 83.0544
177.904 199.998 165.683
169.77 164.688 146.583
138.019 171.501 81.4274
158.913 81.8278 175.832
130.184 217.567 98.2531
85.6192 245.689 90.4701
130.07 220.659 178.091
263.91 112.438 184.416
69.9173 219.415 137.887
67.4949 218.153 126.942
188.211 68.3695 126.492
82.6034 247.227 97.5529
92.3258 161.066 183.317
101.064 150.415 192.954
83.0236 214.958 62.4671
135.106 174.314 130.024
190.103 112.974 132.656
177.828 71.7454 166.156
179.11 76.6338 173.113
145.512 204.065 93.3528
186.48 70.9125 168.212
136.622 153.083 91.0553
105.557 106.458 182.894
157.936 84.5964 127.293
151.326 84.6562 136.192
99.9834 100.828 157.086
163.075 82.9871 121.855
168.758 84.4054 120.322
93.9531 226.629 162.951
216.593 92.9476 192.816
207.303 87.306 190.138
173.267 222.156 144.157
206.373 103.298 195.173
129.019 131.94 216.414
178.962 68.4684 126.799
215.708 81.4235 187.914
71.2498 208.903 146.73
79.3709 209.31 158.823
111.521 271.802 107.373
80.2984 150.609 165.093
112.224 270.677 102.679
84.5369 151.716 172.945
81.9246 141.381 165.69
85.5315 141.062 172.019
124.551 231.215 103.747
89.5093 142.241 177.828
195.949 70.1951 169.389
68.0215 173.124 125.859
76.3507 152.34 155.166
112.109 271.566 116.802
78.4977 148.837 159.071
250.701 158.813 168.887
158.674 208.686 108.89
112.317 92.7355 165.427
164.937 233.495 136.845
77.0997 196.155 161.977
97.8765 118.39 87.3877
104.84 200.934 66.9392
101.191 208.156 70.3827
107.746 204.099 73.6539
225.842 122.536 148.584
103.056 111.933 88.3769
166.342 198.397 117.809
110.986 188.897 191.495
75.8779 226.342 145.139
104.203 113.201 79.6067
73.658 198.525 155.932
98.5176 119.604 78.099
164.966 233.184 145.021
101.088 112.534 98.3468
106.265 107.643 91.5883
149.1 192.475 197.097
127.948 108.545 112.442
111.956 245.831 155.199
110.575 151.09 50.2659
121.192 256.444 146.213
235.486 170.386 191.558
109.551 250.381 150.145
103.164 243.82 154.015
140.59 208.248 186.528
190.945 120.552 132.404
121.184 141.124 212.642
149.793 71.9398 145.306
141.099 71.8543 146.44
149.231 76.5275 137.75
141.434 93.7356 116.543
155.427 195.662 92.8341
140.725 73.2671 136.984
235.957 197.223 175.659
234.565 192.362 171.945
215.449 182.044 174.042
171.895 173.926 207.874
215.906 178.732 184.016
208.907 181.311 173.743
96.4981 135.759 53.8632
207.278 179.575 184.274
97.4044 203.307 179.072
240.966 185.219 169.322
242.414 160.069 157.763
198.38 152.619 130.187
217.304 122.923 196.804
246.099 121.774 164.418
113.746 195.795 189.736
177.928 176.208 124.177
169.042 218.113 127.256
172.422 220.619 135.742
260.912 114.16 190.957
187.084 69.5328 121.56
244.959 199.861 184.559
243.329 198.311 177.823
237.323 198.394 182.737
107.328 193.322 188.823
111.86 93.0335 117.155
160.736 211.665 177.965
77.8023 145.468 109.464
159.002 206.956 183.261
77.4416 144.799 118.775
101.71 103.968 127.81
68.7679 176.438 94.8125
65.7138 179.775 108.624
68.1858 172.489 101.318
68.7009 166.412 105.671
69.5292 178.613 88.9694
70.8944 171.108 89.4913
94.3504 131.746 182.97
104.268 170.328 40.5216
69.3975 170.053 98.0327
112.086 236.719 97.3967
87.8252 117.93 142.111
140.591 89.8862 187.762
130.766 185.853 200.077
197.346 73.6487 175.917
140.779 187.322 201.209
129.89 190.823 196.111
164.991 181.862 102.004
122.221 189.369 195.249
140.367 199.274 192.489
89.458 139.63 68.7452
148.949 170.074 212.795
163.92 136.805 161.095
81.2206 140.273 107.785
74.6721 150.753 108.09
213.389 186.3 138.823
169.67 226.712 146.16
103.6 95.6098 145.36
104.352 96.7677 155.1
68.5355 213.663 92.8876
223.367 169.7 139.686
148.741 75.2624 165.179
75.3473 170.983 163.176
178.075 149.965 211.284
121.19 94.0516 184.851
219.438 77.0264 143.489
168.146 169.601 210.459
210.464 76.7378 133.085
111.944 217.517 88.6896
186.29 103.126 130.438
131.24 169.234 209.842
178.466 104.23 127.473
160.687 69.2949 145.946
178.179 74.0965 117.176
164.41 175.365 208.892
126.517 135.645 98.4001
73.8314 179.394 69.136
85.7361 124.079 137.19
72.6113 189.54 70.1858
224.912 182.946 163.311
66.7871 208.1 135.603
159.015 225.59 163.112
102.512 264.276 127.137
109.822 112.733 80.0082
216.965 172.854 188.22
225.547 160.065 192.271
170.34 150.413 163.578
66.3631 198.464 99.2947
66.3764 189.495 98.5394
64.3819 189.209 109.093
169.735 207.497 127.442
64.1846 189.249 117.706
172.015 205.918 135.044
200.919 175.291 170.847
201.144 175.297 169.086
105.413 270.85 108.689
123.611 115.723 209.202
196.637 196.197 173.395
68.4834 164.794 113.435
137.723 77.5767 119.208
92.8919 227.657 78.6048
98.7617 204.84 63.5826
98.4429 214.347 73.6458
213.114 177.937 130.878
208.695 121.566 198.091
107.027 143.927 45.3351
188.392 131.68 205.392
254.241 179.827 194.866
244.741 170.55 192.62
187.522 152.233 130.02
193.998 155.383 132.406
130.5 104.482 202.855
90.0911 258.449 118.012
81.2718 238.547 87.3309
255.128 112.251 173.649
159.899 121.543 149.183
131.447 112.941 210.534
147.934 198.468 89.6703
141.714 259.113 138.868
167.981 96.603 190.904
140.623 103.215 203.458
118.621 90.9771 176.179
128.694 142.321 108.198
123.91 131.678 109.062
109.179 91.281 147.06
149.282 207.928 98.9991
196.754 159.836 201.112
147.422 214.16 102.434
224.649 160.7 139.183
194.569 168.941 199.753
68.691 199.135 85.316
140.501 209.705 96.2856
173.854 203.877 179.821
139.449 216.482 100.793
140.855 220.888 104.258
127.057 270.551 123.47
130.986 256.162 145.516
215.827 65.6306 154.776
89.2786 190.058 177.662
139.826 254.361 144.972
206.58 170.36 192.544
186.274 158.796 133.742
94.7464 262.988 117.24
140.961 249.751 149.482
207.855 66.1024 154.663
206.937 67.4944 165.369
197.608 67.3219 136.493
134.942 176.321 129.512
94.2897 113.531 127.829
111.422 267.821 127.141
88.5713 119.317 135.871
178.569 112.206 128.037
107.311 233.405 93.1049
242.799 83.2384 168.696
87.3757 180.12 36.0138
70.1163 227.35 117.593
70.5499 227.002 126.973
175.875 209.243 138.164
68.3884 222.93 117.907
215.891 133.131 139.194
164.299 124.272 150.766
236.043 81.3914 187.953
219.789 130.481 142.371
67.3215 179.825 99.0853
226.211 131.925 146.188
227.178 141.32 144.559
190.483 183.711 187.026
139.891 263.439 134.203
153.097 167.1 108.794
189.057 180.766 193.739
140.743 264.758 127.302
211.212 183.908 132.499
130.325 236.751 164.186
174.23 133.527 158.855
67.9764 198.774 89.6174
155.468 94.8033 136.79
68.8825 165.912 121.214
67.1673 170.822 117.339
159.24 94.4321 126.709
69.1512 169.71 128.427
178.085 141.433 127.266
225.191 85.2689 190.372
120.316 220.639 177.55
242.522 68.4294 168.452
82.03 209.453 58.4595
168.391 103.215 124.545
161.919 111.873 122.83
178.86 121.753 127.656
236.045 70.6526 178.564
147.442 243.424 152.753
117.655 122.865 89.8541
233.919 86.2865 190.114
116.681 114.823 92.1532
111.437 189.259 60.5416
86.4233 144.331 69.9798
246.903 131.402 163.745
114.193 191.657 67.4231
87.2511 145.753 64.1752
88.1331 147.068 57.6676
84.9575 151.648 60.676
77.2995 242.775 108.154
175.189 216.471 137.746
177.319 216.947 145.765
236.775 181.799 163.295
195.542 187.448 181.48
135.692 262.16 112.48
147.763 172.108 91.2982
130.921 83.368 174.764
156.361 172.631 100.824
160.546 179.391 98.1282
115.147 181.288 57.3124
168.835 89.5038 122.184
162.612 199.536 107.128
165.552 207.291 119.336
124.21 132.304 116.441
104.35 179.496 190.974
156.427 235.477 120.436
107 99.1884 169.174
119.137 260.59 141.181
107.566 151.768 44.4746
98.772 225.35 82.7177
77.989 189.909 55.2427
80.1771 239.117 138.355
76.2071 189.418 60.1016
76.3466 199.328 60.4122
78.3681 201.47 56.1208
123.719 241.946 160.719
126.716 270.691 111.832
159.424 201.999 187.871
128.607 224.051 102.14
139.613 132.033 116.406
163.741 202.873 113.441
150.927 237.138 156.698
147.811 233.411 161.614
210.099 191.766 156.827
120.102 84.6713 117.216
84.9627 179.981 40.2034
139.3 153.523 217.288
119.971 82.9706 127.646
140.725 75.6143 164.829
115.773 88.3071 118.366
251.604 132.588 168.437
162.838 158.233 153.164
156.461 102.821 137.935
99.1211 120.977 186.284
261.339 103.333 178.245
262.742 103.36 184.454
262.18 93.6813 182.877
163.935 136.671 158.934
131.043 141.54 98.6561
255.462 93.9229 175.41
120.871 215.434 181.515
180.34 190.594 184.014
130.058 216.69 181.391
148.775 103.589 119.906
130.686 256.495 109.464
136.348 163.165 82.9693
120.023 271.563 108.862
242.1 132.308 158.818
113.637 227.598 95.6068
169.089 111.863 205.758
123.644 131.142 98.0872
68.5773 175.013 134.118
130.594 83.3096 108.389
100.864 103.513 164.935
115.092 177.287 199.537
245.248 75.6259 182.707
139.582 160.451 89.6327
132.908 260.172 140.582
81.9561 131.072 155.396
132.02 77.2884 118.09
157.322 188.812 91.6375
136.718 84.1978 111.491
140.397 76.3629 127.221
92.4312 189.409 39.8288
169.53 173.345 129.704
113.384 121.452 79.4219
96.3783 107.071 161.975
121.385 271.956 117.668
121.449 270.87 123.908
118.84 161.022 61.4825
149.07 131.412 218.786
173.301 193.191 170.537
114.086 86.4475 136.785
109.005 91.8252 136.96
117.459 132.606 80.7277
113.913 86.8447 146.011
141.494 149.081 218.384
120.416 81.5851 136.53
173.192 69.8378 160.808
140.578 78.5249 171.637
93.646 150.275 184.323
86.8761 242.276 142.274
88.2493 160.607 178.945
256.242 131.927 172.952
75.8129 235.493 135.753
104.805 160.961 39.6928
123.775 192.421 75.8384
250.482 113.345 169.247
83.3216 235.223 80.5618
129.09 109.27 207.153
159.021 121.816 215.33
86.5048 233.212 152.03
176.688 167.083 133.4
91.7827 218.416 166.477
107.255 179.73 45.3311
78.3879 241.242 130.839
85.3545 253.859 107.677
89.4693 209.438 168.646
225.078 73.6138 146.805
119.37 202.073 188.644
153.063 100.254 124.231
236.558 84.3524 163.843
148.187 252.716 143.188
247.462 94.1438 171.722
245.996 83.2158 187.212
224.545 151.805 139.563
67.3771 170.797 108.501
222.471 143.183 140.543
107.054 169.029 45.0806
238.564 161.804 152.991
195.276 156.589 132.72
228.577 150.764 142.985
198.729 170.703 196.388
229.252 160.855 142.788
232.879 142.162 148.925
237.884 141.044 153.465
247.304 84.4714 171.79
123.193 105.937 201.1
215.732 66.4445 165.3
110.778 91.7974 156.222
119.909 169.623 60.3433
123.159 87.1081 173.915
96.7418 242.289 151.624
65.5856 179.398 117.621
76.9936 161.936 161.898
79.8404 159.903 166.002
79.405 170.236 168.091
124.951 79.1783 128.734
159.71 160.765 215.426
226.395 68.1525 173.129
149.507 111.862 210.754
129.717 207.823 90.3467
178.78 140.793 210.537
120.711 151.128 69.6137
124.241 148.414 77.6143
129.166 152.637 80.6805
149.928 142.046 219.55
117.166 152.524 63.138
254.825 121.943 194.582
159.646 75.811 128.303
97.8467 108.751 168.628
131.723 78.8259 111.263
115.529 119.653 85.6982
105.84 270.697 113.842
94.1182 263.286 107.339
158.94 114.138 210.91
167.684 115.878 209.281
77.4038 232.917 142.56
128.881 99.8707 197.295
160.006 109.66 207.006
112.09 208.86 183.925
130.541 246.352 110.211
243.999 74.1254 168.082
182.695 183.796 197.639
245.711 121.559 195.917
110.98 200.062 187.793
84.5215 160.559 173.903
98.5214 178.227 35.4
134.869 156.728 85.0972
94.3989 208.111 173.676
86.1924 252.851 99.5544
190.612 165.854 165.91
89.7079 258.808 107.315
128.232 142.797 89.8356
263.464 169.424 185.505
160.73 131.548 155.89
129.324 132.136 118.482
149.312 78.5531 171.455
178.698 69.0007 162.017
148.986 86.7995 182.497
95.5586 220.606 76.1154
120.46 208.353 185.861
81.6072 159.949 59.6773
77.1846 143.677 145.652
240.646 115.359 160.247
77.0461 141.792 136.781
172.653 192.242 165.26
138.535 195.236 83.2837
131.619 76.1338 126.784
148.953 155.275 217.725
105.391 113.738 191.377
157.964 72.6982 136.671
130.778 75.5047 137.085
226.028 93.2031 192.769
205.229 93.7219 139.254
164.977 196.169 109.859
190.91 103.854 132.635
115.595 221.589 94.2068
136.466 92.9428 111.554
157.991 198.311 98.5177
168.373 94.2877 123.478
87.334 136.131 82.1196
192.095 174.779 198.566
188.459 171.235 202.878
140.306 247.036 114.877
188.932 161.283 205.039
197.519 68.4422 165.051
236.321 131.738 154.098
115.232 129.679 77.5381
120.841 83.1029 156.057
168.722 67.8715 146.283
140.809 72.8789 156.181
140.308 160.709 215.325
124.204 78.243 146.885
74.5135 150.669 126.834
70.6766 161.374 137.986
107.701 116.482 73.6489
161.169 229.528 157.422
104.587 261.8 133.235
97.5781 117.629 96.007
105.69 106.28 99.0835
87.807 251.058 131.274
125.579 88.6932 179.947
161.263 189.706 97.5474
164.634 187.206 102.11
168.29 196.092 191.475
120.678 94.6317 101.164
89.2092 214.588 63.4644
114.972 87.9824 155.348
109.551 111.313 194.811
192.121 78.8375 180.124
124.885 78.6589 152.892
130.003 76.6982 155.449
135.775 256.965 112.499
122.725 237.887 104.644
250.471 186.953 178.652
255.486 141.943 193.527
83.239 205.317 53.6674
135.235 175.572 132.289
154.341 114.288 151.115
172.56 192.32 156.956
177.859 160.693 209.861
77.0667 143.848 127.581
196.984 141.924 130.353
216.102 112.385 196.18
231.695 131.951 150.339
84.4725 244.811 135.858
129.962 75.6354 146.735
95.4413 133.785 60.9
95.8269 106.748 139.744
160.168 154.016 135.678
134.812 147.017 96.5052
155.559 107.019 122.029
133.991 106.439 113.149
147.486 223.772 171.223
68.6891 191.092 149.891
173.075 117.694 208.026
124.666 78.6692 137.168
118.538 204.793 82.9707
216.489 75.6541 183.283
216.095 71.2977 177.938
149.243 71.4504 155.79
222.327 104.175 150.465
159.401 192.612 196.819
139.775 244.825 154.674
188.085 162.492 164.477
95.7879 261.602 124.531
209.944 131.895 198.23
199.012 88.3072 189.599
124.998 202.993 84.5597
162.535 228.209 124.434
182.368 164.904 131.687
102.31 217.665 173.355
168.304 81.7958 176.426
141.422 176.147 208.852
130.355 180.307 203.467
139.555 81.6001 176.243
192.992 183.594 121.848
81.6051 219.9 67.6277
241.404 168.5 158.733
235.874 160.939 192.98
82.029 170.132 50.5769
216.8 86.4269 190.723
134.265 132.706 218.168
180.926 69.5932 121.347
242.554 87.7927 189.564
106.969 108.125 188.564
120.42 123.25 108.206
153.748 250.623 139.293
68.147 223.46 107.293
115.95 147.499 208.445
175.402 167.574 208.908
145.226 88.6946 121.978
92.9396 235.757 154.94
155.928 146.836 121.92
106.093 97.3947 129.361
133.224 179.423 76.6573
221.407 95.5547 150.844
140.383 86.7826 183.245
169.354 78.0472 171.722
96.2802 125.817 72.2104
216.858 66.7995 144.833
140.084 171.343 210.992
116.857 98.708 188.457
210.99 118.639 141.7
154.573 241.922 121.998
164.698 138.207 122.043
193.775 90.311 131.1
96.635 116.516 180.111
128.329 241.724 160.649
203.544 144.745 131.411
162.433 127.457 150.804
87.8254 169.859 179.098
103.3 105.066 174.51
154.716 85.179 132.534
99.1311 110.129 175.169
163.17 78.8034 121.726
250.17 107.732 170.04
164.323 232.594 131.778
106.286 240.489 94.0257
65.5635 208.308 107.929
221.942 176.456 140.505
192.187 127.562 131.982
162.56 69.4135 139.245
141.424 107.778 208.401
133.625 250.707 150.808
114.553 149.997 59.1851
120.731 251.472 151.416
264.921 122.307 184.293
126.243 94.053 103.055
145.1 261.01 132.15
140.366 98.8469 198.253
169.578 68.7861 154.985
77.5355 242.266 101.942
210.279 174.07 188.722
206.9 160.507 195.815
116.978 185.348 64.0009
237.113 177.527 190.003
201.91 193.546 132.542
164.664 124.981 122.033
146.336 203.771 189.302
116.859 89.3343 167.773
211.832 73.2695 131.726
237.024 67.2876 165.202
187.831 66.6017 146.39
202.904 185.275 180.263
105.717 97.8052 162.352
183.438 203.606 170.409
243.145 94.1698 168.649
118.223 183.515 198.089
96.3342 116.441 108.691
106.559 148.271 199.151
135.772 243.253 112.558
126.539 79.7717 116.128
259.849 107.866 189.471
77.6535 145.777 151.893
132.903 268.708 116.971
145.336 78.7689 131.174
144.127 193.707 84.2014
86.9542 222.968 160.72
238.148 74.705 163.1
152.935 248.577 125.056
116.494 126.689 83.8435
68.2675 182.328 92.6079
183.508 155.839 208.485
88.3525 137.299 76.3054
193.424 79.678 122.065
126.322 79.8876 159.444
97.1321 117.552 100.313
152.354 108.544 207.848
173.331 203.874 142.492
185.272 79.8425 179.058
207.603 76.4264 182.222
105.301 223.28 170.622
231.037 126.008 150.892
140.483 226.889 107.884
183.52 143.583 208.42
97.3796 108.289 132.702
68.4837 174.463 151.195
230.245 175.093 189.194
78.3064 157.026 75.4062
126.426 186.089 73.9446
187.446 113.93 200.128
202.437 194.209 170.839
259.912 185.062 188.831
139.625 121.678 216.872
77.8813 232.483 83.5329
145.504 232.619 112.712
72.9713 170.293 79.6975
97.5696 127.787 65.8434
107.276 162.721 197.796
183.4 203.748 160.412
230.926 175.112 150.677
77.8878 242.092 124.574
87.0497 125.937 118.93
121.304 197.487 190.771
221.432 70.9725 141.275
178.312 85.1743 182.234
221.421 69.6537 141.359
87.6406 127.719 112.999
78.0856 194.111 55.051
153.426 127.48 217.704
178.1 81.142 177.993
226.559 65.662 164.108
145.665 107.876 208.401
102.782 190.616 48.9545
126.299 155.563 73.8975
126.418 145.945 83.8719
163.815 193.109 103.803
69.1003 220.053 95.424
163.643 118.604 122.378
150.372 121.97 216.386
163.719 174.752 131.755
135.273 174.556 132.042
